<svg width="131" height="40" viewBox="0 0 131 40" fill="none" xmlns="http://www.w3.org/2000/svg">
<path d="M12.6547 13.5898V12.7653C9.90407 12.7653 6.99999 13.353 6.99999 16.5959C6.99999 18.2388 7.85101 19.351 9.31019 19.351C10.3816 19.351 11.3388 18.6939 11.9428 17.6245C12.6922 16.3082 12.6547 15.0714 12.6547 13.5898ZM16.491 22.8612C16.2396 23.0857 15.8757 23.102 15.592 22.953C14.3296 21.9041 14.1049 21.4163 13.4094 20.4163C11.3224 22.5469 9.84488 23.1837 7.13876 23.1837C3.93876 23.1837 1.44489 21.2082 1.44489 17.2551C1.44489 14.1673 3.1204 12.0653 5.50203 11.0367C7.56733 10.1286 10.451 9.96733 12.6547 9.71631V9.22448C12.6547 8.31836 12.7241 7.24897 12.1947 6.46733C11.7286 5.76733 10.8408 5.47754 10.0592 5.47754C8.61019 5.47754 7.31427 6.22244 6.99999 7.76325C6.93468 8.10611 6.68366 8.44285 6.3408 8.45917L2.64897 8.06325C2.33876 7.99387 1.99591 7.7408 2.08162 7.26529C2.93264 2.79182 6.97346 1.44489 10.5898 1.44489C12.4408 1.44489 14.8592 1.93672 16.3198 3.33876C18.1708 5.06529 17.9945 7.37142 17.9945 9.88162V15.8102C17.9945 17.5918 18.7328 18.3735 19.4284 19.3367C19.6743 19.6775 19.7277 20.0898 19.4181 20.3469C18.6422 20.9939 17.2618 22.1979 16.5018 22.8714H16.4916M62.5263 13.5898V12.7653C59.7692 12.7653 56.8651 13.353 56.8651 16.5959C56.8651 18.2388 57.7202 19.351 59.1814 19.351C60.2467 19.351 61.21 18.6939 61.8141 17.6245C62.563 16.3082 62.5263 15.0714 62.5263 13.5898ZM66.361 22.8612C66.11 23.0857 65.7467 23.102 65.4631 22.953C64.1998 21.9041 63.9692 21.4163 63.2794 20.4163C61.1937 22.5469 59.712 23.1837 57.01 23.1837C53.8039 23.1837 51.3161 21.2082 51.3161 17.2551C51.3161 14.1673 52.9855 12.0653 55.3712 11.0367C57.4365 10.1286 60.3202 9.96733 62.5263 9.71631V9.22448C62.5263 8.31836 62.5957 7.24897 62.059 6.46733C61.5998 5.76733 60.712 5.47754 59.9243 5.47754C58.4753 5.47754 57.1855 6.22244 56.8692 7.76325C56.8059 8.10611 56.5549 8.44285 56.2059 8.45917L52.5202 8.06325C52.21 7.99387 51.861 7.7408 51.9528 7.26529C52.7977 2.79182 56.8426 1.44489 60.461 1.44489C62.312 1.44489 64.7304 1.93672 66.1896 3.33876C68.0426 5.06529 67.8651 7.37142 67.8651 9.88162V15.8102C67.8651 17.5918 68.6039 18.3735 69.2998 19.3367C69.5406 19.6775 69.5937 20.0898 69.2794 20.3469C68.5039 20.9939 67.1222 22.1979 66.363 22.8714M113.21 22.9143H109.422C109.041 22.8877 108.737 22.5837 108.737 22.2082V2.67958C108.769 2.32244 109.085 2.04284 109.471 2.04284H112.996C113.328 2.06325 113.602 2.28366 113.675 2.58978V5.5755H113.745C114.81 2.90407 116.302 1.6306 118.93 1.6306C120.637 1.6306 122.3 2.24693 123.371 3.93264C124.365 5.49387 124.365 8.1204 124.365 10.0102V22.3C124.322 22.6428 124.008 22.9143 123.632 22.9143H119.818C119.471 22.8877 119.181 22.6306 119.145 22.3V11.6959C119.145 9.56121 119.39 6.43672 116.763 6.43672C115.837 6.43672 114.988 7.05713 114.563 7.99795C114.028 9.19182 113.959 10.3796 113.959 11.6959V22.2082C113.959 22.6 113.622 22.9143 113.216 22.9143M97.1898 1.6306C102.835 1.6306 105.89 6.47958 105.89 12.6428C105.89 18.5979 102.514 23.3224 97.1898 23.3224C91.6469 23.3224 88.6306 18.4735 88.6306 12.4347C88.6306 6.35509 91.6857 1.6306 97.1898 1.6306ZM97.2224 5.61835C94.4184 5.61835 94.2428 9.43672 94.2428 11.8184C94.2428 14.2041 94.2061 19.2979 97.1898 19.2979C100.139 19.2979 100.278 15.1898 100.278 12.6857C100.278 11.0367 100.208 9.06938 99.7102 7.50611C99.2837 6.14693 98.4326 5.61835 97.2224 5.61835ZM26.8816 22.9143H23.0775C22.7143 22.8877 22.4245 22.6163 22.3979 22.2673V2.74489C22.3979 2.35305 22.7245 2.04284 23.1306 2.04284H26.6775C27.0469 2.06325 27.3408 2.34284 27.3673 2.69591V5.24897H27.4367C28.3633 2.78162 30.102 1.6306 32.4449 1.6306C34.8265 1.6306 36.3143 2.78162 37.3837 5.24897C38.3041 2.78162 40.3959 1.6306 42.6388 1.6306C44.2326 1.6306 45.9775 2.28978 47.0408 3.76529C48.2449 5.40815 48 7.79591 48 9.88774V22.2082C48 22.6 47.6735 22.9143 47.2653 22.9143H43.4673C43.0877 22.8877 42.7816 22.5837 42.7816 22.2082V11.8612C42.7816 11.0367 42.8571 8.98366 42.6755 8.20203C42.3918 6.88978 41.5408 6.52244 40.4388 6.52244C39.5184 6.52244 38.5551 7.13672 38.1653 8.1204C37.7755 9.10611 37.8122 10.753 37.8122 11.8612V22.2082C37.8122 22.6 37.4857 22.9143 37.0796 22.9143H33.2816C32.8959 22.8877 32.5959 22.5837 32.5959 22.2082V11.8612C32.5959 9.68366 32.953 6.47958 30.251 6.47958C27.5184 6.47958 27.6245 9.60407 27.6245 11.8612V22.2082C27.6245 22.6 27.2979 22.9143 26.8918 22.9143M72.4939 5.48978V2.69591C72.4939 2.27346 72.8143 1.98978 73.2 1.98978H85.7041C86.1041 1.98978 86.4265 2.27958 86.4265 2.69591V5.08774C86.4265 5.48978 86.0837 6.01427 85.4837 6.84284L79.0041 16.0939C81.4122 16.0347 83.953 16.3939 86.1367 17.6245C86.6286 17.902 86.7633 18.3082 86.8 18.7102V21.6898C86.8 22.0959 86.351 22.5735 85.8796 22.3265C82.0326 20.3102 76.9224 20.0898 72.6694 22.349C72.2367 22.5837 71.7816 22.1122 71.7816 21.7061V18.8755C71.7816 18.4204 71.7816 17.6449 72.2428 16.9551L79.749 6.18978H73.2163C72.8143 6.18978 72.4939 5.90611 72.4939 5.48978ZM80.6694 27.0143C79.7592 25.8469 74.6326 26.4633 72.3326 26.7347C71.6326 26.8204 71.5245 26.2102 72.1571 25.7714C76.2388 22.9 82.9367 23.7286 83.7184 24.6918C84.5 25.6592 83.5143 32.3755 79.6796 35.5796C79.0898 36.0714 78.5286 35.8102 78.7898 35.1571C79.6531 33.0061 81.5837 28.1857 80.6694 27.0143ZM77.7 30.4102C78.8816 29.5326 77.8714 28.2286 76.6612 28.7408C68.6571 32.1388 59.953 33.7755 52.0388 33.7755C40.3061 33.7755 28.9469 30.5612 19.76 25.2163C18.9575 24.7449 18.3579 25.5694 19.0273 26.1735C27.5388 33.8612 38.7918 38.4857 51.2898 38.4857C60.2041 38.4857 70.5571 35.6755 77.7 30.4102Z" fill="white"/>
</svg>
