<svg width="98" height="40" viewBox="0 0 98 40" fill="none" xmlns="http://www.w3.org/2000/svg">
<path d="M17.7891 5.15699C16.6481 6.50809 14.8224 7.57374 12.9968 7.4215C12.7685 5.59467 13.6624 3.65366 14.7083 2.4548C15.8494 1.06565 17.8462 0.076118 19.4627 0C19.6529 1.90295 18.9112 3.76784 17.7891 5.15699ZM19.4437 7.78306C16.8002 7.63083 14.5372 9.28639 13.282 9.28639C12.0079 9.28639 10.0871 7.85918 7.99518 7.89724C5.27569 7.9353 2.74637 9.47669 1.3581 11.9315C-1.49451 16.8411 0.616421 24.1104 3.37395 28.1066C4.72418 30.0856 6.34066 32.255 8.47061 32.1789C10.4865 32.1028 11.2852 30.8658 13.7194 30.8658C16.1727 30.8658 16.8763 32.1789 19.0063 32.1408C21.2123 32.1028 22.6006 30.1617 23.9508 28.1827C25.4912 25.9372 26.1188 23.7488 26.1568 23.6346C26.1188 23.5966 21.8969 21.9791 21.8589 17.1075C21.8208 13.0352 25.1869 11.0942 25.3391 10.98C23.4373 8.16365 20.4706 7.85918 19.4437 7.78306ZM34.7146 2.26451V31.9315H39.3169V21.7888H45.6877C51.507 21.7888 55.5958 17.7926 55.5958 12.0076C55.5958 6.22264 51.5831 2.26451 45.8398 2.26451H34.7146ZM39.3169 6.14653H44.6227C48.6164 6.14653 50.8985 8.27783 50.8985 12.0266C50.8985 15.7755 48.6164 17.9258 44.6037 17.9258H39.3169V6.14653ZM64.0015 32.1598C66.8921 32.1598 69.5736 30.6946 70.7907 28.373H70.8858V31.9315H75.1457V17.1646C75.1457 12.883 71.7225 10.1237 66.4547 10.1237C61.5672 10.1237 57.9539 12.921 57.8208 16.765H61.9666C62.3089 14.9382 64.0015 13.7393 66.3216 13.7393C69.1362 13.7393 70.7146 15.0523 70.7146 17.4691V19.1056L64.9714 19.4481C59.6275 19.7716 56.7368 21.96 56.7368 25.7659C56.7368 29.6099 59.7226 32.1598 64.0015 32.1598ZM65.2376 28.6394C62.7844 28.6394 61.2249 27.4596 61.2249 25.6518C61.2249 23.7869 62.7273 22.7022 65.5989 22.5309L70.7146 22.2074V23.882C70.7146 26.6603 68.3565 28.6394 65.2376 28.6394ZM80.8319 40C85.32 40 87.4309 38.2873 89.2756 33.0923L97.358 10.4091H92.6797L87.2598 27.9353H87.1647L81.7447 10.4091H76.9333L84.7305 32.0076L84.3121 33.3206C83.6084 35.5471 82.4674 36.4034 80.4325 36.4034C80.0712 36.4034 79.3675 36.3654 79.0823 36.3273V39.8858C79.3485 39.9619 80.4896 40 80.8319 40Z" fill="white"/>
</svg>
