<svg width="1017" height="450" viewBox="0 0 1017 450" fill="none" xmlns="http://www.w3.org/2000/svg">
<rect x="1" y="0.5" width="1015" height="449" rx="9.5" fill="#0E1330" stroke="#282D45"/>
<mask id="mask0_157_50" style="mask-type:alpha" maskUnits="userSpaceOnUse" x="0" y="0" width="1017" height="450">
<rect x="1" y="0.5" width="1015" height="449" rx="9.5" fill="#0E1330" stroke="#282D45"/>
</mask>
<g mask="url(#mask0_157_50)">
<g filter="url(#filter0_f_157_50)">
<circle cx="501.5" cy="397" r="60" fill="#5865F2"/>
</g>
<g filter="url(#filter1_f_157_50)">
<circle cx="76.5" cy="60" r="60" fill="#32CAFD"/>
</g>
<g filter="url(#filter2_f_157_50)">
<circle cx="954.5" cy="60" r="60" fill="#7214FF"/>
</g>
</g>
<mask id="mask1_157_50" style="mask-type:luminance" maskUnits="userSpaceOnUse" x="26" y="12" width="966" height="437">
<path d="M992 12H26V449H992V12Z" fill="white"/>
</mask>
<g mask="url(#mask1_157_50)">
<path d="M992 492.741C886.872 409.575 838.308 379.642 751.255 432.761C652.428 369.425 615.071 390.725 509 456.775C455.983 405.014 435.644 383.525 411.079 415.909C350.591 345.523 317.347 322.489 266.67 383.789C261.177 390.418 253.891 395.329 245.682 397.936C237.472 400.543 228.686 400.736 220.37 398.491C144.071 377.794 70.753 464.466 26 492.741H992Z" fill="#5865F2" fill-opacity="0.2"/>
<path d="M918.946 437.473C917.437 436.153 915.098 435.475 912.305 435.475C909.935 435.511 907.585 435.893 905.324 436.606L903.815 437.096C903.86 436.002 903.732 434.908 903.438 433.854C902.607 430.536 900.419 427.822 897.136 425.975C892.231 423.185 885.325 422.732 878.722 424.73C877.431 425.112 876.167 425.592 874.948 426.163C874.382 424.329 873.597 422.569 872.609 420.923C866.684 410.97 854.383 405.127 845.176 407.916C841.251 409.085 838.308 411.762 836.912 415.381C835.101 420.056 835.893 425.824 839.138 431.252C843.93 439.358 853.138 444.937 861.59 444.975C861.666 445.465 861.741 445.955 861.854 446.408C862.1 447.31 862.439 448.182 862.873 449.009H863.741C863.232 448.138 862.851 447.198 862.609 446.219C862.469 445.675 862.368 445.12 862.307 444.56C862.3 444.467 862.254 444.381 862.183 444.318C862.115 444.255 862.024 444.221 861.93 444.221H861.666C853.44 444.221 844.459 438.755 839.78 430.875C836.686 425.635 835.893 420.093 837.591 415.645C838.912 412.252 841.704 409.764 845.402 408.633C854.27 405.956 866.194 411.649 871.967 421.3C872.986 423.028 873.786 424.877 874.344 426.804C874.39 426.905 874.469 426.985 874.571 427.03C874.669 427.068 874.775 427.068 874.873 427.03C876.186 426.392 877.548 425.863 878.948 425.447C885.363 423.524 892.004 423.939 896.759 426.615C899.853 428.387 901.928 430.951 902.721 434.042C903.03 435.209 903.132 436.421 903.023 437.624C903.026 437.752 903.079 437.874 903.174 437.963C903.226 438.006 903.29 438.033 903.355 438.04C903.423 438.046 903.49 438.033 903.551 438.001L905.551 437.322C911.06 435.663 916.003 435.927 918.456 438.038C919.777 439.132 920.305 440.677 920.041 442.487C919.777 444.297 918.531 446.86 916.607 449.009H917.588C919.362 446.898 920.531 444.674 920.795 442.6C921.06 440.527 920.456 438.717 918.946 437.473Z" fill="#808AFF"/>
<path d="M65.9811 273.482C98.9233 256.894 122.205 269.75 122.205 269.75C138.507 264.698 152.846 268.242 160.279 274.01C164.883 277.629 154.544 276.988 131.337 276.988H66.849C66.3586 276.988 65.8883 276.794 65.5416 276.447C65.1948 276.101 65 275.631 65 275.141C65.003 274.803 65.0953 274.471 65.2676 274.18C65.4398 273.889 65.6859 273.648 65.9811 273.482Z" fill="#5865F2" fill-opacity="0.2"/>
<path d="M333.724 285.496C342.063 281.274 347.95 284.554 347.95 284.554C352.063 283.272 355.723 284.177 357.572 285.61C358.742 286.552 356.138 286.364 350.252 286.364H333.913C333.793 286.364 333.677 286.316 333.592 286.231C333.508 286.146 333.46 286.031 333.46 285.911C333.459 285.824 333.484 285.738 333.531 285.665C333.578 285.591 333.644 285.533 333.724 285.496Z" fill="#5865F2" fill-opacity="0.2"/>
<path d="M915.885 292.908C915.832 289.635 914.644 286.482 912.523 283.987C910.402 281.491 907.482 279.809 904.255 279.226C901.033 278.643 897.705 279.196 894.844 280.791C891.984 282.385 889.762 284.923 888.565 287.97C887.513 287.741 886.437 287.627 885.358 287.63C883.192 287.624 881.053 288.093 879.09 289.005C877.128 289.918 875.389 291.25 874 292.908H915.885Z" fill="#5865F2" fill-opacity="0.2"/>
<path d="M160.413 76.0001C158.15 76.0013 155.92 76.5505 153.916 77.6008C151.912 78.6515 150.192 80.172 148.904 82.0321C143.867 79.7396 138.278 78.9399 132.799 79.7286C127.321 80.5173 122.184 82.8607 118 86.4806H173.96C173.177 83.4846 171.423 80.8317 168.973 78.9362C166.522 77.0403 163.513 76.008 160.413 76.0001Z" fill="#5865F2" fill-opacity="0.2"/>
<path d="M865.8 110.904C866.747 110.915 867.686 110.715 868.547 110.32C869.407 109.925 870.169 109.345 870.781 108.62C871.388 107.896 871.83 107.045 872.071 106.13C872.313 105.215 872.35 104.258 872.177 103.327C870.369 93.5836 865.434 84.6933 858.125 77.9978C850.812 71.3023 841.518 67.1656 831.646 66.2121C821.771 65.2583 811.858 67.5399 803.398 72.7119C794.938 77.8839 788.391 85.6655 784.746 94.882C781.373 94.1548 777.931 93.7879 774.483 93.7887C767.853 93.7778 761.291 95.1504 755.223 97.8184C749.155 100.486 743.71 104.391 739.239 109.283C739.118 109.424 739.039 109.596 739.012 109.779C738.982 109.963 739.008 110.151 739.084 110.321C739.159 110.49 739.28 110.636 739.435 110.739C739.59 110.842 739.771 110.899 739.956 110.904H865.8Z" fill="#5865F2" fill-opacity="0.2"/>
<path d="M675.258 448.774H674.503C674.805 440.254 673.22 434.712 669.635 431.884C666.05 429.057 660.051 428.868 651.636 431.47C651.534 431.496 651.425 431.482 651.334 431.432C651.24 431.37 651.172 431.276 651.145 431.168C650.911 429.652 650.289 428.223 649.334 427.02C648.383 425.818 647.134 424.883 645.712 424.307C642.089 422.836 637.599 423.666 633.75 426.493C624.392 433.317 625.411 445.532 625.411 445.645C625.411 445.722 625.392 445.799 625.35 445.866C625.312 445.932 625.252 445.986 625.184 446.022C625.116 446.058 625.041 446.07 624.965 446.056C624.89 446.042 624.818 446.004 624.769 445.946C619.901 441.611 616.505 439.914 613.751 440.404C610.996 440.895 608.506 443.835 605.675 448.774H604.808C607.864 443.42 610.355 440.216 613.6 439.65C616.845 439.085 619.901 440.744 624.618 444.815C624.58 441.799 625.109 431.884 633.297 425.89C637.372 422.912 642.127 422.045 645.976 423.628C647.459 424.206 648.772 425.148 649.795 426.367C650.817 427.586 651.515 429.042 651.825 430.602C660.277 428.077 666.239 428.303 670.088 431.319C673.937 434.335 675.56 439.99 675.258 448.774Z" fill="#808AFF"/>
<path d="M204.028 162.583C202.644 161.682 201.469 160.475 200.584 159.049C199.7 157.622 199.129 156.011 198.912 154.329L198.029 148.459C198.008 148.329 197.943 148.212 197.846 148.128C197.749 148.043 197.626 147.998 197.5 148C197.373 147.998 197.25 148.043 197.153 148.128C197.056 148.212 196.991 148.329 196.971 148.459L196.089 154.329C195.854 156.005 195.275 157.61 194.392 159.034C193.51 160.458 192.343 161.669 190.972 162.583L190.266 163.042C190.182 163.08 190.11 163.144 190.063 163.227C190.015 163.309 189.994 163.405 190.002 163.5C189.994 163.596 190.015 163.692 190.063 163.773C190.11 163.856 190.182 163.921 190.266 163.959L190.972 164.417C192.339 165.36 193.5 166.589 194.381 168.027C195.262 169.464 195.843 171.078 196.089 172.763L196.971 178.541C196.991 178.671 197.056 178.788 197.153 178.873C197.25 178.957 197.373 179.002 197.5 179C197.626 179.002 197.749 178.957 197.846 178.873C197.943 178.788 198.008 178.671 198.029 178.541L198.912 172.763C199.139 171.073 199.714 169.452 200.598 168.013C201.48 166.573 202.65 165.346 204.028 164.417L204.734 163.959C204.819 163.921 204.889 163.856 204.937 163.773C204.985 163.692 205.006 163.596 204.999 163.5C205.006 163.405 204.985 163.309 204.937 163.227C204.889 163.144 204.819 163.08 204.734 163.042L204.028 162.583Z" fill="#91FFAD"/>
<path d="M783.476 190.021C782.748 189.577 782.129 188.991 781.659 188.303C781.189 187.615 780.881 186.84 780.755 186.031L780.315 183.233C780.299 183.169 780.26 183.112 780.205 183.07C780.15 183.028 780.082 183.004 780.013 183C779.941 182.999 779.873 183.022 779.815 183.065C779.76 183.107 779.724 183.167 779.711 183.233L779.271 186.031C779.139 186.842 778.826 187.617 778.353 188.305C777.877 188.993 777.253 189.578 776.522 190.021L776.137 190.254C776.096 190.281 776.063 190.316 776.041 190.356C776.016 190.396 776.003 190.441 776 190.487C776 190.534 776.014 190.579 776.038 190.62C776.06 190.66 776.096 190.695 776.137 190.72L776.522 190.953C777.256 191.402 777.88 191.992 778.353 192.684C778.826 193.376 779.139 194.155 779.271 194.969L779.711 197.767C779.724 197.833 779.76 197.893 779.815 197.936C779.873 197.978 779.941 198.001 780.013 198C780.082 197.997 780.15 197.972 780.205 197.93C780.26 197.888 780.299 197.831 780.315 197.767L780.755 194.969C780.881 194.156 781.189 193.378 781.659 192.686C782.127 191.994 782.748 191.403 783.476 190.953L783.888 190.72C783.927 190.694 783.957 190.658 783.976 190.617C783.996 190.577 784.004 190.532 783.998 190.487C784.001 190.443 783.993 190.399 783.974 190.358C783.954 190.318 783.924 190.282 783.888 190.254L783.476 190.021Z" fill="#3F99F2"/>
<path d="M850.006 367.606C849.194 367.081 848.508 366.388 847.987 365.576C847.466 364.763 847.127 363.849 846.987 362.894L846.459 359.614C846.459 359.534 846.428 359.457 846.372 359.401C846.315 359.344 846.236 359.313 846.157 359.313C846.074 359.312 845.991 359.343 845.93 359.398C845.866 359.454 845.825 359.531 845.817 359.614L845.327 362.894C845.179 363.851 844.832 364.767 844.308 365.579C843.78 366.391 843.085 367.082 842.27 367.606L841.855 367.87C841.814 367.902 841.776 367.941 841.753 367.986C841.727 368.032 841.708 368.082 841.704 368.134C841.704 368.188 841.715 368.24 841.746 368.287C841.772 368.333 841.81 368.371 841.855 368.398L842.27 368.662C843.081 369.189 843.772 369.882 844.3 370.694C844.825 371.505 845.176 372.419 845.327 373.374L845.817 376.654C845.825 376.738 845.866 376.815 845.93 376.87C845.991 376.926 846.074 376.957 846.157 376.956C846.236 376.956 846.315 376.924 846.372 376.868C846.428 376.811 846.459 376.734 846.459 376.654L846.987 373.374C847.13 372.421 847.474 371.509 847.994 370.697C848.515 369.885 849.198 369.192 850.006 368.662L850.421 368.398C850.47 368.375 850.511 368.337 850.538 368.29C850.564 368.243 850.575 368.189 850.572 368.134C850.572 368.081 850.557 368.028 850.53 367.982C850.504 367.936 850.466 367.897 850.421 367.87L850.006 367.606Z" fill="#404EED"/>
<path d="M365.949 368.964C365.642 368.769 365.382 368.509 365.186 368.203C364.991 367.897 364.864 367.552 364.817 367.192L364.628 365.985C364.628 365.956 364.616 365.926 364.595 365.905C364.574 365.884 364.545 365.872 364.515 365.872C364.485 365.872 364.456 365.884 364.435 365.905C364.413 365.926 364.402 365.956 364.402 365.985L364.213 367.192C364.165 367.552 364.039 367.897 363.843 368.203C363.648 368.509 363.387 368.769 363.081 368.964L362.892 369.077C362.855 369.077 362.855 369.152 362.855 369.19C362.853 369.21 362.855 369.231 362.862 369.25C362.868 369.27 362.878 369.288 362.892 369.303L363.081 369.378C363.379 369.582 363.634 369.844 363.828 370.148C364.023 370.453 364.154 370.794 364.213 371.15L364.402 372.394C364.402 372.424 364.413 372.453 364.435 372.474C364.456 372.495 364.485 372.507 364.515 372.507C364.545 372.507 364.574 372.495 364.595 372.474C364.616 372.453 364.628 372.424 364.628 372.394L364.817 371.15C364.876 370.794 365.007 370.453 365.201 370.148C365.396 369.844 365.65 369.582 365.949 369.378L366.137 369.303C366.151 369.288 366.161 369.27 366.168 369.25C366.174 369.231 366.177 369.21 366.175 369.19C366.175 369.152 366.175 369.077 366.137 369.077L365.949 368.964Z" fill="#FF78B9"/>
<path d="M381.873 417.332C381.716 417.239 381.582 417.113 381.477 416.964C381.373 416.814 381.302 416.644 381.269 416.465L381.194 415.824H381.08L380.967 416.465C380.941 416.642 380.876 416.811 380.779 416.96C380.681 417.11 380.552 417.237 380.401 417.332L380.326 417.408C380.316 417.408 380.306 417.412 380.299 417.419C380.292 417.426 380.288 417.435 380.288 417.445C380.288 417.455 380.292 417.465 380.299 417.472C380.306 417.479 380.316 417.483 380.326 417.483L380.401 417.558C380.552 417.654 380.681 417.781 380.779 417.93C380.876 418.08 380.941 418.249 380.967 418.426L381.08 419.066H381.194L381.269 418.426C381.302 418.246 381.373 418.076 381.477 417.927C381.582 417.777 381.716 417.652 381.873 417.558L381.948 417.483L381.873 417.332Z" fill="#FFC619"/>
<path d="M541.376 413.788C541.036 413.56 540.75 413.264 540.531 412.921C540.308 412.578 540.161 412.193 540.093 411.79L539.904 410.433C539.904 410.358 539.829 410.32 539.753 410.32C539.738 410.32 539.723 410.323 539.708 410.329C539.697 410.334 539.685 410.343 539.674 410.353C539.663 410.364 539.655 410.376 539.648 410.39C539.644 410.404 539.64 410.418 539.64 410.433L539.414 411.79C539.361 412.193 539.225 412.58 539.01 412.925C538.795 413.27 538.508 413.564 538.168 413.788L537.98 413.902C537.942 413.902 537.904 413.939 537.904 414.015C537.904 414.052 537.942 414.09 537.98 414.128L538.168 414.241C538.501 414.463 538.784 414.752 538.999 415.089C539.214 415.427 539.353 415.806 539.414 416.201L539.64 417.558C539.64 417.589 539.651 417.617 539.674 417.638C539.693 417.66 539.723 417.672 539.753 417.672C539.829 417.672 539.904 417.634 539.904 417.558L540.093 416.201C540.165 415.805 540.316 415.428 540.534 415.092C540.757 414.755 541.04 414.466 541.376 414.241L541.565 414.128C541.58 414.113 541.587 414.095 541.595 414.075C541.602 414.056 541.602 414.035 541.602 414.015C541.602 413.939 541.602 413.902 541.565 413.902L541.376 413.788Z" fill="#91FFAD"/>
<path d="M150.561 404.891C150.198 404.646 149.89 404.329 149.657 403.959C149.423 403.589 149.268 403.175 149.203 402.742L148.976 401.234C148.939 401.159 148.901 401.084 148.825 401.084C148.785 401.084 148.747 401.099 148.719 401.128C148.69 401.156 148.675 401.194 148.675 401.234L148.448 402.742C148.376 403.177 148.215 403.593 147.974 403.962C147.734 404.332 147.42 404.649 147.052 404.891L146.826 405.004C146.788 405.042 146.788 405.08 146.788 405.155C146.788 405.193 146.788 405.268 146.826 405.268L147.052 405.419C147.423 405.658 147.74 405.974 147.98 406.344C148.221 406.715 148.38 407.132 148.448 407.568L148.675 409.076C148.675 409.151 148.75 409.189 148.825 409.189C148.901 409.189 148.939 409.151 148.976 409.076L149.203 407.568C149.264 407.134 149.416 406.718 149.651 406.348C149.885 405.977 150.195 405.661 150.561 405.419L150.788 405.268C150.825 405.268 150.863 405.193 150.863 405.155C150.863 405.126 150.856 405.097 150.843 405.071C150.83 405.045 150.811 405.022 150.788 405.004L150.561 404.891Z" fill="#FF78B9"/>
<path d="M218.773 306.808C218.41 306.563 218.103 306.245 217.869 305.875C217.635 305.506 217.48 305.091 217.415 304.659L217.189 303.151C217.151 303.076 217.113 303 217.038 303C216.998 303 216.959 303.016 216.931 303.044C216.903 303.073 216.887 303.111 216.887 303.151L216.66 304.659C216.588 305.094 216.427 305.509 216.186 305.879C215.946 306.249 215.632 306.565 215.264 306.808L215.038 306.921C215 306.959 215 306.996 215 307.072C215 307.109 215 307.185 215.038 307.185L215.264 307.336C215.635 307.575 215.952 307.891 216.192 308.261C216.433 308.631 216.592 309.048 216.66 309.484L216.887 310.992C216.887 311.068 216.962 311.106 217.038 311.106C217.113 311.106 217.151 311.068 217.189 310.992L217.415 309.484C217.476 309.051 217.629 308.635 217.863 308.264C218.097 307.894 218.407 307.577 218.773 307.336L219 307.185C219.038 307.185 219.075 307.109 219.075 307.072C219.075 307.043 219.069 307.014 219.055 306.988C219.042 306.961 219.023 306.939 219 306.921L218.773 306.808Z" fill="#B756FE"/>
</g>
<defs>
<filter id="filter0_f_157_50" x="241.5" y="137" width="520" height="520" filterUnits="userSpaceOnUse" color-interpolation-filters="sRGB">
<feFlood flood-opacity="0" result="BackgroundImageFix"/>
<feBlend mode="normal" in="SourceGraphic" in2="BackgroundImageFix" result="shape"/>
<feGaussianBlur stdDeviation="100" result="effect1_foregroundBlur_157_50"/>
</filter>
<filter id="filter1_f_157_50" x="-233.5" y="-250" width="620" height="620" filterUnits="userSpaceOnUse" color-interpolation-filters="sRGB">
<feFlood flood-opacity="0" result="BackgroundImageFix"/>
<feBlend mode="normal" in="SourceGraphic" in2="BackgroundImageFix" result="shape"/>
<feGaussianBlur stdDeviation="125" result="effect1_foregroundBlur_157_50"/>
</filter>
<filter id="filter2_f_157_50" x="644.5" y="-250" width="620" height="620" filterUnits="userSpaceOnUse" color-interpolation-filters="sRGB">
<feFlood flood-opacity="0" result="BackgroundImageFix"/>
<feBlend mode="normal" in="SourceGraphic" in2="BackgroundImageFix" result="shape"/>
<feGaussianBlur stdDeviation="125" result="effect1_foregroundBlur_157_50"/>
</filter>
</defs>
</svg>
