<svg width="342" height="230" viewBox="0 0 342 230" fill="none" xmlns="http://www.w3.org/2000/svg">
<rect width="342" height="230" rx="4" fill="#060B27"/>
<rect x="163.845" y="48.4864" width="164.879" height="131.742" rx="7.67819" transform="rotate(13.3229 163.845 48.4864)" fill="#0E1330" stroke="#282D45" stroke-width="0.80823"/>
<path d="M171.441 73.6329C173.776 74.1857 175.772 72.9258 176.332 70.5585C176.901 68.1581 175.649 66.129 173.27 65.5658L170.452 64.8983L168.546 72.9471L171.441 73.6329ZM172.831 66.8338C174.493 67.2275 175.25 68.4998 174.846 70.2065C174.45 71.8801 173.224 72.683 171.617 72.3024L170.263 71.9816L171.553 66.5313L172.831 66.8338ZM178.083 75.3568C178.93 75.5575 179.759 75.3469 180.124 74.8401L180.032 75.6673L181.21 75.9463L181.993 72.6431C182.35 71.1347 181.635 70.1281 180.17 69.7813C178.695 69.4319 177.543 69.9732 177.264 71.1513L178.41 71.4225C178.545 70.8499 179.064 70.6239 179.857 70.8117C180.539 70.9733 180.909 71.3749 180.735 72.1126L180.706 72.2337L179.048 71.969C177.736 71.763 176.861 72.2185 176.623 73.2205C176.381 74.2445 176.926 75.083 178.083 75.3568ZM178.763 74.4481C178.157 74.3047 177.884 73.9842 178.002 73.4887C178.106 73.0483 178.49 72.8487 179.345 72.9697L180.5 73.1502L180.433 73.4365C180.234 74.2733 179.589 74.6436 178.763 74.4481ZM182.503 74.5081C182.25 75.5762 182.937 76.5063 184.291 76.827C185.634 77.1451 186.732 76.6841 186.993 75.583C187.191 74.7462 186.827 74.2183 185.963 73.7926L185.038 73.3294C184.601 73.1097 184.406 72.8542 184.479 72.5459C184.576 72.1385 184.941 71.9693 185.47 72.0944C185.987 72.217 186.225 72.5873 186.127 73.0523L187.404 73.3548C187.643 72.2952 186.984 71.3949 185.762 71.1055C184.507 70.8082 183.453 71.233 183.2 72.3011C182.994 73.1709 183.358 73.7455 184.286 74.1978L185.211 74.6611C185.669 74.8859 185.765 75.118 185.7 75.3933C185.606 75.7896 185.205 75.9621 184.577 75.8134C183.961 75.6674 183.679 75.2867 183.78 74.8106L182.503 74.5081ZM188.97 77.7839L189.674 74.811C189.867 73.9962 190.503 73.519 191.351 73.7198C192.034 73.8814 192.381 74.4288 192.165 75.3427L191.448 78.3706L192.791 78.6887L193.583 75.3414C193.917 73.9321 193.413 72.9174 192.07 72.5993C191.288 72.4141 190.569 72.6042 190.102 73.0519L190.921 69.5946L189.567 69.2738L187.627 77.4658L188.97 77.7839ZM195.355 79.2959L195.644 78.4689C195.814 79.1722 196.422 79.6998 197.237 79.8927C198.8 80.263 200.098 79.3494 200.494 77.6757C200.901 75.9581 200.241 74.5226 198.689 74.155C197.863 73.9594 197.05 74.1507 196.554 74.6728L197.394 71.1274L196.051 70.8093L194.111 79.0013L195.355 79.2959ZM196.114 76.5803C196.346 75.6004 197.114 75.0611 198.038 75.2801C198.985 75.5044 199.383 76.331 199.153 77.3C198.924 78.2689 198.201 78.8186 197.254 78.5943C196.329 78.3753 195.882 77.5603 196.114 76.5803ZM201.255 77.8094C200.854 79.505 201.799 80.9616 203.484 81.3605C205.169 81.7595 206.667 80.8817 207.069 79.1861C207.47 77.4905 206.525 76.0339 204.84 75.6349C203.155 75.236 201.657 76.1137 201.255 77.8094ZM202.598 78.1275C202.833 77.1365 203.631 76.6161 204.556 76.8351C205.481 77.0541 205.96 77.877 205.726 78.868C205.491 79.859 204.693 80.3794 203.768 80.1603C202.843 79.9413 202.364 79.1184 202.598 78.1275ZM209.072 82.6953C209.919 82.8961 210.748 82.6854 211.113 82.1786L211.021 83.0059L212.2 83.2849L212.982 79.9817C213.339 78.4732 212.624 77.4666 211.159 77.1198C209.684 76.7704 208.533 77.3117 208.254 78.4899L209.399 78.7611C209.534 78.1885 210.053 77.9625 210.846 78.1502C211.528 78.3119 211.898 78.7135 211.724 79.4512L211.695 79.5723L210.037 79.3075C208.725 79.1015 207.85 79.5571 207.612 80.559C207.37 81.583 207.915 82.4216 209.072 82.6953ZM209.752 81.7867C209.146 81.6432 208.873 81.3228 208.991 80.8273C209.095 80.3869 209.48 80.1872 210.335 80.3083L211.49 80.4888L211.422 80.7751C211.224 81.6119 210.578 81.9822 209.752 81.7867ZM218.226 78.9444C218.019 78.8372 217.837 78.7709 217.649 78.7265C216.923 78.5544 216.319 78.7952 215.96 79.28L216.071 78.469L214.805 78.1691L213.519 83.5974L214.862 83.9155L215.488 81.2729C215.739 80.2159 216.467 79.8418 217.436 80.0713L217.931 80.1886L218.226 78.9444ZM219.86 85.2502C220.686 85.4458 221.477 85.2493 221.956 84.6999L221.843 85.5686L223.076 85.8606L225.016 77.6687L223.684 77.3531L222.868 80.7995C222.654 80.1791 222.058 79.7008 221.298 79.5209C219.658 79.1324 218.38 80.1089 217.978 81.8045C217.58 83.4891 218.286 84.8773 219.86 85.2502ZM220.45 84.0874C219.514 83.8658 219.103 83.0475 219.332 82.0786C219.562 81.1096 220.298 80.5515 221.234 80.7732C222.17 80.9948 222.614 81.8209 222.382 82.8008C222.15 83.7808 221.385 84.309 220.45 84.0874ZM229.051 87.2756L229.763 84.2697L231.492 84.6791L232.145 88.0083L233.687 88.3733L232.939 84.7077C233.977 84.5466 234.666 83.8958 234.921 82.8167C235.297 81.2312 234.448 80.0533 232.62 79.6205L229.548 78.893L227.642 86.9419L229.051 87.2756ZM230.66 80.482L232.323 80.8757C233.215 81.0869 233.636 81.6635 233.446 82.4673C233.253 83.2821 232.612 83.6304 231.72 83.4192L230.058 83.0255L230.66 80.482ZM236.833 89.2694C238.253 89.6058 239.413 89.1248 239.926 87.9904L238.682 87.6957C238.405 88.1767 237.853 88.3483 237.115 88.1736C236.223 87.9624 235.832 87.358 235.959 86.3766L240.058 87.3355L240.154 86.9281C240.556 85.2325 239.779 83.8973 238.15 83.5114C236.553 83.1333 235.162 84.0481 234.758 85.7548C234.359 87.4394 235.214 88.8861 236.833 89.2694ZM237.9 84.6151C238.704 84.8054 239.104 85.4235 238.926 86.1722L236.196 85.5255C236.521 84.742 237.107 84.4274 237.9 84.6151ZM239.965 92.5229L241.308 92.841L242.077 89.5929C242.288 90.2242 242.917 90.7104 243.732 90.9034C245.351 91.2867 246.568 90.2725 246.969 88.5768C247.373 86.8702 246.624 85.5182 245.093 85.1558C244.268 84.9602 243.466 85.1541 242.987 85.7035L243.094 84.8568L241.85 84.5622L239.965 92.5229ZM242.56 87.6025C242.792 86.6226 243.56 86.0833 244.485 86.3024C245.432 86.5266 245.829 87.3532 245.599 88.3222C245.37 89.2911 244.647 89.8408 243.7 89.6166C242.775 89.3975 242.328 88.5825 242.56 87.6025ZM247.707 88.8096C247.305 90.5052 248.251 91.9618 249.935 92.3607C251.62 92.7597 253.119 91.882 253.52 90.1863C253.922 88.4907 252.976 87.0341 251.291 86.6352C249.607 86.2362 248.108 87.1139 247.707 88.8096ZM249.05 89.1277C249.285 88.1367 250.082 87.6163 251.007 87.8353C251.932 88.0543 252.412 88.8772 252.177 89.8682C251.942 90.8592 251.145 91.3796 250.22 91.1606C249.295 90.9415 248.815 90.1186 249.05 89.1277ZM258.645 88.5161C258.438 88.4089 258.256 88.3426 258.069 88.2982C257.342 88.1261 256.738 88.3669 256.379 88.8517L256.49 88.0407L255.224 87.7408L253.938 93.1691L255.282 93.4872L255.907 90.8447C256.158 89.7876 256.886 89.4135 257.855 89.643L258.35 89.7603L258.645 88.5161ZM260.326 94.6817L261.348 90.3655L262.405 90.6158L262.671 89.4927L261.614 89.2424L262.015 87.5468L260.672 87.2287L260.271 88.9243L259.224 88.6766L258.959 89.7997L260.005 90.0474L258.982 94.3636L260.326 94.6817Z" fill="#8F9BB7"/>
<line x1="185.039" y1="97.526" x2="302.225" y2="125.277" stroke="#282D45" stroke-width="0.80823"/>
<line x1="179.452" y1="121.12" x2="296.637" y2="148.871" stroke="#282D45" stroke-width="0.80823"/>
<line x1="173.865" y1="144.714" x2="291.05" y2="172.465" stroke="#282D45" stroke-width="0.80823"/>
<line x1="168.277" y1="168.309" x2="285.463" y2="196.059" stroke="#282D45" stroke-width="0.80823"/>
<path d="M165.274 90.9501L163.897 96.7638L165.058 97.0387L166.692 90.1397L164.021 89.5072L163.764 90.5925L165.274 90.9501ZM167.046 93.8814C166.541 96.0144 167.289 97.6965 169.12 98.1301C170.951 98.5637 172.383 97.3978 172.888 95.2649C173.395 93.1225 172.579 91.3942 170.814 90.9763C169.049 90.5583 167.553 91.7391 167.046 93.8814ZM168.235 94.163C168.622 92.5303 169.476 91.7857 170.561 92.0427C171.656 92.302 172.085 93.3505 171.699 94.9833C171.321 96.5783 170.467 97.3229 169.372 97.0636C168.287 96.8066 167.857 95.758 168.235 94.163ZM173.7 95.4573C173.195 97.5902 173.943 99.2723 175.774 99.7059C177.605 100.139 179.037 98.9736 179.542 96.8407C180.05 94.6983 179.233 92.97 177.468 92.5521C175.703 92.1341 174.208 93.3149 173.7 95.4573ZM174.889 95.7389C175.276 94.1061 176.13 93.3615 177.216 93.6185C178.31 93.8778 178.74 94.9264 178.353 96.5591C177.975 98.1541 177.121 98.8987 176.027 98.6394C174.941 98.3824 174.512 97.3338 174.889 95.7389Z" fill="#8F9BB7"/>
<path d="M163.738 116.5C162.716 117.365 162.299 117.904 162.103 118.734C161.768 120.15 162.622 121.508 164.113 121.862C165.585 122.21 166.924 121.441 167.272 119.969C167.603 118.572 166.877 117.343 165.452 117.006C165.283 116.966 165.096 116.951 164.915 116.958L167.088 115.151L165.71 114.824L163.738 116.5ZM163.337 119.037C163.534 118.206 164.217 117.76 165.038 117.954C165.831 118.142 166.252 118.85 166.055 119.68C165.856 120.52 165.151 120.971 164.368 120.786C163.556 120.593 163.138 119.876 163.337 119.037ZM168.269 119.088C167.764 121.221 168.512 122.903 170.343 123.337C172.174 123.771 173.606 122.605 174.111 120.472C174.619 118.329 173.802 116.601 172.037 116.183C170.272 115.765 168.777 116.946 168.269 119.088ZM169.459 119.37C169.845 117.737 170.699 116.993 171.785 117.25C172.879 117.509 173.309 118.557 172.922 120.19C172.545 121.785 171.69 122.53 170.596 122.27C169.51 122.013 169.081 120.965 169.459 119.37Z" fill="#8F9BB7"/>
<path d="M158.678 142.585C159.64 142.813 159.973 143.43 159.807 144.128C159.626 144.893 159.01 145.265 158.255 145.086C157.519 144.912 157.135 144.343 157.323 143.55L156.134 143.268C155.781 144.759 156.631 145.838 157.981 146.158C159.378 146.488 160.694 145.853 161.03 144.438C161.318 143.22 160.68 142.252 159.672 141.794L161.719 140.644L161.947 139.681L157.568 138.644L157.315 139.711L160.184 140.39L158.023 141.603L157.838 142.386L158.678 142.585ZM162.017 143.356C161.512 145.489 162.26 147.171 164.09 147.604C165.921 148.038 167.354 146.872 167.859 144.739C168.366 142.597 167.549 140.868 165.785 140.45C164.02 140.033 162.524 141.213 162.017 143.356ZM163.206 143.637C163.593 142.005 164.447 141.26 165.532 141.517C166.627 141.776 167.056 142.825 166.67 144.458C166.292 146.052 165.438 146.797 164.343 146.538C163.258 146.281 162.828 145.232 163.206 143.637Z" fill="#8F9BB7"/>
<path d="M156.375 167.768C155.87 169.901 156.618 171.583 158.449 172.016C160.28 172.45 161.712 171.284 162.217 169.151C162.724 167.009 161.908 165.281 160.143 164.863C158.378 164.445 156.882 165.625 156.375 167.768ZM157.564 168.049C157.951 166.417 158.805 165.672 159.89 165.929C160.985 166.188 161.414 167.237 161.028 168.87C160.65 170.465 159.796 171.209 158.701 170.95C157.616 170.693 157.186 169.644 157.564 168.049Z" fill="#8F9BB7"/>
<path d="M171.599 159.544C175.497 162.959 184.337 167.815 190.795 166.166C200.077 163.796 206.909 156.583 213.643 143.337C218.92 132.959 223.081 129.791 233.284 130.546C249.089 131.716 254.447 137.634 257.541 142.104C260.635 146.575 261.298 152.546 270.736 154.781C280.173 157.016 288.7 133.287 295.871 134.57" stroke="#32CAFD" stroke-width="1.61646"/>
<path d="M174.02 149.32C183.099 148.978 202.354 151.378 206.742 163.713C212.227 179.132 220.749 179.706 224.562 177.9C229.24 175.686 234.868 155.423 246.686 159.883C258.504 164.343 275.558 148.448 277.193 138.037C278.827 127.627 291.98 121.19 300.466 125.691" stroke="#7214FF" stroke-width="1.61646"/>
<circle cx="103" cy="41" r="22" fill="#FFC933"/>
<rect width="24" height="24" transform="translate(91 29)" fill="#FFC933"/>
<path d="M108.918 43.32C108.659 43.571 108.54 43.934 108.599 44.29L109.488 49.21C109.563 49.627 109.387 50.049 109.038 50.29C108.696 50.54 108.241 50.57 107.868 50.37L103.439 48.06C103.285 47.978 103.114 47.934 102.939 47.929H102.668C102.574 47.943 102.482 47.973 102.398 48.019L97.9684 50.34C97.7494 50.45 97.5014 50.489 97.2584 50.45C96.6664 50.338 96.2714 49.774 96.3684 49.179L97.2584 44.259C97.3174 43.9 97.1984 43.535 96.9394 43.28L93.3284 39.78C93.0264 39.487 92.9214 39.047 93.0594 38.65C93.1934 38.254 93.5354 37.965 93.9484 37.9L98.9184 37.179C99.2964 37.14 99.6284 36.91 99.7984 36.57L101.988 32.08C102.04 31.98 102.107 31.888 102.188 31.81L102.278 31.74C102.325 31.688 102.379 31.645 102.439 31.61L102.548 31.57L102.718 31.5H103.139C103.515 31.539 103.846 31.764 104.019 32.1L106.238 36.57C106.398 36.897 106.709 37.124 107.068 37.179L112.038 37.9C112.458 37.96 112.809 38.25 112.948 38.65C113.079 39.051 112.966 39.491 112.658 39.78L108.918 43.32Z" fill="black"/>
<rect x="25.5346" y="92.7836" width="87" height="111" rx="5.5" transform="rotate(-4.11899 25.5346 92.7836)" fill="#0E1330" stroke="#282D45"/>
<circle cx="71.3284" cy="123.073" r="19" transform="rotate(-4.11899 71.3284 123.073)" fill="#7214FF"/>
<g clip-path="url(#clip0_149_29)">
<path d="M73.1738 114.064C75.9525 113.506 77.8377 114.767 78.4039 117.544L79.9365 125.175C80.4943 127.953 79.2342 129.846 76.4555 130.404L68.8253 131.937C66.0467 132.495 64.154 131.234 63.5961 128.457L62.0635 120.826C61.5055 118.047 62.765 116.154 65.5437 115.596L73.1738 114.064ZM70.4453 118.122C70.1879 118.03 69.9101 118.085 69.7182 118.268C69.5245 118.451 69.4538 118.729 69.5284 118.978L71.2004 127.303C71.3126 127.646 71.6584 127.849 72.0016 127.78C72.3537 127.709 72.5945 127.389 72.5566 127.031L70.8846 118.706C70.8664 118.446 70.6937 118.216 70.4453 118.122ZM67.168 121.568C66.9196 121.474 66.641 121.53 66.4491 121.713C66.2556 121.896 66.1845 122.173 66.2601 122.422L67.3939 128.068C67.4963 128.413 67.8429 128.615 68.1942 128.545C68.5464 128.474 68.7872 128.154 68.7493 127.796L67.6155 122.15C67.5898 121.891 67.4157 121.663 67.168 121.568ZM75.3285 123.015C75.0808 122.92 74.803 122.976 74.6021 123.161C74.4086 123.344 74.3359 123.613 74.4213 123.869L74.9595 126.548C75.0627 126.893 75.4085 127.096 75.7607 127.025C76.1038 126.956 76.3446 126.636 76.3157 126.276L75.7775 123.596C75.7486 123.329 75.5778 123.109 75.3285 123.015Z" fill="#060B27"/>
</g>
<path d="M56.875 156.675L57.9369 171.42L60.8813 171.208L59.6211 153.71L52.8466 154.197L53.0449 156.95L56.875 156.675ZM68.4066 161.956C70.8483 161.78 72.0904 162.99 72.218 164.761C72.3576 166.7 71.1785 168.036 69.2635 168.174C67.3963 168.309 66.0688 167.249 65.924 165.239L62.9078 165.456C63.1802 169.238 65.989 171.153 69.4121 170.907C72.955 170.652 75.5919 168.176 75.3334 164.585C75.111 161.497 72.887 159.684 70.168 159.351L74.1463 155.118L73.9704 152.676L62.8632 153.476L63.058 156.181L70.3352 155.657L66.133 160.122L66.2761 162.109L68.4066 161.956ZM90.8916 165.702L90.6985 163.021L88.5681 163.175L87.7406 151.685L83.8866 151.962L76.7906 164.023L76.9836 166.704L85.8646 166.065L86.1042 169.392L89.0007 169.183L88.7611 165.856L90.8916 165.702ZM80.0461 163.789L85.082 155.197L85.6716 163.383L80.0461 163.789Z" fill="#8F9BB7"/>
<path d="M60.0801 185.365C61.7677 185.244 62.7844 183.991 62.668 182.375C62.5482 180.712 61.3789 179.677 59.6793 179.799L56.316 180.042L56.9392 188.695L58.1121 188.611L57.8897 185.523L60.0801 185.365ZM59.5516 180.867C60.6528 180.788 61.3559 181.363 61.4343 182.452C61.5111 183.518 60.9139 184.246 59.7529 184.33L57.8139 184.47L57.5648 181.01L59.5516 180.867ZM67.1547 182.028C66.9238 181.997 66.7545 181.985 66.551 182C65.7491 182.057 65.192 182.507 64.9965 183.134L64.8609 182.254L63.8077 182.329L64.2283 188.17L65.3534 188.089L65.1301 184.989C65.0491 183.864 65.6609 183.171 66.7261 183.094L67.2288 183.058L67.1547 182.028ZM67.8303 184.963C67.9604 186.771 69.3444 187.946 71.1039 187.82C72.8514 187.694 74.0526 186.332 73.9225 184.525C73.7923 182.717 72.4083 181.542 70.6608 181.668C68.9014 181.794 67.7001 183.156 67.8303 184.963ZM68.9673 184.881C68.8794 183.661 69.5962 182.755 70.7332 182.673C71.8583 182.592 72.7095 183.385 72.7974 184.606C72.8853 185.826 72.1566 186.733 71.0315 186.814C69.8944 186.896 69.0552 186.102 68.9673 184.881ZM75.4202 180.086C75.8151 180.057 76.1381 179.697 76.1088 179.29C76.0786 178.871 75.7083 178.573 75.3133 178.601C74.8944 178.632 74.5945 178.978 74.6246 179.397C74.654 179.804 75.0013 180.116 75.4202 180.086ZM74.0863 190.131C74.4283 190.203 74.6207 190.201 74.9199 190.18C76.057 190.098 76.6507 189.321 76.5662 188.148L76.0827 181.433L74.9576 181.515L75.4334 188.121C75.4808 188.78 75.2878 189.106 74.7492 189.145C74.5696 189.158 74.4362 189.144 74.2045 189.1L74.0863 190.131ZM80.6734 187.13C82.1216 187.026 83.0522 186.249 83.249 184.972L82.1957 185.048C82.0525 185.732 81.5038 186.132 80.6301 186.195C79.517 186.275 78.8215 185.64 78.649 184.413L83.1724 184.075L83.1422 183.656C83.0172 181.921 81.8453 180.85 80.1816 180.97C78.482 181.092 77.4124 182.445 77.5443 184.276C77.6753 186.095 78.9498 187.255 80.6734 187.13ZM80.2497 181.915C81.2431 181.844 81.924 182.445 81.9938 183.414L78.6186 183.657C78.6881 182.617 79.2682 181.986 80.2497 181.915ZM84.0314 183.809C84.1641 185.652 85.3891 186.791 87.1126 186.667C88.525 186.565 89.5529 185.637 89.689 184.352L88.5639 184.433C88.4104 185.142 87.8421 185.604 87.0402 185.661C85.975 185.738 85.2341 184.973 85.1436 183.717C85.0523 182.448 85.7238 181.581 86.789 181.505C87.543 181.45 88.1699 181.802 88.4149 182.531L89.54 182.45C89.2425 181.16 88.1529 180.396 86.6807 180.502C84.9691 180.625 83.8995 181.977 84.0314 183.809ZM92.67 186.122L92.3166 181.215L93.4656 181.132L93.3975 180.187L92.2485 180.269L92.1166 178.438L90.9916 178.519L91.1234 180.35L89.9744 180.433L90.0425 181.379L91.1915 181.296L91.5449 186.203L92.67 186.122Z" fill="#8F9BB7"/>
<defs>
<clipPath id="clip0_149_29">
<rect width="20" height="20" fill="white" transform="translate(59.2266 115.165) rotate(-11.3557)"/>
</clipPath>
</defs>
</svg>
