<svg width="37" height="37" viewBox="0 0 37 37" fill="none" xmlns="http://www.w3.org/2000/svg">
<path d="M31.1874 16.5301V21.8264C31.1874 24.173 31.1858 25.8331 31.078 27.1301C30.9718 28.4071 30.7706 29.1852 30.4525 29.7952C29.8336 30.9839 28.8622 31.9534 27.6703 32.5708C27.0587 32.8881 26.2787 33.0888 24.9987 33.1948C23.6986 33.3023 22.0345 33.3039 19.6824 33.3039H14.7839C12.4317 33.3039 10.7677 33.3023 9.46778 33.1948C8.18745 33.0888 7.40774 32.8881 6.796 32.5708C5.60432 31.9534 4.63267 30.9839 4.01363 29.7952C3.69586 29.1852 3.49465 28.4071 3.38829 27.1301C3.28037 25.8331 3.27901 24.173 3.27901 21.8264V16.9399C3.27901 14.5933 3.28037 12.9334 3.38829 11.6366C3.49465 10.3593 3.69586 9.5815 4.01363 8.97123C4.63267 7.78243 5.60432 6.81312 6.796 6.19557C7.40774 5.87856 8.18745 5.67784 9.46778 5.57177C10.7677 5.46407 12.4316 5.46276 14.7839 5.46276H20.0931C20.1405 4.3162 20.37 3.21649 20.7532 2.19165H14.711C12.4481 2.19161 10.648 2.19161 9.1964 2.31187C7.70965 2.43502 6.44223 2.69279 5.28446 3.29275C3.49387 4.22064 2.03393 5.6771 1.1038 7.46338C0.502386 8.61832 0.244 9.88269 0.120545 11.3659C7.08486e-07 12.8139 0 14.6097 0 16.8671V21.8992C0 24.1567 7.08486e-07 25.9525 0.120545 27.4008C0.244 28.8838 0.502386 30.1481 1.1038 31.3032C2.03393 33.0893 3.49387 34.5457 5.28446 35.4739C6.44223 36.0737 7.70965 36.3313 9.1964 36.4548C10.648 36.575 12.448 36.575 14.7109 36.575H19.7553C22.0181 36.575 23.8183 36.575 25.27 36.4548C26.7567 36.3313 28.024 36.0737 29.1819 35.4739C30.9722 34.5457 32.4322 33.0893 33.3626 31.3032C33.9639 30.1481 34.2221 28.8838 34.3459 27.4008C34.4664 25.9525 34.4664 24.1567 34.4664 21.8996V15.8716C33.4389 16.254 32.3367 16.4828 31.1874 16.5301Z" fill="#0E0C38"/>
<path d="M22 7.36C22 3.29519 25.3032 0 29.3778 0C33.4524 0 36.7556 3.29519 36.7556 7.36C36.7556 11.4248 33.4524 14.72 29.3778 14.72C25.3032 14.72 22 11.4248 22 7.36Z" fill="#7214FF"/>
</svg>
