<svg width="417" height="211" viewBox="0 0 417 211" fill="none" xmlns="http://www.w3.org/2000/svg">
<path d="M0 10C0 4.47716 4.47715 0 10 0H407C412.523 0 417 4.47715 417 10V211H0V10Z" fill="#0E1330"/>
<mask id="mask0_149_34" style="mask-type:alpha" maskUnits="userSpaceOnUse" x="0" y="0" width="417" height="211">
<path d="M0 10C0 4.47716 4.47715 0 10 0H407C412.523 0 417 4.47715 417 10V211H0V10Z" fill="#0E1330"/>
</mask>
<g mask="url(#mask0_149_34)">
<path d="M30.6364 19.3633V30.9996H29.2727L22.9318 21.8633H22.8182V30.9996H21.4091V19.3633H22.7727L29.1364 28.5224H29.25V19.3633H30.6364ZM36.9332 31.1815C36.0923 31.1815 35.367 30.9958 34.7571 30.6246C34.151 30.2496 33.6832 29.7269 33.3537 29.0565C33.0279 28.3822 32.8651 27.5981 32.8651 26.7042C32.8651 25.8102 33.0279 25.0224 33.3537 24.3405C33.6832 23.6549 34.1416 23.1208 34.7287 22.7383C35.3196 22.3519 36.009 22.1587 36.7969 22.1587C37.2514 22.1587 37.7003 22.2345 38.1435 22.386C38.5866 22.5375 38.9901 22.7837 39.3537 23.1246C39.7173 23.4618 40.0071 23.9087 40.223 24.4655C40.4389 25.0224 40.5469 25.708 40.5469 26.5224V27.0905H33.8196V25.9315H39.1832C39.1832 25.439 39.0848 24.9996 38.8878 24.6133C38.6946 24.2269 38.4181 23.922 38.0582 23.6985C37.7022 23.475 37.2817 23.3633 36.7969 23.3633C36.2628 23.3633 35.8007 23.4958 35.4105 23.761C35.0241 24.0224 34.7268 24.3633 34.5185 24.7837C34.3101 25.2042 34.206 25.6549 34.206 26.136V26.9087C34.206 27.5678 34.3196 28.1265 34.5469 28.5849C34.7779 29.0394 35.098 29.386 35.5071 29.6246C35.9162 29.8595 36.3916 29.9769 36.9332 29.9769C37.2855 29.9769 37.6037 29.9277 37.8878 29.8292C38.1757 29.7269 38.4238 29.5754 38.6321 29.3746C38.8404 29.1701 39.0014 28.9163 39.1151 28.6133L40.4105 28.9769C40.2741 29.4163 40.045 29.8027 39.723 30.136C39.401 30.4655 39.0033 30.7231 38.5298 30.9087C38.0563 31.0905 37.5241 31.1815 36.9332 31.1815ZM44.5639 30.9996L41.9048 22.2724H43.3139L45.2003 28.9542H45.2912L47.1548 22.2724H48.5866L50.4276 28.9315H50.5185L52.4048 22.2724H53.8139L51.1548 30.9996H49.8366L47.9276 24.2951H47.7912L45.8821 30.9996H44.5639ZM60.2685 19.3633H61.9503L65.9048 29.0224H66.0412L69.9957 19.3633H71.6776V30.9996H70.3594V22.1587H70.2457L66.6094 30.9996H65.3366L61.7003 22.1587H61.5866V30.9996H60.2685V19.3633ZM77.9801 31.1815C77.1392 31.1815 76.4138 30.9958 75.804 30.6246C75.1979 30.2496 74.7301 29.7269 74.4006 29.0565C74.0748 28.3822 73.9119 27.5981 73.9119 26.7042C73.9119 25.8102 74.0748 25.0224 74.4006 24.3405C74.7301 23.6549 75.1884 23.1208 75.7756 22.7383C76.3665 22.3519 77.0559 22.1587 77.8438 22.1587C78.2983 22.1587 78.7472 22.2345 79.1903 22.386C79.6335 22.5375 80.0369 22.7837 80.4006 23.1246C80.7642 23.4618 81.054 23.9087 81.2699 24.4655C81.4858 25.0224 81.5938 25.708 81.5938 26.5224V27.0905H74.8665V25.9315H80.2301C80.2301 25.439 80.1316 24.9996 79.9347 24.6133C79.7415 24.2269 79.465 23.922 79.1051 23.6985C78.7491 23.475 78.3286 23.3633 77.8438 23.3633C77.3097 23.3633 76.8475 23.4958 76.4574 23.761C76.071 24.0224 75.7737 24.3633 75.5653 24.7837C75.357 25.2042 75.2528 25.6549 75.2528 26.136V26.9087C75.2528 27.5678 75.3665 28.1265 75.5938 28.5849C75.8248 29.0394 76.1449 29.386 76.554 29.6246C76.9631 29.8595 77.4384 29.9769 77.9801 29.9769C78.3324 29.9769 78.6506 29.9277 78.9347 29.8292C79.2225 29.7269 79.4706 29.5754 79.679 29.3746C79.8873 29.1701 80.0483 28.9163 80.1619 28.6133L81.4574 28.9769C81.321 29.4163 81.0919 29.8027 80.7699 30.136C80.4479 30.4655 80.0502 30.7231 79.5767 30.9087C79.1032 31.0905 78.571 31.1815 77.9801 31.1815ZM89.8153 24.2269L88.6108 24.5678C88.535 24.3671 88.4233 24.172 88.2756 23.9826C88.1316 23.7894 87.9347 23.6303 87.6847 23.5053C87.4347 23.3803 87.1146 23.3178 86.7244 23.3178C86.1903 23.3178 85.7453 23.4409 85.3892 23.6871C85.0369 23.9296 84.8608 24.2383 84.8608 24.6133C84.8608 24.9466 84.982 25.2099 85.2244 25.403C85.4669 25.5962 85.8456 25.7572 86.3608 25.886L87.6562 26.2042C88.4366 26.3936 89.018 26.6833 89.4006 27.0735C89.7831 27.4599 89.9744 27.958 89.9744 28.5678C89.9744 29.0678 89.8305 29.5148 89.5426 29.9087C89.2585 30.3027 88.8608 30.6133 88.3494 30.8405C87.8381 31.0678 87.2434 31.1815 86.5653 31.1815C85.6752 31.1815 84.9384 30.9883 84.3551 30.6019C83.7718 30.2155 83.4025 29.6511 83.2472 28.9087L84.5199 28.5905C84.6411 29.0602 84.8703 29.4125 85.2074 29.6474C85.5483 29.8822 85.9934 29.9996 86.5426 29.9996C87.1676 29.9996 87.6638 29.8671 88.0312 29.6019C88.4025 29.333 88.5881 29.011 88.5881 28.636C88.5881 28.333 88.482 28.0792 88.2699 27.8746C88.0578 27.6663 87.732 27.511 87.2926 27.4087L85.8381 27.0678C85.0388 26.8784 84.4517 26.5849 84.0767 26.1871C83.7055 25.7856 83.5199 25.2837 83.5199 24.6815C83.5199 24.189 83.6581 23.7534 83.9347 23.3746C84.215 22.9958 84.5956 22.6985 85.0767 22.4826C85.5616 22.2667 86.1108 22.1587 86.7244 22.1587C87.5881 22.1587 88.2661 22.3481 88.7585 22.7269C89.2547 23.1057 89.607 23.6057 89.8153 24.2269ZM98.1747 24.2269L96.9702 24.5678C96.8944 24.3671 96.7827 24.172 96.6349 23.9826C96.491 23.7894 96.294 23.6303 96.044 23.5053C95.794 23.3803 95.474 23.3178 95.0838 23.3178C94.5497 23.3178 94.1046 23.4409 93.7486 23.6871C93.3963 23.9296 93.2202 24.2383 93.2202 24.6133C93.2202 24.9466 93.3414 25.2099 93.5838 25.403C93.8262 25.5962 94.205 25.7572 94.7202 25.886L96.0156 26.2042C96.7959 26.3936 97.3774 26.6833 97.7599 27.0735C98.1425 27.4599 98.3338 27.958 98.3338 28.5678C98.3338 29.0678 98.1899 29.5148 97.902 29.9087C97.6179 30.3027 97.2202 30.6133 96.7088 30.8405C96.1974 31.0678 95.6027 31.1815 94.9247 31.1815C94.0346 31.1815 93.2978 30.9883 92.7145 30.6019C92.1312 30.2155 91.7618 29.6511 91.6065 28.9087L92.8793 28.5905C93.0005 29.0602 93.2296 29.4125 93.5668 29.6474C93.9077 29.8822 94.3527 29.9996 94.902 29.9996C95.527 29.9996 96.0232 29.8671 96.3906 29.6019C96.7618 29.333 96.9474 29.011 96.9474 28.636C96.9474 28.333 96.8414 28.0792 96.6293 27.8746C96.4171 27.6663 96.0914 27.511 95.652 27.4087L94.1974 27.0678C93.3982 26.8784 92.8111 26.5849 92.4361 26.1871C92.0649 25.7856 91.8793 25.2837 91.8793 24.6815C91.8793 24.189 92.0175 23.7534 92.294 23.3746C92.5743 22.9958 92.955 22.6985 93.4361 22.4826C93.9209 22.2667 94.4702 22.1587 95.0838 22.1587C95.9474 22.1587 96.6255 22.3481 97.1179 22.7269C97.6141 23.1057 97.9664 23.6057 98.1747 24.2269ZM102.92 31.2042C102.367 31.2042 101.866 31.1 101.415 30.8917C100.964 30.6796 100.606 30.3746 100.341 29.9769C100.076 29.5754 99.9432 29.0905 99.9432 28.5224C99.9432 28.0224 100.042 27.6171 100.239 27.3065C100.436 26.9921 100.699 26.7458 101.028 26.5678C101.358 26.3898 101.722 26.2572 102.119 26.1701C102.521 26.0792 102.924 26.0072 103.33 25.9542C103.86 25.886 104.29 25.8349 104.619 25.8008C104.953 25.7629 105.195 25.7004 105.347 25.6133C105.502 25.5261 105.58 25.3746 105.58 25.1587V25.1133C105.58 24.5527 105.426 24.1171 105.119 23.8065C104.816 23.4958 104.356 23.3405 103.739 23.3405C103.098 23.3405 102.597 23.4807 102.233 23.761C101.869 24.0413 101.614 24.3405 101.466 24.6587L100.193 24.2042C100.42 23.6739 100.723 23.261 101.102 22.9655C101.485 22.6663 101.902 22.458 102.352 22.3405C102.807 22.2193 103.254 22.1587 103.693 22.1587C103.973 22.1587 104.295 22.1928 104.659 22.261C105.027 22.3254 105.381 22.4599 105.722 22.6644C106.066 22.869 106.352 23.1777 106.58 23.5905C106.807 24.0034 106.92 24.5565 106.92 25.2496V30.9996H105.58V29.8178H105.511C105.42 30.0072 105.269 30.2099 105.057 30.4258C104.845 30.6417 104.563 30.8254 104.21 30.9769C103.858 31.1284 103.428 31.2042 102.92 31.2042ZM103.125 29.9996C103.655 29.9996 104.102 29.8955 104.466 29.6871C104.833 29.4788 105.11 29.2099 105.295 28.8803C105.485 28.5508 105.58 28.2042 105.58 27.8405V26.6133C105.523 26.6815 105.398 26.744 105.205 26.8008C105.015 26.8538 104.795 26.9011 104.545 26.9428C104.299 26.9807 104.059 27.0148 103.824 27.0451C103.593 27.0716 103.405 27.0943 103.261 27.1133C102.913 27.1587 102.587 27.2326 102.284 27.3349C101.985 27.4333 101.742 27.583 101.557 27.7837C101.375 27.9807 101.284 28.2496 101.284 28.5905C101.284 29.0565 101.456 29.4087 101.801 29.6474C102.15 29.8822 102.591 29.9996 103.125 29.9996ZM112.891 34.4542C112.243 34.4542 111.686 34.3708 111.22 34.2042C110.754 34.0413 110.366 33.8254 110.055 33.5565C109.749 33.2913 109.504 33.0072 109.322 32.7042L110.391 31.9542C110.512 32.1133 110.665 32.2951 110.851 32.4996C111.036 32.708 111.29 32.8879 111.612 33.0394C111.938 33.1947 112.364 33.2724 112.891 33.2724C113.595 33.2724 114.177 33.1019 114.635 32.761C115.093 32.4201 115.322 31.886 115.322 31.1587V29.386H115.209C115.11 29.5451 114.97 29.7421 114.788 29.9769C114.61 30.208 114.353 30.4144 114.016 30.5962C113.682 30.7743 113.232 30.8633 112.663 30.8633C111.959 30.8633 111.326 30.6966 110.766 30.3633C110.209 30.0299 109.768 29.5451 109.442 28.9087C109.12 28.2724 108.959 27.4996 108.959 26.5905C108.959 25.6966 109.116 24.9182 109.43 24.2553C109.745 23.5886 110.182 23.0735 110.743 22.7099C111.304 22.3424 111.951 22.1587 112.686 22.1587C113.254 22.1587 113.705 22.2534 114.038 22.4428C114.375 22.6284 114.633 22.8405 114.811 23.0792C114.993 23.314 115.133 23.5072 115.232 23.6587H115.368V22.2724H116.663V31.2496C116.663 31.9996 116.493 32.6095 116.152 33.0792C115.815 33.5527 115.36 33.8993 114.788 34.119C114.22 34.3424 113.588 34.4542 112.891 34.4542ZM112.845 29.6587C113.383 29.6587 113.838 29.5356 114.209 29.2894C114.58 29.0432 114.862 28.689 115.055 28.2269C115.249 27.7648 115.345 27.2118 115.345 26.5678C115.345 25.939 115.25 25.3841 115.061 24.903C114.872 24.422 114.591 24.0451 114.22 23.7724C113.849 23.4996 113.391 23.3633 112.845 23.3633C112.277 23.3633 111.804 23.5072 111.425 23.7951C111.05 24.083 110.768 24.4693 110.578 24.9542C110.393 25.439 110.3 25.9769 110.3 26.5678C110.3 27.1739 110.394 27.7099 110.584 28.1758C110.777 28.6379 111.061 29.0015 111.436 29.2667C111.815 29.528 112.285 29.6587 112.845 29.6587ZM122.777 31.1815C121.936 31.1815 121.211 30.9958 120.601 30.6246C119.995 30.2496 119.527 29.7269 119.197 29.0565C118.872 28.3822 118.709 27.5981 118.709 26.7042C118.709 25.8102 118.872 25.0224 119.197 24.3405C119.527 23.6549 119.985 23.1208 120.572 22.7383C121.163 22.3519 121.853 22.1587 122.641 22.1587C123.095 22.1587 123.544 22.2345 123.987 22.386C124.43 22.5375 124.834 22.7837 125.197 23.1246C125.561 23.4618 125.851 23.9087 126.067 24.4655C126.283 25.0224 126.391 25.708 126.391 26.5224V27.0905H119.663V25.9315H125.027C125.027 25.439 124.929 24.9996 124.732 24.6133C124.538 24.2269 124.262 23.922 123.902 23.6985C123.546 23.475 123.125 23.3633 122.641 23.3633C122.107 23.3633 121.644 23.4958 121.254 23.761C120.868 24.0224 120.571 24.3633 120.362 24.7837C120.154 25.2042 120.05 25.6549 120.05 26.136V26.9087C120.05 27.5678 120.163 28.1265 120.391 28.5849C120.622 29.0394 120.942 29.386 121.351 29.6246C121.76 29.8595 122.235 29.9769 122.777 29.9769C123.129 29.9769 123.447 29.9277 123.732 29.8292C124.019 29.7269 124.268 29.5754 124.476 29.3746C124.684 29.1701 124.845 28.9163 124.959 28.6133L126.254 28.9769C126.118 29.4163 125.889 29.8027 125.567 30.136C125.245 30.4655 124.847 30.7231 124.374 30.9087C123.9 31.0905 123.368 31.1815 122.777 31.1815Z" fill="#F6F6F7"/>
<line x1="21" y1="133.501" x2="397" y2="133.501" stroke="#282D45"/>
<path d="M27.8011 114.363C27.7415 113.86 27.4995 113.469 27.0753 113.19C26.651 112.912 26.1307 112.773 25.5142 112.773C25.0634 112.773 24.669 112.845 24.331 112.991C23.9962 113.137 23.7344 113.338 23.5455 113.593C23.3598 113.848 23.267 114.138 23.267 114.463C23.267 114.735 23.3317 114.968 23.4609 115.164C23.5935 115.356 23.7625 115.517 23.968 115.646C24.1735 115.772 24.389 115.877 24.6143 115.959C24.8397 116.039 25.0469 116.104 25.2358 116.153L26.2699 116.432C26.535 116.501 26.83 116.597 27.1548 116.72C27.483 116.843 27.7962 117.01 28.0945 117.222C28.3961 117.431 28.6446 117.699 28.8402 118.028C29.0357 118.356 29.1335 118.758 29.1335 119.236C29.1335 119.786 28.9893 120.283 28.701 120.727C28.416 121.171 27.9983 121.524 27.4482 121.786C26.9013 122.048 26.2367 122.179 25.4545 122.179C24.7254 122.179 24.094 122.061 23.5604 121.826C23.0301 121.591 22.6125 121.262 22.3075 120.841C22.0059 120.421 21.8352 119.932 21.7955 119.375H23.0682C23.1013 119.759 23.2306 120.077 23.456 120.329C23.6847 120.578 23.973 120.764 24.321 120.886C24.6723 121.006 25.0502 121.065 25.4545 121.065C25.9252 121.065 26.3478 120.989 26.7223 120.836C27.0968 120.681 27.3935 120.465 27.6122 120.19C27.831 119.912 27.9403 119.587 27.9403 119.216C27.9403 118.878 27.8459 118.603 27.657 118.39C27.468 118.178 27.2195 118.006 26.9112 117.873C26.603 117.741 26.2699 117.625 25.9119 117.525L24.6591 117.167C23.8636 116.939 23.2339 116.612 22.7699 116.188C22.3059 115.764 22.0739 115.209 22.0739 114.523C22.0739 113.952 22.228 113.455 22.5362 113.031C22.8478 112.604 23.2654 112.272 23.7891 112.037C24.3161 111.798 24.9044 111.679 25.554 111.679C26.2102 111.679 26.7936 111.796 27.304 112.032C27.8144 112.264 28.2188 112.582 28.517 112.986C28.8187 113.391 28.9777 113.85 28.9943 114.363H27.8011ZM35.8141 118.878V114.363H36.9874V122H35.8141V120.707H35.7346C35.5556 121.095 35.2772 121.425 34.8993 121.697C34.5215 121.965 34.0442 122.099 33.4675 122.099C32.9902 122.099 32.566 121.995 32.1948 121.786C31.8236 121.574 31.5319 121.256 31.3198 120.832C31.1077 120.404 31.0016 119.865 31.0016 119.216V114.363H32.1749V119.136C32.1749 119.693 32.3307 120.137 32.6422 120.469C32.9571 120.8 33.3581 120.966 33.8453 120.966C34.137 120.966 34.4337 120.891 34.7353 120.742C35.0402 120.593 35.2954 120.364 35.5009 120.056C35.7097 119.748 35.8141 119.355 35.8141 118.878ZM39.2955 122V111.818H40.4688V115.577H40.5682C40.6544 115.444 40.7737 115.275 40.9261 115.069C41.0819 114.861 41.304 114.675 41.5923 114.513C41.884 114.347 42.2784 114.264 42.7756 114.264C43.4186 114.264 43.9853 114.425 44.4759 114.746C44.9664 115.068 45.3492 115.524 45.6243 116.113C45.8994 116.703 46.0369 117.399 46.0369 118.202C46.0369 119.01 45.8994 119.711 45.6243 120.305C45.3492 120.894 44.968 121.352 44.4808 121.677C43.9936 121.998 43.4318 122.159 42.7955 122.159C42.3049 122.159 41.9122 122.078 41.6172 121.915C41.3222 121.75 41.0952 121.562 40.9361 121.354C40.777 121.141 40.6544 120.966 40.5682 120.827H40.429V122H39.2955ZM40.4489 118.182C40.4489 118.758 40.5334 119.267 40.7024 119.708C40.8714 120.145 41.1184 120.488 41.4432 120.737C41.768 120.982 42.1657 121.105 42.6364 121.105C43.1269 121.105 43.5362 120.976 43.8643 120.717C44.1958 120.455 44.4444 120.104 44.6101 119.663C44.7791 119.219 44.8636 118.725 44.8636 118.182C44.8636 117.645 44.7808 117.161 44.6151 116.73C44.4527 116.296 44.2057 115.953 43.8743 115.701C43.5462 115.446 43.1335 115.318 42.6364 115.318C42.1591 115.318 41.758 115.439 41.4332 115.681C41.1084 115.92 40.8632 116.254 40.6974 116.685C40.5317 117.113 40.4489 117.612 40.4489 118.182ZM47.8317 114.363H49.005V122.557C49.005 123.027 48.9238 123.435 48.7614 123.78C48.6023 124.124 48.3603 124.391 48.0355 124.58C47.714 124.769 47.308 124.863 46.8175 124.863C46.7777 124.863 46.7379 124.863 46.6982 124.863C46.6584 124.863 46.6186 124.863 46.5788 124.863V123.77C46.6186 123.77 46.6551 123.77 46.6882 123.77C46.7214 123.77 46.7578 123.77 46.7976 123.77C47.1555 123.77 47.4174 123.664 47.5831 123.452C47.7488 123.243 47.8317 122.944 47.8317 122.557V114.363ZM48.4084 113.091C48.1797 113.091 47.9825 113.013 47.8168 112.857C47.6544 112.701 47.5732 112.514 47.5732 112.295C47.5732 112.077 47.6544 111.889 47.8168 111.734C47.9825 111.578 48.1797 111.5 48.4084 111.5C48.6371 111.5 48.8326 111.578 48.995 111.734C49.1607 111.889 49.2436 112.077 49.2436 112.295C49.2436 112.514 49.1607 112.701 48.995 112.857C48.8326 113.013 48.6371 113.091 48.4084 113.091ZM54.3556 122.159C53.6199 122.159 52.9851 121.997 52.4515 121.672C51.9212 121.344 51.5119 120.886 51.2235 120.3C50.9385 119.71 50.796 119.024 50.796 118.241C50.796 117.459 50.9385 116.77 51.2235 116.173C51.5119 115.573 51.9129 115.106 52.4267 114.771C52.9437 114.433 53.5469 114.264 54.2363 114.264C54.6341 114.264 55.0268 114.33 55.4146 114.463C55.8024 114.595 56.1554 114.811 56.4735 115.109C56.7917 115.404 57.0453 115.795 57.2342 116.283C57.4231 116.77 57.5176 117.37 57.5176 118.082V118.579H51.6312V117.565H56.3244C56.3244 117.134 56.2382 116.75 56.0659 116.412C55.8968 116.074 55.6549 115.807 55.34 115.611C55.0285 115.416 54.6606 115.318 54.2363 115.318C53.769 115.318 53.3646 115.434 53.0233 115.666C52.6852 115.895 52.425 116.193 52.2427 116.561C52.0604 116.929 51.9693 117.323 51.9693 117.744V118.42C51.9693 118.997 52.0687 119.486 52.2676 119.887C52.4698 120.285 52.7498 120.588 53.1078 120.797C53.4657 121.002 53.8817 121.105 54.3556 121.105C54.6639 121.105 54.9423 121.062 55.1909 120.976C55.4428 120.886 55.6599 120.754 55.8422 120.578C56.0244 120.399 56.1653 120.177 56.2647 119.912L57.3983 120.23C57.2789 120.614 57.0784 120.952 56.7967 121.244C56.515 121.533 56.167 121.758 55.7527 121.92C55.3384 122.079 54.8727 122.159 54.3556 122.159ZM62.4047 122.159C61.6887 122.159 61.0723 121.99 60.5552 121.652C60.0382 121.314 59.6404 120.848 59.362 120.255C59.0836 119.662 58.9444 118.984 58.9444 118.221C58.9444 117.446 59.0869 116.761 59.372 116.168C59.6603 115.572 60.0614 115.106 60.5751 114.771C61.0922 114.433 61.6954 114.264 62.3848 114.264C62.9217 114.264 63.4056 114.363 63.8365 114.562C64.2673 114.761 64.6203 115.04 64.8954 115.398C65.1705 115.756 65.3412 116.173 65.4075 116.65H64.2342C64.1447 116.302 63.9458 115.994 63.6376 115.726C63.3327 115.454 62.9217 115.318 62.4047 115.318C61.9473 115.318 61.5462 115.437 61.2015 115.676C60.8601 115.911 60.5933 116.244 60.4011 116.675C60.2122 117.103 60.1177 117.605 60.1177 118.182C60.1177 118.772 60.2105 119.285 60.3961 119.723C60.585 120.16 60.8502 120.5 61.1916 120.742C61.5363 120.984 61.9406 121.105 62.4047 121.105C62.7096 121.105 62.9863 121.052 63.2349 120.946C63.4835 120.84 63.694 120.687 63.8663 120.488C64.0386 120.29 64.1613 120.051 64.2342 119.773H65.4075C65.3412 120.223 65.1771 120.629 64.9153 120.991C64.6568 121.349 64.3137 121.634 63.8862 121.846C63.4619 122.055 62.9681 122.159 62.4047 122.159ZM70.4437 114.363V115.358H66.4863V114.363H70.4437ZM67.6397 112.534H68.813V119.812C68.813 120.144 68.8611 120.392 68.9572 120.558C69.0566 120.72 69.1826 120.83 69.335 120.886C69.4908 120.939 69.6549 120.966 69.8272 120.966C69.9565 120.966 70.0626 120.959 70.1454 120.946C70.2283 120.929 70.2946 120.916 70.3443 120.906L70.5829 121.96C70.5034 121.99 70.3923 122.02 70.2498 122.05C70.1073 122.083 69.9267 122.099 69.7079 122.099C69.3765 122.099 69.0517 122.028 68.7335 121.886C68.4186 121.743 68.1568 121.526 67.948 121.234C67.7425 120.943 67.6397 120.575 67.6397 120.131V112.534Z" fill="#8F9BB7"/>
<path d="M96.375 122H93.233V111.818H96.5142C97.5019 111.818 98.3471 112.022 99.0497 112.43C99.7524 112.834 100.291 113.416 100.665 114.175C101.04 114.93 101.227 115.835 101.227 116.889C101.227 117.95 101.038 118.863 100.661 119.628C100.283 120.391 99.7325 120.977 99.0099 121.388C98.2874 121.796 97.4091 122 96.375 122ZM94.4659 120.906H96.2955C97.1373 120.906 97.835 120.744 98.3885 120.419C98.942 120.094 99.3546 119.632 99.6264 119.032C99.8982 118.432 100.034 117.718 100.034 116.889C100.034 116.067 99.8999 115.359 99.6314 114.766C99.3629 114.17 98.9619 113.712 98.4283 113.394C97.8946 113.073 97.2301 112.912 96.4347 112.912H94.4659V120.906ZM105.384 122.179C104.9 122.179 104.46 122.088 104.066 121.905C103.672 121.72 103.358 121.453 103.126 121.105C102.894 120.754 102.778 120.329 102.778 119.832C102.778 119.395 102.865 119.04 103.037 118.768C103.209 118.493 103.44 118.278 103.728 118.122C104.016 117.966 104.335 117.85 104.683 117.774C105.034 117.694 105.387 117.631 105.741 117.585C106.205 117.525 106.582 117.481 106.87 117.451C107.162 117.418 107.374 117.363 107.506 117.287C107.642 117.211 107.71 117.078 107.71 116.889V116.849C107.71 116.359 107.576 115.978 107.308 115.706C107.042 115.434 106.64 115.298 106.099 115.298C105.539 115.298 105.1 115.421 104.782 115.666C104.464 115.911 104.24 116.173 104.111 116.452L102.997 116.054C103.196 115.59 103.461 115.229 103.793 114.97C104.127 114.708 104.492 114.526 104.886 114.423C105.284 114.317 105.675 114.264 106.06 114.264C106.305 114.264 106.587 114.294 106.905 114.354C107.226 114.41 107.536 114.528 107.835 114.707C108.136 114.886 108.386 115.156 108.585 115.517C108.784 115.878 108.884 116.362 108.884 116.969V122H107.71V120.966H107.651C107.571 121.131 107.438 121.309 107.253 121.498C107.067 121.687 106.82 121.847 106.512 121.98C106.204 122.113 105.828 122.179 105.384 122.179ZM105.562 121.125C106.027 121.125 106.418 121.034 106.736 120.851C107.057 120.669 107.299 120.434 107.462 120.145C107.627 119.857 107.71 119.554 107.71 119.236V118.162C107.661 118.221 107.551 118.276 107.382 118.326C107.216 118.372 107.024 118.414 106.805 118.45C106.59 118.483 106.379 118.513 106.174 118.54C105.972 118.563 105.808 118.583 105.682 118.599C105.377 118.639 105.092 118.704 104.827 118.793C104.565 118.879 104.353 119.01 104.19 119.186C104.031 119.358 103.952 119.594 103.952 119.892C103.952 120.3 104.103 120.608 104.404 120.817C104.709 121.022 105.095 121.125 105.562 121.125ZM114.127 122.159C113.411 122.159 112.795 121.99 112.278 121.652C111.761 121.314 111.363 120.848 111.085 120.255C110.806 119.662 110.667 118.984 110.667 118.221C110.667 117.446 110.81 116.761 111.095 116.168C111.383 115.572 111.784 115.106 112.298 114.771C112.815 114.433 113.418 114.264 114.107 114.264C114.644 114.264 115.128 114.363 115.559 114.562C115.99 114.761 116.343 115.04 116.618 115.398C116.893 115.756 117.064 116.173 117.13 116.65H115.957C115.867 116.302 115.669 115.994 115.36 115.726C115.055 115.454 114.644 115.318 114.127 115.318C113.67 115.318 113.269 115.437 112.924 115.676C112.583 115.911 112.316 116.244 112.124 116.675C111.935 117.103 111.84 117.605 111.84 118.182C111.84 118.772 111.933 119.285 112.119 119.723C112.308 120.16 112.573 120.5 112.914 120.742C113.259 120.984 113.663 121.105 114.127 121.105C114.432 121.105 114.709 121.052 114.958 120.946C115.206 120.84 115.417 120.687 115.589 120.488C115.761 120.29 115.884 120.051 115.957 119.773H117.13C117.064 120.223 116.9 120.629 116.638 120.991C116.379 121.349 116.036 121.634 115.609 121.846C115.185 122.055 114.691 122.159 114.127 122.159ZM118.845 122V114.363H120.019V122H118.845ZM119.442 113.091C119.213 113.091 119.016 113.013 118.85 112.857C118.688 112.701 118.607 112.514 118.607 112.295C118.607 112.077 118.688 111.889 118.85 111.734C119.016 111.578 119.213 111.5 119.442 111.5C119.671 111.5 119.866 111.578 120.029 111.734C120.194 111.889 120.277 112.077 120.277 112.295C120.277 112.514 120.194 112.701 120.029 112.857C119.866 113.013 119.671 113.091 119.442 113.091ZM123.341 111.818V122H122.168V111.818H123.341ZM125.49 122V114.363H126.663V122H125.49ZM126.086 113.091C125.858 113.091 125.661 113.013 125.495 112.857C125.332 112.701 125.251 112.514 125.251 112.295C125.251 112.077 125.332 111.889 125.495 111.734C125.661 111.578 125.858 111.5 126.086 111.5C126.315 111.5 126.511 111.578 126.673 111.734C126.839 111.889 126.922 112.077 126.922 112.295C126.922 112.514 126.839 112.701 126.673 112.857C126.511 113.013 126.315 113.091 126.086 113.091ZM134.221 116.074L133.167 116.372C133.101 116.196 133.003 116.026 132.874 115.86C132.748 115.691 132.576 115.552 132.357 115.442C132.138 115.333 131.858 115.278 131.517 115.278C131.049 115.278 130.66 115.386 130.348 115.601C130.04 115.814 129.886 116.084 129.886 116.412C129.886 116.703 129.992 116.934 130.204 117.103C130.416 117.272 130.748 117.413 131.199 117.525L132.332 117.804C133.015 117.97 133.524 118.223 133.858 118.564C134.193 118.903 134.36 119.338 134.36 119.872C134.36 120.31 134.234 120.701 133.983 121.045C133.734 121.39 133.386 121.662 132.939 121.861C132.491 122.06 131.971 122.159 131.377 122.159C130.599 122.159 129.954 121.99 129.444 121.652C128.933 121.314 128.61 120.82 128.474 120.17L129.588 119.892C129.694 120.303 129.894 120.611 130.189 120.817C130.488 121.022 130.877 121.125 131.358 121.125C131.904 121.125 132.339 121.009 132.66 120.777C132.985 120.542 133.147 120.26 133.147 119.932C133.147 119.667 133.055 119.444 132.869 119.265C132.683 119.083 132.398 118.947 132.014 118.858L130.741 118.56C130.042 118.394 129.528 118.137 129.2 117.789C128.875 117.438 128.713 116.998 128.713 116.471C128.713 116.041 128.834 115.659 129.076 115.328C129.321 114.997 129.654 114.736 130.075 114.547C130.499 114.359 130.98 114.264 131.517 114.264C132.272 114.264 132.866 114.43 133.297 114.761C133.731 115.093 134.039 115.53 134.221 116.074ZM136.127 122V114.363H137.3V122H136.127ZM136.723 113.091C136.494 113.091 136.297 113.013 136.132 112.857C135.969 112.701 135.888 112.514 135.888 112.295C135.888 112.077 135.969 111.889 136.132 111.734C136.297 111.578 136.494 111.5 136.723 111.5C136.952 111.5 137.147 111.578 137.31 111.734C137.476 111.889 137.558 112.077 137.558 112.295C137.558 112.514 137.476 112.701 137.31 112.857C137.147 113.013 136.952 113.091 136.723 113.091ZM144.858 116.074L143.804 116.372C143.738 116.196 143.64 116.026 143.511 115.86C143.385 115.691 143.212 115.552 142.994 115.442C142.775 115.333 142.495 115.278 142.153 115.278C141.686 115.278 141.297 115.386 140.985 115.601C140.677 115.814 140.523 116.084 140.523 116.412C140.523 116.703 140.629 116.934 140.841 117.103C141.053 117.272 141.384 117.413 141.835 117.525L142.969 117.804C143.652 117.97 144.16 118.223 144.495 118.564C144.83 118.903 144.997 119.338 144.997 119.872C144.997 120.31 144.871 120.701 144.619 121.045C144.371 121.39 144.023 121.662 143.575 121.861C143.128 122.06 142.607 122.159 142.014 122.159C141.235 122.159 140.591 121.99 140.08 121.652C139.57 121.314 139.247 120.82 139.111 120.17L140.224 119.892C140.33 120.303 140.531 120.611 140.826 120.817C141.124 121.022 141.514 121.125 141.994 121.125C142.541 121.125 142.975 121.009 143.297 120.777C143.622 120.542 143.784 120.26 143.784 119.932C143.784 119.667 143.691 119.444 143.506 119.265C143.32 119.083 143.035 118.947 142.651 118.858L141.378 118.56C140.679 118.394 140.165 118.137 139.837 117.789C139.512 117.438 139.349 116.998 139.349 116.471C139.349 116.041 139.47 115.659 139.712 115.328C139.958 114.997 140.291 114.736 140.712 114.547C141.136 114.359 141.616 114.264 142.153 114.264C142.909 114.264 143.502 114.43 143.933 114.761C144.367 115.093 144.676 115.53 144.858 116.074ZM154.022 114.363V115.358H150.064V114.363H154.022ZM151.218 112.534H152.391V119.812C152.391 120.144 152.439 120.392 152.535 120.558C152.635 120.72 152.761 120.83 152.913 120.886C153.069 120.939 153.233 120.966 153.405 120.966C153.535 120.966 153.641 120.959 153.724 120.946C153.806 120.929 153.873 120.916 153.922 120.906L154.161 121.96C154.081 121.99 153.97 122.02 153.828 122.05C153.685 122.083 153.505 122.099 153.286 122.099C152.955 122.099 152.63 122.028 152.312 121.886C151.997 121.743 151.735 121.526 151.526 121.234C151.321 120.943 151.218 120.575 151.218 120.131V112.534ZM158.906 122.159C158.171 122.159 157.536 121.997 157.002 121.672C156.472 121.344 156.063 120.886 155.774 120.3C155.489 119.71 155.347 119.024 155.347 118.241C155.347 117.459 155.489 116.77 155.774 116.173C156.063 115.573 156.464 115.106 156.977 114.771C157.494 114.433 158.098 114.264 158.787 114.264C159.185 114.264 159.578 114.33 159.965 114.463C160.353 114.595 160.706 114.811 161.024 115.109C161.343 115.404 161.596 115.795 161.785 116.283C161.974 116.77 162.068 117.37 162.068 118.082V118.579H156.182V117.565H160.875C160.875 117.134 160.789 116.75 160.617 116.412C160.448 116.074 160.206 115.807 159.891 115.611C159.579 115.416 159.211 115.318 158.787 115.318C158.32 115.318 157.915 115.434 157.574 115.666C157.236 115.895 156.976 116.193 156.794 116.561C156.611 116.929 156.52 117.323 156.52 117.744V118.42C156.52 118.997 156.619 119.486 156.818 119.887C157.021 120.285 157.301 120.588 157.659 120.797C158.017 121.002 158.432 121.105 158.906 121.105C159.215 121.105 159.493 121.062 159.742 120.976C159.994 120.886 160.211 120.754 160.393 120.578C160.575 120.399 160.716 120.177 160.816 119.912L161.949 120.23C161.83 120.614 161.629 120.952 161.347 121.244C161.066 121.533 160.718 121.758 160.303 121.92C159.889 122.079 159.423 122.159 158.906 122.159ZM165.026 111.818V122H163.853V111.818H165.026ZM168.349 111.818V122H167.175V111.818H168.349ZM175.31 118.878V114.363H176.483V122H175.31V120.707H175.231C175.052 121.095 174.773 121.425 174.395 121.697C174.018 121.965 173.54 122.099 172.964 122.099C172.486 122.099 172.062 121.995 171.691 121.786C171.32 121.574 171.028 121.256 170.816 120.832C170.604 120.404 170.498 119.865 170.498 119.216V114.363H171.671V119.136C171.671 119.693 171.827 120.137 172.138 120.469C172.453 120.8 172.854 120.966 173.341 120.966C173.633 120.966 173.93 120.891 174.231 120.742C174.536 120.593 174.791 120.364 174.997 120.056C175.206 119.748 175.31 119.355 175.31 118.878ZM184.042 116.074L182.988 116.372C182.921 116.196 182.824 116.026 182.694 115.86C182.568 115.691 182.396 115.552 182.177 115.442C181.958 115.333 181.678 115.278 181.337 115.278C180.87 115.278 180.48 115.386 180.169 115.601C179.86 115.814 179.706 116.084 179.706 116.412C179.706 116.703 179.812 116.934 180.025 117.103C180.237 117.272 180.568 117.413 181.019 117.525L182.152 117.804C182.835 117.97 183.344 118.223 183.679 118.564C184.013 118.903 184.181 119.338 184.181 119.872C184.181 120.31 184.055 120.701 183.803 121.045C183.554 121.39 183.206 121.662 182.759 121.861C182.311 122.06 181.791 122.159 181.198 122.159C180.419 122.159 179.774 121.99 179.264 121.652C178.753 121.314 178.43 120.82 178.294 120.17L179.408 119.892C179.514 120.303 179.715 120.611 180.01 120.817C180.308 121.022 180.697 121.125 181.178 121.125C181.725 121.125 182.159 121.009 182.48 120.777C182.805 120.542 182.968 120.26 182.968 119.932C182.968 119.667 182.875 119.444 182.689 119.265C182.504 119.083 182.219 118.947 181.834 118.858L180.561 118.56C179.862 118.394 179.348 118.137 179.02 117.789C178.695 117.438 178.533 116.998 178.533 116.471C178.533 116.041 178.654 115.659 178.896 115.328C179.141 114.997 179.474 114.736 179.895 114.547C180.319 114.359 180.8 114.264 181.337 114.264C182.093 114.264 182.686 114.43 183.117 114.761C183.551 115.093 183.859 115.53 184.042 116.074ZM193.205 114.363V115.358H189.248V114.363H193.205ZM190.401 112.534H191.575V119.812C191.575 120.144 191.623 120.392 191.719 120.558C191.818 120.72 191.944 120.83 192.097 120.886C192.253 120.939 192.417 120.966 192.589 120.966C192.718 120.966 192.824 120.959 192.907 120.946C192.99 120.929 193.056 120.916 193.106 120.906L193.345 121.96C193.265 121.99 193.154 122.02 193.012 122.05C192.869 122.083 192.688 122.099 192.47 122.099C192.138 122.099 191.813 122.028 191.495 121.886C191.18 121.743 190.919 121.526 190.71 121.234C190.504 120.943 190.401 120.575 190.401 120.131V112.534ZM194.97 122V114.363H196.144V122H194.97ZM195.567 113.091C195.338 113.091 195.141 113.013 194.975 112.857C194.813 112.701 194.732 112.514 194.732 112.295C194.732 112.077 194.813 111.889 194.975 111.734C195.141 111.578 195.338 111.5 195.567 111.5C195.796 111.5 195.991 111.578 196.154 111.734C196.319 111.889 196.402 112.077 196.402 112.295C196.402 112.514 196.319 112.701 196.154 112.857C195.991 113.013 195.796 113.091 195.567 113.091ZM199.466 117.406V122H198.293V114.363H199.426V115.557H199.526C199.705 115.169 199.976 114.857 200.341 114.622C200.705 114.383 201.176 114.264 201.753 114.264C202.27 114.264 202.722 114.37 203.11 114.582C203.498 114.791 203.799 115.109 204.015 115.537C204.23 115.961 204.338 116.498 204.338 117.148V122H203.165V117.227C203.165 116.627 203.009 116.16 202.697 115.825C202.386 115.487 201.958 115.318 201.415 115.318C201.04 115.318 200.705 115.399 200.411 115.562C200.119 115.724 199.888 115.961 199.719 116.273C199.55 116.584 199.466 116.962 199.466 117.406ZM209.584 122.159C208.868 122.159 208.252 121.99 207.735 121.652C207.218 121.314 206.82 120.848 206.542 120.255C206.263 119.662 206.124 118.984 206.124 118.221C206.124 117.446 206.267 116.761 206.552 116.168C206.84 115.572 207.241 115.106 207.755 114.771C208.272 114.433 208.875 114.264 209.564 114.264C210.101 114.264 210.585 114.363 211.016 114.562C211.447 114.761 211.8 115.04 212.075 115.398C212.35 115.756 212.521 116.173 212.587 116.65H211.414C211.324 116.302 211.126 115.994 210.817 115.726C210.512 115.454 210.101 115.318 209.584 115.318C209.127 115.318 208.726 115.437 208.381 115.676C208.04 115.911 207.773 116.244 207.581 116.675C207.392 117.103 207.297 117.605 207.297 118.182C207.297 118.772 207.39 119.285 207.576 119.723C207.765 120.16 208.03 120.5 208.371 120.742C208.716 120.984 209.12 121.105 209.584 121.105C209.889 121.105 210.166 121.052 210.415 120.946C210.663 120.84 210.874 120.687 211.046 120.488C211.218 120.29 211.341 120.051 211.414 119.773H212.587C212.521 120.223 212.357 120.629 212.095 120.991C211.836 121.349 211.493 121.634 211.066 121.846C210.642 122.055 210.148 122.159 209.584 122.159Z" fill="#F6F6F7"/>
<line x1="21" y1="178.498" x2="397" y2="178.498" stroke="#282D45"/>
<path d="M22.233 167.001V156.819H28.3381V157.913H23.4659V161.353H27.8807V162.447H23.4659V167.001H22.233ZM30.2086 167.001V159.365H31.3422V160.518H31.4217C31.5609 160.14 31.8128 159.834 32.1774 159.598C32.542 159.363 32.9529 159.245 33.4103 159.245C33.4965 159.245 33.6042 159.247 33.7335 159.25C33.8627 159.254 33.9605 159.259 34.0268 159.265V160.458C33.987 160.449 33.8959 160.434 33.7534 160.414C33.6142 160.391 33.4667 160.379 33.3109 160.379C32.9397 160.379 32.6083 160.457 32.3166 160.613C32.0282 160.765 31.7995 160.977 31.6305 161.249C31.4648 161.517 31.3819 161.824 31.3819 162.169V167.001H30.2086ZM38.2875 167.16C37.5981 167.16 36.9932 166.996 36.4728 166.668C35.9558 166.34 35.5514 165.881 35.2598 165.291C34.9714 164.701 34.8272 164.012 34.8272 163.223C34.8272 162.427 34.9714 161.733 35.2598 161.14C35.5514 160.546 35.9558 160.086 36.4728 159.757C36.9932 159.429 37.5981 159.265 38.2875 159.265C38.9769 159.265 39.5801 159.429 40.0971 159.757C40.6175 160.086 41.0218 160.546 41.3102 161.14C41.6019 161.733 41.7477 162.427 41.7477 163.223C41.7477 164.012 41.6019 164.701 41.3102 165.291C41.0218 165.881 40.6175 166.34 40.0971 166.668C39.5801 166.996 38.9769 167.16 38.2875 167.16ZM38.2875 166.106C38.8111 166.106 39.242 165.972 39.5801 165.704C39.9181 165.435 40.1684 165.082 40.3308 164.645C40.4932 164.207 40.5744 163.733 40.5744 163.223C40.5744 162.712 40.4932 162.237 40.3308 161.796C40.1684 161.355 39.9181 160.999 39.5801 160.727C39.242 160.455 38.8111 160.319 38.2875 160.319C37.7638 160.319 37.3329 160.455 36.9949 160.727C36.6568 160.999 36.4065 161.355 36.2441 161.796C36.0817 162.237 36.0005 162.712 36.0005 163.223C36.0005 163.733 36.0817 164.207 36.2441 164.645C36.4065 165.082 36.6568 165.435 36.9949 165.704C37.3329 165.972 37.7638 166.106 38.2875 166.106ZM43.5387 167.001V159.365H44.6722V160.558H44.7717C44.9308 160.15 45.1876 159.834 45.5423 159.608C45.8969 159.38 46.3228 159.265 46.82 159.265C47.3237 159.265 47.743 159.38 48.0778 159.608C48.4158 159.834 48.6793 160.15 48.8683 160.558H48.9478C49.1433 160.164 49.4367 159.85 49.8278 159.618C50.2189 159.383 50.6879 159.265 51.2347 159.265C51.9175 159.265 52.476 159.479 52.9102 159.907C53.3443 160.331 53.5614 160.992 53.5614 161.89V167.001H52.3881V161.89C52.3881 161.327 52.234 160.924 51.9258 160.682C51.6175 160.44 51.2546 160.319 50.837 160.319C50.3001 160.319 49.8841 160.482 49.5891 160.806C49.2942 161.128 49.1467 161.536 49.1467 162.03V167.001H47.9535V161.771C47.9535 161.337 47.8126 160.987 47.5309 160.722C47.2492 160.454 46.8862 160.319 46.4421 160.319C46.1372 160.319 45.8522 160.4 45.587 160.563C45.3252 160.725 45.113 160.951 44.9506 161.239C44.7915 161.524 44.712 161.854 44.712 162.228V167.001H43.5387Z" fill="#8F9BB7"/>
<path d="M95.321 167.18C94.8371 167.18 94.398 167.089 94.0036 166.907C93.6091 166.721 93.2959 166.454 93.0639 166.106C92.8319 165.755 92.7159 165.331 92.7159 164.833C92.7159 164.396 92.8021 164.041 92.9744 163.77C93.1468 163.494 93.3771 163.279 93.6655 163.123C93.9538 162.967 94.272 162.851 94.62 162.775C94.9714 162.696 95.3243 162.633 95.679 162.586C96.143 162.527 96.5192 162.482 96.8075 162.452C97.0992 162.419 97.3113 162.364 97.4439 162.288C97.5798 162.212 97.6477 162.079 97.6477 161.89V161.851C97.6477 161.36 97.5135 160.979 97.245 160.707C96.9799 160.435 96.5772 160.299 96.0369 160.299C95.4768 160.299 95.0376 160.422 94.7195 160.667C94.4013 160.913 94.1776 161.174 94.0483 161.453L92.9347 161.055C93.1335 160.591 93.3987 160.23 93.7301 159.971C94.0649 159.709 94.4295 159.527 94.8239 159.424C95.2216 159.318 95.6127 159.265 95.9972 159.265C96.2424 159.265 96.5241 159.295 96.8423 159.355C97.1638 159.411 97.4737 159.529 97.772 159.708C98.0736 159.887 98.3239 160.157 98.5227 160.518C98.7216 160.879 98.821 161.363 98.821 161.97V167.001H97.6477V165.967H97.5881C97.5085 166.133 97.3759 166.31 97.1903 166.499C97.0047 166.688 96.7578 166.849 96.4496 166.981C96.1413 167.114 95.7652 167.18 95.321 167.18ZM95.5 166.126C95.964 166.126 96.3551 166.035 96.6733 165.853C96.9948 165.67 97.2367 165.435 97.3991 165.147C97.5649 164.858 97.6477 164.555 97.6477 164.237V163.163C97.598 163.223 97.4886 163.277 97.3196 163.327C97.1539 163.373 96.9616 163.415 96.7429 163.451C96.5275 163.485 96.317 163.514 96.1115 163.541C95.9093 163.564 95.7453 163.584 95.6193 163.601C95.3144 163.64 95.0294 163.705 94.7642 163.794C94.5024 163.881 94.2902 164.012 94.1278 164.187C93.9688 164.36 93.8892 164.595 93.8892 164.893C93.8892 165.301 94.04 165.609 94.3416 165.818C94.6465 166.023 95.0327 166.126 95.5 166.126ZM104.065 167.16C103.349 167.16 102.732 166.991 102.215 166.653C101.698 166.315 101.301 165.849 101.022 165.256C100.744 164.663 100.605 163.985 100.605 163.223C100.605 162.447 100.747 161.763 101.032 161.169C101.32 160.573 101.722 160.107 102.235 159.772C102.752 159.434 103.356 159.265 104.045 159.265C104.582 159.265 105.066 159.365 105.497 159.564C105.927 159.762 106.28 160.041 106.556 160.399C106.831 160.757 107.001 161.174 107.068 161.652H105.894C105.805 161.304 105.606 160.995 105.298 160.727C104.993 160.455 104.582 160.319 104.065 160.319C103.607 160.319 103.206 160.439 102.862 160.677C102.52 160.913 102.253 161.246 102.061 161.677C101.872 162.104 101.778 162.606 101.778 163.183C101.778 163.773 101.871 164.287 102.056 164.724C102.245 165.162 102.51 165.501 102.852 165.743C103.196 165.985 103.601 166.106 104.065 166.106C104.37 166.106 104.646 166.053 104.895 165.947C105.144 165.841 105.354 165.689 105.526 165.49C105.699 165.291 105.821 165.052 105.894 164.774H107.068C107.001 165.225 106.837 165.631 106.575 165.992C106.317 166.35 105.974 166.635 105.546 166.847C105.122 167.056 104.628 167.16 104.065 167.16ZM108.783 167.001V159.365H109.956V167.001H108.783ZM109.379 158.092C109.151 158.092 108.954 158.014 108.788 157.858C108.625 157.703 108.544 157.515 108.544 157.297C108.544 157.078 108.625 156.891 108.788 156.735C108.954 156.579 109.151 156.501 109.379 156.501C109.608 156.501 109.804 156.579 109.966 156.735C110.132 156.891 110.215 157.078 110.215 157.297C110.215 157.515 110.132 157.703 109.966 157.858C109.804 158.014 109.608 158.092 109.379 158.092ZM113.278 156.819V167.001H112.105V156.819H113.278ZM115.427 167.001V159.365H116.601V167.001H115.427ZM116.024 158.092C115.795 158.092 115.598 158.014 115.432 157.858C115.27 157.703 115.189 157.515 115.189 157.297C115.189 157.078 115.27 156.891 115.432 156.735C115.598 156.579 115.795 156.501 116.024 156.501C116.253 156.501 116.448 156.579 116.611 156.735C116.776 156.891 116.859 157.078 116.859 157.297C116.859 157.515 116.776 157.703 116.611 157.858C116.448 158.014 116.253 158.092 116.024 158.092ZM124.159 161.075L123.105 161.373C123.038 161.198 122.941 161.027 122.811 160.861C122.685 160.692 122.513 160.553 122.294 160.444C122.076 160.334 121.796 160.28 121.454 160.28C120.987 160.28 120.597 160.387 120.286 160.603C119.978 160.815 119.824 161.085 119.824 161.413C119.824 161.705 119.93 161.935 120.142 162.104C120.354 162.273 120.685 162.414 121.136 162.527L122.27 162.805C122.952 162.971 123.461 163.224 123.796 163.566C124.131 163.904 124.298 164.34 124.298 164.873C124.298 165.311 124.172 165.702 123.92 166.047C123.672 166.391 123.324 166.663 122.876 166.862C122.429 167.061 121.908 167.16 121.315 167.16C120.536 167.16 119.891 166.991 119.381 166.653C118.871 166.315 118.547 165.821 118.412 165.172L119.525 164.893C119.631 165.304 119.832 165.612 120.127 165.818C120.425 166.023 120.815 166.126 121.295 166.126C121.842 166.126 122.276 166.01 122.598 165.778C122.922 165.543 123.085 165.261 123.085 164.933C123.085 164.668 122.992 164.446 122.806 164.267C122.621 164.084 122.336 163.949 121.951 163.859L120.679 163.561C119.979 163.395 119.466 163.138 119.137 162.79C118.813 162.439 118.65 162 118.65 161.473C118.65 161.042 118.771 160.661 119.013 160.329C119.258 159.998 119.592 159.738 120.012 159.549C120.437 159.36 120.917 159.265 121.454 159.265C122.21 159.265 122.803 159.431 123.234 159.762C123.668 160.094 123.976 160.531 124.159 161.075ZM126.064 167.001V159.365H127.237V167.001H126.064ZM126.661 158.092C126.432 158.092 126.235 158.014 126.069 157.858C125.907 157.703 125.825 157.515 125.825 157.297C125.825 157.078 125.907 156.891 126.069 156.735C126.235 156.579 126.432 156.501 126.661 156.501C126.889 156.501 127.085 156.579 127.247 156.735C127.413 156.891 127.496 157.078 127.496 157.297C127.496 157.515 127.413 157.703 127.247 157.858C127.085 158.014 126.889 158.092 126.661 158.092ZM134.795 161.075L133.741 161.373C133.675 161.198 133.577 161.027 133.448 160.861C133.322 160.692 133.15 160.553 132.931 160.444C132.712 160.334 132.432 160.28 132.091 160.28C131.624 160.28 131.234 160.387 130.923 160.603C130.614 160.815 130.46 161.085 130.46 161.413C130.46 161.705 130.566 161.935 130.778 162.104C130.991 162.273 131.322 162.414 131.773 162.527L132.906 162.805C133.589 162.971 134.098 163.224 134.433 163.566C134.767 163.904 134.935 164.34 134.935 164.873C134.935 165.311 134.809 165.702 134.557 166.047C134.308 166.391 133.96 166.663 133.513 166.862C133.065 167.061 132.545 167.16 131.952 167.16C131.173 167.16 130.528 166.991 130.018 166.653C129.507 166.315 129.184 165.821 129.048 165.172L130.162 164.893C130.268 165.304 130.469 165.612 130.763 165.818C131.062 166.023 131.451 166.126 131.932 166.126C132.479 166.126 132.913 166.01 133.234 165.778C133.559 165.543 133.722 165.261 133.722 164.933C133.722 164.668 133.629 164.446 133.443 164.267C133.258 164.084 132.973 163.949 132.588 163.859L131.315 163.561C130.616 163.395 130.102 163.138 129.774 162.79C129.449 162.439 129.287 162 129.287 161.473C129.287 161.042 129.408 160.661 129.65 160.329C129.895 159.998 130.228 159.738 130.649 159.549C131.073 159.36 131.554 159.265 132.091 159.265C132.847 159.265 133.44 159.431 133.871 159.762C134.305 160.094 134.613 160.531 134.795 161.075ZM142.567 169.686C141.553 169.686 140.657 169.547 139.878 169.268C139.099 168.993 138.444 168.587 137.914 168.05C137.384 167.513 136.983 166.855 136.711 166.076C136.439 165.298 136.303 164.406 136.303 163.402C136.303 162.431 136.441 161.562 136.716 160.797C136.994 160.031 137.397 159.381 137.924 158.848C138.454 158.311 139.097 157.901 139.853 157.62C140.612 157.338 141.47 157.197 142.428 157.197C143.359 157.197 144.175 157.35 144.874 157.655C145.577 157.956 146.163 158.365 146.634 158.882C147.108 159.396 147.463 159.975 147.698 160.618C147.937 161.261 148.056 161.923 148.056 162.606C148.056 163.087 148.033 163.574 147.986 164.068C147.94 164.562 147.842 165.016 147.693 165.43C147.544 165.841 147.314 166.173 147.002 166.424C146.694 166.676 146.276 166.802 145.749 166.802C145.517 166.802 145.262 166.766 144.983 166.693C144.705 166.62 144.458 166.499 144.243 166.33C144.027 166.161 143.9 165.934 143.86 165.649H143.8C143.721 165.841 143.598 166.023 143.432 166.196C143.27 166.368 143.056 166.506 142.791 166.608C142.529 166.711 142.209 166.756 141.831 166.743C141.401 166.726 141.021 166.63 140.693 166.454C140.365 166.275 140.09 166.033 139.868 165.728C139.649 165.42 139.483 165.064 139.371 164.659C139.261 164.252 139.206 163.813 139.206 163.342C139.206 162.895 139.273 162.485 139.405 162.114C139.538 161.743 139.722 161.418 139.957 161.14C140.196 160.861 140.474 160.639 140.792 160.473C141.114 160.304 141.46 160.2 141.831 160.16C142.163 160.127 142.465 160.142 142.736 160.205C143.008 160.265 143.232 160.356 143.407 160.478C143.583 160.598 143.694 160.73 143.741 160.876H143.8V160.319H144.854V164.814C144.854 165.092 144.932 165.337 145.088 165.549C145.244 165.762 145.471 165.868 145.769 165.868C146.107 165.868 146.366 165.752 146.545 165.52C146.727 165.288 146.851 164.93 146.917 164.446C146.987 163.962 147.022 163.342 147.022 162.586C147.022 162.142 146.961 161.705 146.838 161.274C146.719 160.84 146.536 160.434 146.291 160.056C146.049 159.678 145.742 159.345 145.371 159.056C145 158.768 144.564 158.543 144.064 158.38C143.567 158.215 143.001 158.132 142.368 158.132C141.59 158.132 140.892 158.253 140.275 158.495C139.662 158.733 139.14 159.083 138.709 159.544C138.282 160.001 137.955 160.558 137.73 161.214C137.508 161.867 137.397 162.61 137.397 163.441C137.397 164.287 137.508 165.037 137.73 165.694C137.955 166.35 138.287 166.903 138.724 167.354C139.165 167.805 139.71 168.146 140.36 168.378C141.01 168.614 141.759 168.731 142.607 168.731C142.972 168.731 143.331 168.696 143.686 168.627C144.041 168.557 144.354 168.481 144.626 168.398C144.897 168.315 145.093 168.254 145.212 168.214L145.491 169.129C145.285 169.215 145.017 169.301 144.685 169.387C144.357 169.474 144.006 169.545 143.631 169.601C143.26 169.658 142.905 169.686 142.567 169.686ZM141.991 165.728C142.435 165.728 142.794 165.639 143.069 165.46C143.345 165.281 143.545 165.011 143.671 164.65C143.797 164.288 143.86 163.833 143.86 163.282C143.86 162.726 143.79 162.291 143.651 161.98C143.512 161.668 143.306 161.449 143.035 161.324C142.763 161.198 142.428 161.135 142.03 161.135C141.653 161.135 141.329 161.234 141.061 161.433C140.796 161.628 140.592 161.89 140.449 162.218C140.31 162.543 140.241 162.898 140.241 163.282C140.241 163.707 140.297 164.106 140.41 164.481C140.522 164.852 140.706 165.153 140.961 165.385C141.217 165.614 141.56 165.728 141.991 165.728ZM153.014 167.16C152.278 167.16 151.643 166.998 151.11 166.673C150.579 166.345 150.17 165.887 149.882 165.301C149.597 164.711 149.454 164.025 149.454 163.243C149.454 162.46 149.597 161.771 149.882 161.174C150.17 160.574 150.571 160.107 151.085 159.772C151.602 159.434 152.205 159.265 152.895 159.265C153.292 159.265 153.685 159.332 154.073 159.464C154.461 159.597 154.814 159.812 155.132 160.11C155.45 160.405 155.703 160.797 155.892 161.284C156.081 161.771 156.176 162.371 156.176 163.083V163.581H150.289V162.566H154.983C154.983 162.136 154.896 161.751 154.724 161.413C154.555 161.075 154.313 160.808 153.998 160.613C153.687 160.417 153.319 160.319 152.895 160.319C152.427 160.319 152.023 160.435 151.681 160.667C151.343 160.896 151.083 161.194 150.901 161.562C150.719 161.93 150.627 162.324 150.627 162.745V163.422C150.627 163.998 150.727 164.487 150.926 164.888C151.128 165.286 151.408 165.589 151.766 165.798C152.124 166.003 152.54 166.106 153.014 166.106C153.322 166.106 153.6 166.063 153.849 165.977C154.101 165.887 154.318 165.755 154.5 165.579C154.683 165.4 154.824 165.178 154.923 164.913L156.056 165.231C155.937 165.616 155.737 165.954 155.455 166.245C155.173 166.534 154.825 166.759 154.411 166.922C153.997 167.081 153.531 167.16 153.014 167.16ZM157.961 167.001V159.365H159.094V160.558H159.194C159.353 160.15 159.609 159.834 159.964 159.608C160.319 159.38 160.745 159.265 161.242 159.265C161.746 159.265 162.165 159.38 162.5 159.608C162.838 159.834 163.101 160.15 163.29 160.558H163.37C163.565 160.164 163.859 159.85 164.25 159.618C164.641 159.383 165.11 159.265 165.657 159.265C166.339 159.265 166.898 159.479 167.332 159.907C167.766 160.331 167.983 160.992 167.983 161.89V167.001H166.81V161.89C166.81 161.327 166.656 160.924 166.348 160.682C166.039 160.44 165.676 160.319 165.259 160.319C164.722 160.319 164.306 160.482 164.011 160.806C163.716 161.128 163.569 161.536 163.569 162.03V167.001H162.375V161.771C162.375 161.337 162.234 160.987 161.953 160.722C161.671 160.454 161.308 160.319 160.864 160.319C160.559 160.319 160.274 160.4 160.009 160.563C159.747 160.725 159.535 160.951 159.373 161.239C159.213 161.524 159.134 161.854 159.134 162.228V167.001H157.961ZM172.376 167.18C171.892 167.18 171.453 167.089 171.058 166.907C170.664 166.721 170.351 166.454 170.119 166.106C169.887 165.755 169.771 165.331 169.771 164.833C169.771 164.396 169.857 164.041 170.029 163.77C170.201 163.494 170.432 163.279 170.72 163.123C171.009 162.967 171.327 162.851 171.675 162.775C172.026 162.696 172.379 162.633 172.734 162.586C173.198 162.527 173.574 162.482 173.862 162.452C174.154 162.419 174.366 162.364 174.499 162.288C174.634 162.212 174.702 162.079 174.702 161.89V161.851C174.702 161.36 174.568 160.979 174.3 160.707C174.035 160.435 173.632 160.299 173.092 160.299C172.531 160.299 172.092 160.422 171.774 160.667C171.456 160.913 171.232 161.174 171.103 161.453L169.989 161.055C170.188 160.591 170.453 160.23 170.785 159.971C171.12 159.709 171.484 159.527 171.879 159.424C172.276 159.318 172.667 159.265 173.052 159.265C173.297 159.265 173.579 159.295 173.897 159.355C174.219 159.411 174.528 159.529 174.827 159.708C175.128 159.887 175.379 160.157 175.577 160.518C175.776 160.879 175.876 161.363 175.876 161.97V167.001H174.702V165.967H174.643C174.563 166.133 174.431 166.31 174.245 166.499C174.059 166.688 173.813 166.849 173.504 166.981C173.196 167.114 172.82 167.18 172.376 167.18ZM172.555 166.126C173.019 166.126 173.41 166.035 173.728 165.853C174.049 165.67 174.291 165.435 174.454 165.147C174.62 164.858 174.702 164.555 174.702 164.237V163.163C174.653 163.223 174.543 163.277 174.374 163.327C174.209 163.373 174.016 163.415 173.798 163.451C173.582 163.485 173.372 163.514 173.166 163.541C172.964 163.564 172.8 163.584 172.674 163.601C172.369 163.64 172.084 163.705 171.819 163.794C171.557 163.881 171.345 164.012 171.183 164.187C171.023 164.36 170.944 164.595 170.944 164.893C170.944 165.301 171.095 165.609 171.396 165.818C171.701 166.023 172.087 166.126 172.555 166.126ZM178.017 167.001V159.365H179.191V167.001H178.017ZM178.614 158.092C178.385 158.092 178.188 158.014 178.022 157.858C177.86 157.703 177.779 157.515 177.779 157.297C177.779 157.078 177.86 156.891 178.022 156.735C178.188 156.579 178.385 156.501 178.614 156.501C178.843 156.501 179.038 156.579 179.2 156.735C179.366 156.891 179.449 157.078 179.449 157.297C179.449 157.515 179.366 157.703 179.2 157.858C179.038 158.014 178.843 158.092 178.614 158.092ZM182.513 156.819V167.001H181.339V156.819H182.513ZM185.517 167.081C185.272 167.081 185.061 166.993 184.885 166.817C184.71 166.641 184.622 166.431 184.622 166.186C184.622 165.94 184.71 165.73 184.885 165.554C185.061 165.379 185.272 165.291 185.517 165.291C185.762 165.291 185.973 165.379 186.148 165.554C186.324 165.73 186.412 165.94 186.412 166.186C186.412 166.348 186.37 166.497 186.287 166.633C186.208 166.769 186.1 166.878 185.964 166.961C185.832 167.041 185.683 167.081 185.517 167.081ZM191.619 167.16C190.904 167.16 190.287 166.991 189.77 166.653C189.253 166.315 188.855 165.849 188.577 165.256C188.298 164.663 188.159 163.985 188.159 163.223C188.159 162.447 188.302 161.763 188.587 161.169C188.875 160.573 189.276 160.107 189.79 159.772C190.307 159.434 190.91 159.265 191.6 159.265C192.137 159.265 192.62 159.365 193.051 159.564C193.482 159.762 193.835 160.041 194.11 160.399C194.385 160.757 194.556 161.174 194.622 161.652H193.449C193.36 161.304 193.161 160.995 192.852 160.727C192.548 160.455 192.137 160.319 191.619 160.319C191.162 160.319 190.761 160.439 190.416 160.677C190.075 160.913 189.808 161.246 189.616 161.677C189.427 162.104 189.333 162.606 189.333 163.183C189.333 163.773 189.425 164.287 189.611 164.724C189.8 165.162 190.065 165.501 190.406 165.743C190.751 165.985 191.155 166.106 191.619 166.106C191.924 166.106 192.201 166.053 192.45 165.947C192.698 165.841 192.909 165.689 193.081 165.49C193.253 165.291 193.376 165.052 193.449 164.774H194.622C194.556 165.225 194.392 165.631 194.13 165.992C193.872 166.35 193.529 166.635 193.101 166.847C192.677 167.056 192.183 167.16 191.619 167.16ZM199.44 167.16C198.75 167.16 198.146 166.996 197.625 166.668C197.108 166.34 196.704 165.881 196.412 165.291C196.124 164.701 195.98 164.012 195.98 163.223C195.98 162.427 196.124 161.733 196.412 161.14C196.704 160.546 197.108 160.086 197.625 159.757C198.146 159.429 198.75 159.265 199.44 159.265C200.129 159.265 200.732 159.429 201.249 159.757C201.77 160.086 202.174 160.546 202.463 161.14C202.754 161.733 202.9 162.427 202.9 163.223C202.9 164.012 202.754 164.701 202.463 165.291C202.174 165.881 201.77 166.34 201.249 166.668C200.732 166.996 200.129 167.16 199.44 167.16ZM199.44 166.106C199.963 166.106 200.394 165.972 200.732 165.704C201.07 165.435 201.321 165.082 201.483 164.645C201.646 164.207 201.727 163.733 201.727 163.223C201.727 162.712 201.646 162.237 201.483 161.796C201.321 161.355 201.07 160.999 200.732 160.727C200.394 160.455 199.963 160.319 199.44 160.319C198.916 160.319 198.485 160.455 198.147 160.727C197.809 160.999 197.559 161.355 197.396 161.796C197.234 162.237 197.153 162.712 197.153 163.223C197.153 163.733 197.234 164.207 197.396 164.645C197.559 165.082 197.809 165.435 198.147 165.704C198.485 165.972 198.916 166.106 199.44 166.106ZM204.691 167.001V159.365H205.825V160.558H205.924C206.083 160.15 206.34 159.834 206.695 159.608C207.049 159.38 207.475 159.265 207.972 159.265C208.476 159.265 208.895 159.38 209.23 159.608C209.568 159.834 209.832 160.15 210.021 160.558H210.1C210.296 160.164 210.589 159.85 210.98 159.618C211.371 159.383 211.84 159.265 212.387 159.265C213.07 159.265 213.628 159.479 214.062 159.907C214.497 160.331 214.714 160.992 214.714 161.89V167.001H213.54V161.89C213.54 161.327 213.386 160.924 213.078 160.682C212.77 160.44 212.407 160.319 211.989 160.319C211.452 160.319 211.036 160.482 210.741 160.806C210.446 161.128 210.299 161.536 210.299 162.03V167.001H209.106V161.771C209.106 161.337 208.965 160.987 208.683 160.722C208.402 160.454 208.039 160.319 207.594 160.319C207.29 160.319 207.004 160.4 206.739 160.563C206.478 160.725 206.265 160.951 206.103 161.239C205.944 161.524 205.864 161.854 205.864 162.228V167.001H204.691Z" fill="#F6F6F7"/>
<path d="M29.1932 204.998C29.0838 204.663 28.9396 204.363 28.7607 204.098C28.585 203.83 28.3745 203.601 28.1293 203.412C27.8873 203.223 27.6122 203.079 27.304 202.98C26.9957 202.88 26.6577 202.83 26.2898 202.83C25.6866 202.83 25.138 202.986 24.6442 203.298C24.1503 203.609 23.7576 204.068 23.4659 204.675C23.1742 205.281 23.0284 206.026 23.0284 206.907C23.0284 207.789 23.1759 208.533 23.4709 209.139C23.7659 209.746 24.1652 210.205 24.669 210.517C25.1728 210.828 25.7396 210.984 26.3693 210.984C26.9527 210.984 27.4664 210.86 27.9105 210.611C28.358 210.359 28.706 210.004 28.9545 209.547C29.2064 209.086 29.3324 208.544 29.3324 207.921L29.7102 208.001H26.6477V206.907H30.5256V208.001C30.5256 208.839 30.3466 209.569 29.9886 210.188C29.634 210.808 29.1435 211.289 28.517 211.63C27.8939 211.968 27.178 212.137 26.3693 212.137C25.4678 212.137 24.6757 211.925 23.9929 211.501C23.3134 211.077 22.7831 210.473 22.402 209.691C22.0241 208.909 21.8352 207.981 21.8352 206.907C21.8352 206.102 21.9429 205.378 22.1584 204.735C22.3771 204.088 22.6854 203.538 23.0831 203.084C23.4808 202.63 23.9515 202.282 24.495 202.04C25.0386 201.798 25.6368 201.677 26.2898 201.677C26.8267 201.677 27.3272 201.758 27.7912 201.921C28.2585 202.08 28.6745 202.307 29.0391 202.602C29.407 202.893 29.7135 203.243 29.9588 203.651C30.2041 204.055 30.3731 204.504 30.4659 204.998H29.1932ZM32.9567 211.998V204.362H34.13V211.998H32.9567ZM33.5533 203.089C33.3246 203.089 33.1274 203.011 32.9616 202.855C32.7992 202.7 32.718 202.512 32.718 202.294C32.718 202.075 32.7992 201.887 32.9616 201.732C33.1274 201.576 33.3246 201.498 33.5533 201.498C33.782 201.498 33.9775 201.576 34.1399 201.732C34.3056 201.887 34.3885 202.075 34.3885 202.294C34.3885 202.512 34.3056 202.7 34.1399 202.855C33.9775 203.011 33.782 203.089 33.5533 203.089ZM37.4522 201.816V211.998H36.2789V201.816H37.4522ZM39.6012 211.998V204.362H40.7745V211.998H39.6012ZM40.1978 203.089C39.9691 203.089 39.7719 203.011 39.6062 202.855C39.4438 202.7 39.3626 202.512 39.3626 202.294C39.3626 202.075 39.4438 201.887 39.6062 201.732C39.7719 201.576 39.9691 201.498 40.1978 201.498C40.4265 201.498 40.622 201.576 40.7844 201.732C40.9502 201.887 41.033 202.075 41.033 202.294C41.033 202.512 40.9502 202.7 40.7844 202.855C40.622 203.011 40.4265 203.089 40.1978 203.089ZM48.3326 206.072L47.2786 206.37C47.2123 206.195 47.1145 206.024 46.9853 205.858C46.8593 205.689 46.687 205.55 46.4682 205.441C46.2495 205.331 45.9694 205.276 45.628 205.276C45.1607 205.276 44.7712 205.384 44.4597 205.6C44.1515 205.812 43.9973 206.082 43.9973 206.41C43.9973 206.702 44.1034 206.932 44.3155 207.101C44.5276 207.27 44.8591 207.411 45.3098 207.524L46.4434 207.802C47.1261 207.968 47.6349 208.221 47.9696 208.563C48.3044 208.901 48.4718 209.337 48.4718 209.87C48.4718 210.308 48.3458 210.699 48.0939 211.044C47.8453 211.388 47.4973 211.66 47.0499 211.859C46.6025 212.058 46.0821 212.157 45.4888 212.157C44.7099 212.157 44.0653 211.988 43.5549 211.65C43.0444 211.312 42.7213 210.818 42.5854 210.169L43.699 209.89C43.8051 210.301 44.0056 210.609 44.3006 210.815C44.5989 211.02 44.9883 211.123 45.4689 211.123C46.0158 211.123 46.45 211.007 46.7715 210.775C47.0963 210.54 47.2587 210.258 47.2587 209.93C47.2587 209.665 47.1659 209.443 46.9803 209.264C46.7947 209.081 46.5096 208.945 46.1252 208.856L44.8525 208.558C44.1531 208.392 43.6394 208.135 43.3113 207.787C42.9864 207.436 42.824 206.997 42.824 206.47C42.824 206.039 42.945 205.658 43.187 205.326C43.4322 204.995 43.7653 204.735 44.1863 204.546C44.6105 204.357 45.0911 204.262 45.628 204.262C46.3837 204.262 46.977 204.428 47.4078 204.759C47.842 205.091 48.1503 205.528 48.3326 206.072ZM50.2379 211.998V204.362H51.4112V211.998H50.2379ZM50.8345 203.089C50.6058 203.089 50.4086 203.011 50.2429 202.855C50.0805 202.7 49.9993 202.512 49.9993 202.294C49.9993 202.075 50.0805 201.887 50.2429 201.732C50.4086 201.576 50.6058 201.498 50.8345 201.498C51.0632 201.498 51.2588 201.576 51.4212 201.732C51.5869 201.887 51.6697 202.075 51.6697 202.294C51.6697 202.512 51.5869 202.7 51.4212 202.855C51.2588 203.011 51.0632 203.089 50.8345 203.089ZM58.9693 206.072L57.9153 206.37C57.849 206.195 57.7512 206.024 57.622 205.858C57.496 205.689 57.3237 205.55 57.1049 205.441C56.8862 205.331 56.6061 205.276 56.2647 205.276C55.7974 205.276 55.408 205.384 55.0964 205.6C54.7882 205.812 54.6341 206.082 54.6341 206.41C54.6341 206.702 54.7401 206.932 54.9522 207.101C55.1644 207.27 55.4958 207.411 55.9466 207.524L57.0801 207.802C57.7628 207.968 58.2716 208.221 58.6064 208.563C58.9411 208.901 59.1085 209.337 59.1085 209.87C59.1085 210.308 58.9825 210.699 58.7306 211.044C58.4821 211.388 58.1341 211.66 57.6866 211.859C57.2392 212.058 56.7188 212.157 56.1255 212.157C55.3467 212.157 54.702 211.988 54.1916 211.65C53.6812 211.312 53.358 210.818 53.2221 210.169L54.3358 209.89C54.4418 210.301 54.6423 210.609 54.9373 210.815C55.2356 211.02 55.6251 211.123 56.1056 211.123C56.6525 211.123 57.0867 211.007 57.4082 210.775C57.733 210.54 57.8954 210.258 57.8954 209.93C57.8954 209.665 57.8026 209.443 57.617 209.264C57.4314 209.081 57.1464 208.945 56.7619 208.856L55.4892 208.558C54.7898 208.392 54.2761 208.135 53.948 207.787C53.6232 207.436 53.4608 206.997 53.4608 206.47C53.4608 206.039 53.5817 205.658 53.8237 205.326C54.069 204.995 54.402 204.735 54.823 204.546C55.2472 204.357 55.7278 204.262 56.2647 204.262C57.0204 204.262 57.6137 204.428 58.0446 204.759C58.4788 205.091 58.787 205.528 58.9693 206.072Z" fill="#F6F6F7"/>
<line x1="21" y1="88.4999" x2="397" y2="88.4999" stroke="#282D45"/>
<path d="M21.6761 66.9111V65.8174H29.3125V66.9111H26.1108V75.9992H24.8778V66.9111H21.6761ZM33.0511 76.1583C32.3617 76.1583 31.7569 75.9942 31.2365 75.6661C30.7195 75.338 30.3151 74.8789 30.0234 74.289C29.7351 73.699 29.5909 73.0096 29.5909 72.2208C29.5909 71.4253 29.7351 70.731 30.0234 70.1377C30.3151 69.5444 30.7195 69.0837 31.2365 68.7556C31.7569 68.4275 32.3617 68.2634 33.0511 68.2634C33.7405 68.2634 34.3438 68.4275 34.8608 68.7556C35.3812 69.0837 35.7855 69.5444 36.0739 70.1377C36.3655 70.731 36.5114 71.4253 36.5114 72.2208C36.5114 73.0096 36.3655 73.699 36.0739 74.289C35.7855 74.8789 35.3812 75.338 34.8608 75.6661C34.3438 75.9942 33.7405 76.1583 33.0511 76.1583ZM33.0511 75.1043C33.5748 75.1043 34.0057 74.9701 34.3438 74.7016C34.6818 74.4332 34.9321 74.0802 35.0945 73.6427C35.2569 73.2052 35.3381 72.7312 35.3381 72.2208C35.3381 71.7104 35.2569 71.2348 35.0945 70.794C34.9321 70.3531 34.6818 69.9968 34.3438 69.7251C34.0057 69.4533 33.5748 69.3174 33.0511 69.3174C32.5275 69.3174 32.0966 69.4533 31.7585 69.7251C31.4205 69.9968 31.1702 70.3531 31.0078 70.794C30.8454 71.2348 30.7642 71.7104 30.7642 72.2208C30.7642 72.7312 30.8454 73.2052 31.0078 73.6427C31.1702 74.0802 31.4205 74.4332 31.7585 74.7016C32.0966 74.9701 32.5275 75.1043 33.0511 75.1043Z" fill="#8F9BB7"/>
<rect x="55" y="59.0002" width="85" height="24" rx="12" fill="#282D45"/>
<path d="M70.8295 68.4547C70.7784 68.0229 70.571 67.6877 70.2074 67.449C69.8438 67.2104 69.3977 67.0911 68.8693 67.0911C68.483 67.0911 68.1449 67.1536 67.8551 67.2786C67.5682 67.4036 67.3438 67.5755 67.1818 67.7942C67.0227 68.013 66.9432 68.2615 66.9432 68.54C66.9432 68.7729 66.9986 68.9732 67.1094 69.1408C67.223 69.3056 67.3679 69.4434 67.544 69.5542C67.7202 69.6621 67.9048 69.7516 68.098 69.8226C68.2912 69.8908 68.4688 69.9462 68.6307 69.9888L69.517 70.2275C69.7443 70.2871 69.9972 70.3695 70.2756 70.4746C70.5568 70.5797 70.8253 70.7232 71.081 70.905C71.3395 71.084 71.5526 71.3141 71.7202 71.5954C71.8878 71.8766 71.9716 72.2218 71.9716 72.6309C71.9716 73.1025 71.848 73.5286 71.6009 73.9093C71.3565 74.29 70.9986 74.5925 70.527 74.8169C70.0582 75.0414 69.4886 75.1536 68.8182 75.1536C68.1932 75.1536 67.652 75.0527 67.1946 74.851C66.7401 74.6493 66.3821 74.3681 66.1207 74.0073C65.8622 73.6465 65.7159 73.2275 65.6818 72.7502H66.7727C66.8011 73.0797 66.9119 73.3525 67.1051 73.5684C67.3011 73.7814 67.5483 73.9405 67.8466 74.0456C68.1477 74.1479 68.4716 74.199 68.8182 74.199C69.2216 74.199 69.5838 74.1337 69.9048 74.003C70.2259 73.8695 70.4801 73.6848 70.6676 73.449C70.8551 73.2104 70.9489 72.932 70.9489 72.6138C70.9489 72.324 70.8679 72.0883 70.706 71.9064C70.544 71.7246 70.331 71.5769 70.0668 71.4633C69.8026 71.3496 69.517 71.2502 69.2102 71.165L68.1364 70.8581C67.4545 70.6621 66.9148 70.3823 66.517 70.0186C66.1193 69.655 65.9205 69.1792 65.9205 68.5911C65.9205 68.1025 66.0526 67.6763 66.3168 67.3127C66.5838 66.9462 66.9418 66.6621 67.3906 66.4604C67.8423 66.2559 68.3466 66.1536 68.9034 66.1536C69.4659 66.1536 69.9659 66.2544 70.4034 66.4561C70.8409 66.655 71.1875 66.9277 71.4432 67.2743C71.7017 67.6209 71.8381 68.0144 71.8523 68.4547H70.8295ZM75.4989 75.1536C75.0842 75.1536 74.7077 75.0755 74.3697 74.9192C74.0316 74.7601 73.7631 74.5314 73.5643 74.2331C73.3654 73.932 73.266 73.5684 73.266 73.1422C73.266 72.7672 73.3398 72.4633 73.4876 72.2303C73.6353 71.9945 73.8327 71.8098 74.0799 71.6763C74.3271 71.5428 74.5998 71.4434 74.8981 71.378C75.1992 71.3098 75.5018 71.2559 75.8058 71.2161C76.2035 71.165 76.5259 71.1266 76.7731 71.101C77.0231 71.0726 77.2049 71.0258 77.3185 70.9604C77.435 70.8951 77.4933 70.7814 77.4933 70.6195V70.5854C77.4933 70.165 77.3782 69.8383 77.1481 69.6053C76.9208 69.3723 76.5756 69.2559 76.1126 69.2559C75.6325 69.2559 75.256 69.361 74.9833 69.5712C74.7106 69.7814 74.5188 70.0059 74.408 70.2445L73.4535 69.9036C73.6239 69.5059 73.8512 69.1962 74.1353 68.9746C74.4222 68.7502 74.7347 68.5939 75.0728 68.5059C75.4137 68.415 75.7489 68.3695 76.0785 68.3695C76.2887 68.3695 76.5302 68.3951 76.8029 68.4462C77.0785 68.4945 77.3441 68.5954 77.5998 68.7488C77.8583 68.9022 78.0728 69.1337 78.2433 69.4434C78.4137 69.753 78.4989 70.1678 78.4989 70.6877V75.0002H77.4933V74.1138H77.4421C77.3739 74.2559 77.2603 74.4079 77.1012 74.5698C76.9421 74.7317 76.7305 74.8695 76.4663 74.9831C76.2021 75.0968 75.8796 75.1536 75.4989 75.1536ZM75.6523 74.2502C76.0501 74.2502 76.3853 74.1721 76.658 74.0158C76.9336 73.8596 77.141 73.6579 77.2802 73.4107C77.4222 73.1635 77.4933 72.9036 77.4933 72.6309V71.7104C77.4506 71.7615 77.3569 71.8084 77.212 71.851C77.07 71.8908 76.9052 71.9263 76.7177 71.9576C76.533 71.986 76.3526 72.0115 76.1765 72.0343C76.0032 72.0542 75.8626 72.0712 75.7546 72.0854C75.4933 72.1195 75.2489 72.1749 75.0217 72.2516C74.7972 72.3255 74.6154 72.4377 74.4762 72.5883C74.3398 72.736 74.2717 72.9377 74.2717 73.1934C74.2717 73.5428 74.4009 73.807 74.6594 73.986C74.9208 74.1621 75.2518 74.2502 75.6523 74.2502ZM80.3345 68.4547H81.3402V75.4775C81.3402 75.8809 81.2706 76.2303 81.1314 76.5258C80.995 76.8212 80.7876 77.0499 80.5092 77.2118C80.2337 77.3738 79.8857 77.4547 79.4652 77.4547C79.4311 77.4547 79.397 77.4547 79.3629 77.4547C79.3288 77.4547 79.2947 77.4547 79.2607 77.4547V76.5172C79.2947 76.5172 79.326 76.5172 79.3544 76.5172C79.3828 76.5172 79.4141 76.5172 79.4482 76.5172C79.755 76.5172 79.9794 76.4263 80.1214 76.2445C80.2635 76.0655 80.3345 75.8098 80.3345 75.4775V68.4547ZM80.8288 67.3638C80.6328 67.3638 80.4638 67.2971 80.3217 67.1635C80.1825 67.03 80.1129 66.8695 80.1129 66.682C80.1129 66.4945 80.1825 66.334 80.3217 66.2005C80.4638 66.0669 80.6328 66.0002 80.8288 66.0002C81.0249 66.0002 81.1925 66.0669 81.3317 66.2005C81.4737 66.334 81.5447 66.4945 81.5447 66.682C81.5447 66.8695 81.4737 67.03 81.3317 67.1635C81.1925 67.2971 81.0249 67.3638 80.8288 67.3638ZM83.1822 75.0002V68.4547H84.1879V75.0002H83.1822ZM83.6935 67.3638C83.4975 67.3638 83.3285 67.2971 83.1864 67.1635C83.0472 67.03 82.9776 66.8695 82.9776 66.682C82.9776 66.4945 83.0472 66.334 83.1864 66.2005C83.3285 66.0669 83.4975 66.0002 83.6935 66.0002C83.8896 66.0002 84.0572 66.0669 84.1964 66.2005C84.3384 66.334 84.4094 66.4945 84.4094 66.682C84.4094 66.8695 84.3384 67.03 84.1964 67.1635C84.0572 67.2971 83.8896 67.3638 83.6935 67.3638ZM86.1662 75.0002V66.2729H87.1719V69.4945H87.2571C87.331 69.3809 87.4332 69.236 87.5639 69.0598C87.6974 68.8809 87.8878 68.7218 88.1349 68.5826C88.3849 68.4405 88.723 68.3695 89.1491 68.3695C89.7003 68.3695 90.1861 68.5073 90.6065 68.7829C91.027 69.0584 91.3551 69.449 91.5909 69.9547C91.8267 70.4604 91.9446 71.057 91.9446 71.7445C91.9446 72.4377 91.8267 73.0385 91.5909 73.5471C91.3551 74.0527 91.0284 74.4448 90.6108 74.7232C90.1932 74.9988 89.7116 75.1365 89.1662 75.1365C88.7457 75.1365 88.4091 75.0669 88.1562 74.9277C87.9034 74.7857 87.7088 74.6252 87.5724 74.4462C87.4361 74.2644 87.331 74.1138 87.2571 73.9945H87.1378V75.0002H86.1662ZM87.1548 71.7275C87.1548 72.2218 87.2273 72.6579 87.3722 73.0357C87.517 73.4107 87.7287 73.7047 88.0071 73.9178C88.2855 74.128 88.6264 74.2331 89.0298 74.2331C89.4503 74.2331 89.8011 74.1223 90.0824 73.9008C90.3665 73.6763 90.5795 73.3752 90.7216 72.9973C90.8665 72.6167 90.9389 72.1934 90.9389 71.7275C90.9389 71.2672 90.8679 70.8525 90.7259 70.4831C90.5866 70.111 90.375 69.8169 90.0909 69.601C89.8097 69.3823 89.456 69.2729 89.0298 69.2729C88.6207 69.2729 88.277 69.3766 87.9986 69.584C87.7202 69.7885 87.5099 70.0755 87.3679 70.4448C87.2259 70.8113 87.1548 71.2388 87.1548 71.7275ZM96.9943 75.0002V66.2729H98.0511V70.1593H102.705V66.2729H103.761V75.0002H102.705V71.0968H98.0511V75.0002H96.9943ZM106.474 75.0684C106.263 75.0684 106.083 74.9931 105.933 74.8425C105.782 74.6919 105.707 74.5115 105.707 74.3013C105.707 74.0911 105.782 73.9107 105.933 73.7601C106.083 73.6096 106.263 73.5343 106.474 73.5343C106.684 73.5343 106.864 73.6096 107.015 73.7601C107.165 73.9107 107.241 74.0911 107.241 74.3013C107.241 74.4405 107.205 74.5684 107.134 74.6848C107.066 74.8013 106.974 74.8951 106.857 74.9661C106.744 75.0343 106.616 75.0684 106.474 75.0684Z" fill="#F6F6F7"/>
<path d="M126 67.0002L118 75.0002" stroke="#8F9BB7" stroke-width="1.5" stroke-linecap="round" stroke-linejoin="round"/>
<path d="M118 67.0002L126 75.0002" stroke="#8F9BB7" stroke-width="1.5" stroke-linecap="round" stroke-linejoin="round"/>
<path d="M344.426 68.9992H343.193C343.12 68.6446 342.993 68.333 342.81 68.0645C342.631 67.7961 342.413 67.5707 342.154 67.3884C341.899 67.2028 341.616 67.0636 341.304 66.9708C340.992 66.878 340.668 66.8316 340.33 66.8316C339.713 66.8316 339.155 66.9874 338.654 67.2989C338.157 67.6105 337.761 68.0695 337.466 68.6761C337.174 69.2826 337.028 70.0267 337.028 70.9083C337.028 71.7899 337.174 72.534 337.466 73.1405C337.761 73.7471 338.157 74.2061 338.654 74.5177C339.155 74.8292 339.713 74.985 340.33 74.985C340.668 74.985 340.992 74.9386 341.304 74.8458C341.616 74.753 341.899 74.6154 342.154 74.4332C342.413 74.2475 342.631 74.0205 342.81 73.752C342.993 73.4803 343.12 73.1687 343.193 72.8174H344.426C344.333 73.3377 344.164 73.8034 343.919 74.2144C343.674 74.6254 343.369 74.9751 343.004 75.2634C342.64 75.5484 342.23 75.7655 341.776 75.9147C341.326 76.0638 340.843 76.1384 340.33 76.1384C339.461 76.1384 338.689 75.9263 338.013 75.502C337.337 75.0778 336.805 74.4746 336.417 73.6924C336.029 72.9102 335.835 71.9822 335.835 70.9083C335.835 69.8344 336.029 68.9064 336.417 68.1242C336.805 67.342 337.337 66.7388 338.013 66.3145C338.689 65.8903 339.461 65.6782 340.33 65.6782C340.843 65.6782 341.326 65.7528 341.776 65.9019C342.23 66.0511 342.64 66.2698 343.004 66.5582C343.369 66.8432 343.674 67.1912 343.919 67.6022C344.164 68.0099 344.333 68.4755 344.426 68.9992ZM354.612 68.9992H353.379C353.306 68.6446 353.178 68.333 352.996 68.0645C352.817 67.7961 352.598 67.5707 352.34 67.3884C352.084 67.2028 351.801 67.0636 351.49 66.9708C351.178 66.878 350.853 66.8316 350.515 66.8316C349.899 66.8316 349.34 66.9874 348.84 67.2989C348.343 67.6105 347.946 68.0695 347.651 68.6761C347.36 69.2826 347.214 70.0267 347.214 70.9083C347.214 71.7899 347.36 72.534 347.651 73.1405C347.946 73.7471 348.343 74.2061 348.84 74.5177C349.34 74.8292 349.899 74.985 350.515 74.985C350.853 74.985 351.178 74.9386 351.49 74.8458C351.801 74.753 352.084 74.6154 352.34 74.4332C352.598 74.2475 352.817 74.0205 352.996 73.752C353.178 73.4803 353.306 73.1687 353.379 72.8174H354.612C354.519 73.3377 354.35 73.8034 354.105 74.2144C353.859 74.6254 353.554 74.9751 353.19 75.2634C352.825 75.5484 352.416 75.7655 351.962 75.9147C351.511 76.0638 351.029 76.1384 350.515 76.1384C349.647 76.1384 348.874 75.9263 348.198 75.502C347.522 75.0778 346.99 74.4746 346.602 73.6924C346.215 72.9102 346.021 71.9822 346.021 70.9083C346.021 69.8344 346.215 68.9064 346.602 68.1242C346.99 67.342 347.522 66.7388 348.198 66.3145C348.874 65.8903 349.647 65.6782 350.515 65.6782C351.029 65.6782 351.511 65.7528 351.962 65.9019C352.416 66.0511 352.825 66.2698 353.19 66.5582C353.554 66.8432 353.859 67.1912 354.105 67.6022C354.35 68.0099 354.519 68.4755 354.612 68.9992Z" fill="#8F9BB7"/>
<path d="M368.233 75.9992V65.8174H371.793C372.502 65.8174 373.087 65.94 373.548 66.1853C374.008 66.4272 374.351 66.7537 374.577 67.1647C374.802 67.5724 374.915 68.0248 374.915 68.5219C374.915 68.9594 374.837 69.3207 374.681 69.6057C374.529 69.8908 374.326 70.1162 374.075 70.2819C373.826 70.4476 373.556 70.5702 373.264 70.6498V70.7492C373.576 70.7691 373.889 70.8785 374.204 71.0773C374.519 71.2762 374.782 71.5612 374.994 71.9324C375.206 72.3037 375.312 72.7577 375.312 73.2947C375.312 73.8051 375.196 74.2641 374.964 74.6718C374.732 75.0795 374.366 75.4026 373.866 75.6413C373.365 75.8799 372.714 75.9992 371.912 75.9992H368.233ZM369.466 74.9055H371.912C372.717 74.9055 373.289 74.7497 373.627 74.4381C373.969 74.1233 374.139 73.7421 374.139 73.2947C374.139 72.95 374.051 72.6318 373.876 72.3401C373.7 72.0451 373.45 71.8098 373.125 71.6341C372.8 71.4552 372.416 71.3657 371.972 71.3657H369.466V74.9055ZM369.466 70.2918H371.753C372.124 70.2918 372.459 70.2189 372.757 70.0731C373.059 69.9272 373.297 69.7217 373.473 69.4566C373.652 69.1914 373.741 68.8799 373.741 68.5219C373.741 68.0745 373.586 67.695 373.274 67.3834C372.963 67.0686 372.469 66.9111 371.793 66.9111H369.466V70.2918ZM385.532 68.9992H384.299C384.226 68.6446 384.098 68.333 383.916 68.0645C383.737 67.7961 383.518 67.5707 383.26 67.3884C383.004 67.2028 382.721 67.0636 382.409 66.9708C382.098 66.878 381.773 66.8316 381.435 66.8316C380.819 66.8316 380.26 66.9874 379.76 67.2989C379.262 67.6105 378.866 68.0695 378.571 68.6761C378.28 69.2826 378.134 70.0267 378.134 70.9083C378.134 71.7899 378.28 72.534 378.571 73.1405C378.866 73.7471 379.262 74.2061 379.76 74.5177C380.26 74.8292 380.819 74.985 381.435 74.985C381.773 74.985 382.098 74.9386 382.409 74.8458C382.721 74.753 383.004 74.6154 383.26 74.4332C383.518 74.2475 383.737 74.0205 383.916 73.752C384.098 73.4803 384.226 73.1687 384.299 72.8174H385.532C385.439 73.3377 385.27 73.8034 385.025 74.2144C384.779 74.6254 384.474 74.9751 384.11 75.2634C383.745 75.5484 383.336 75.7655 382.882 75.9147C382.431 76.0638 381.949 76.1384 381.435 76.1384C380.567 76.1384 379.794 75.9263 379.118 75.502C378.442 75.0778 377.91 74.4746 377.522 73.6924C377.135 72.9102 376.941 71.9822 376.941 70.9083C376.941 69.8344 377.135 68.9064 377.522 68.1242C377.91 67.342 378.442 66.7388 379.118 66.3145C379.794 65.8903 380.567 65.6782 381.435 65.6782C381.949 65.6782 382.431 65.7528 382.882 65.9019C383.336 66.0511 383.745 66.2698 384.11 66.5582C384.474 66.8432 384.779 67.1912 385.025 67.6022C385.27 68.0099 385.439 68.4755 385.532 68.9992ZM395.717 68.9992H394.484C394.411 68.6446 394.284 68.333 394.101 68.0645C393.922 67.7961 393.704 67.5707 393.445 67.3884C393.19 67.2028 392.907 67.0636 392.595 66.9708C392.283 66.878 391.959 66.8316 391.621 66.8316C391.004 66.8316 390.446 66.9874 389.945 67.2989C389.448 67.6105 389.052 68.0695 388.757 68.6761C388.465 69.2826 388.319 70.0267 388.319 70.9083C388.319 71.7899 388.465 72.534 388.757 73.1405C389.052 73.7471 389.448 74.2061 389.945 74.5177C390.446 74.8292 391.004 74.985 391.621 74.985C391.959 74.985 392.283 74.9386 392.595 74.8458C392.907 74.753 393.19 74.6154 393.445 74.4332C393.704 74.2475 393.922 74.0205 394.101 73.752C394.284 73.4803 394.411 73.1687 394.484 72.8174H395.717C395.624 73.3377 395.455 73.8034 395.21 74.2144C394.965 74.6254 394.66 74.9751 394.295 75.2634C393.931 75.5484 393.521 75.7655 393.067 75.9147C392.617 76.0638 392.134 76.1384 391.621 76.1384C390.752 76.1384 389.98 75.9263 389.304 75.502C388.628 75.0778 388.096 74.4746 387.708 73.6924C387.32 72.9102 387.126 71.9822 387.126 70.9083C387.126 69.8344 387.32 68.9064 387.708 68.1242C388.096 67.342 388.628 66.7388 389.304 66.3145C389.98 65.8903 390.752 65.6782 391.621 65.6782C392.134 65.6782 392.617 65.7528 393.067 65.9019C393.521 66.0511 393.931 66.2698 394.295 66.5582C394.66 66.8432 394.965 67.1912 395.21 67.6022C395.455 68.0099 395.624 68.4755 395.717 68.9992Z" fill="#8F9BB7"/>
</g>
</svg>
