<svg width="488" height="211" viewBox="0 0 488 211" fill="none" xmlns="http://www.w3.org/2000/svg">
<mask id="mask0_149_35" style="mask-type:alpha" maskUnits="userSpaceOnUse" x="0" y="0" width="488" height="211">
<rect x="0.5" width="487" height="211" fill="#D9D9D9"/>
</mask>
<g mask="url(#mask0_149_35)">
<rect x="408.5" y="100.956" width="72" height="62.4571" rx="5" fill="#0E1330"/>
<rect x="408.5" y="67.2495" width="72" height="21.8104" rx="5" fill="#0E1330"/>
<rect x="408.5" y="35.5254" width="72" height="21.8104" rx="5" fill="#0E1330"/>
<rect opacity="0.6" x="408.5" y="2.80975" width="20" height="18.8363" rx="5" fill="#B756FE"/>
<rect opacity="0.6" x="435.5" y="2.80975" width="19" height="18.8363" rx="5" fill="#7214FF"/>
<rect opacity="0.6" x="461.5" y="2.80975" width="20" height="18.8363" rx="5" fill="#32CAFD"/>
<rect x="2.5" y="2.80975" width="158" height="86.2503" rx="5" fill="#0E1330"/>
<rect x="16.5" y="15.6976" width="15" height="14.8707" rx="4" fill="#282D45"/>
<rect x="16.5" y="61.3011" width="15" height="14.8707" rx="4" fill="#282D45"/>
<rect opacity="0.4" x="42.5" y="15.6976" width="105" height="14.8707" rx="4" fill="#2D55FB"/>
<rect opacity="0.4" x="42.5" y="38.4993" width="105" height="14.8707" rx="4" fill="#32CAFD"/>
<rect opacity="0.4" x="42.5" y="61.3011" width="105" height="14.8707" rx="4" fill="#B756FE"/>
<rect x="172.5" y="2.80975" width="96" height="86.2503" rx="5" fill="#0E1330"/>
<line x1="192.5" y1="21.6028" x2="246.5" y2="21.6028" stroke="#282D45" stroke-width="10" stroke-linecap="round"/>
<line x1="192.5" y1="44.4045" x2="246.5" y2="44.4045" stroke="#282D45" stroke-width="10" stroke-linecap="round"/>
<line x1="220" y1="70.6634" x2="245" y2="70.6634" stroke="#282D45" stroke-width="13" stroke-linecap="round"/>
<line x1="194" y1="70.6634" x2="200" y2="70.6634" stroke="#282D45" stroke-width="13" stroke-linecap="round"/>
<rect x="2.5" y="100.956" width="266" height="62.4571" rx="5" fill="#0E1330"/>
<line x1="19.5" y1="117.767" x2="71.5" y2="117.767" stroke="#282D45" stroke-width="10" stroke-linecap="round"/>
<line x1="17" y1="135.138" x2="243" y2="135.138" stroke="#282D45" stroke-width="5" stroke-linecap="round"/>
<line x1="17" y1="148.025" x2="205" y2="148.025" stroke="#282D45" stroke-width="5" stroke-linecap="round"/>
<rect x="2.5" y="175.31" width="266" height="62.4571" rx="5" fill="#0E1330"/>
<line x1="19.5" y1="192.121" x2="71.5" y2="192.121" stroke="#282D45" stroke-width="10" stroke-linecap="round"/>
<line x1="17" y1="209.491" x2="243" y2="209.491" stroke="#282D45" stroke-width="5" stroke-linecap="round"/>
<rect x="280.5" y="175.31" width="200" height="62.4571" rx="5" fill="#0E1330"/>
<line x1="297.5" y1="192.121" x2="349.5" y2="192.121" stroke="#282D45" stroke-width="10" stroke-linecap="round"/>
<line x1="295" y1="209.491" x2="455" y2="209.491" stroke="#282D45" stroke-width="5" stroke-linecap="round"/>
<rect x="280.5" y="2.80975" width="116" height="160.604" rx="5" fill="#0E1330"/>
<line x1="300.5" y1="20.6115" x2="373.5" y2="20.6115" stroke="#282D45" stroke-width="10" stroke-linecap="round"/>
<line x1="319" y1="46.9045" x2="376" y2="46.9045" stroke="#282D45" stroke-width="5" stroke-linecap="round"/>
<line x1="298" y1="46.9045" x2="303" y2="46.9045" stroke="#282D45" stroke-width="5" stroke-linecap="round"/>
<line x1="319" y1="72.6807" x2="376" y2="72.6807" stroke="#282D45" stroke-width="5" stroke-linecap="round"/>
<line x1="298" y1="72.6807" x2="303" y2="72.6807" stroke="#282D45" stroke-width="5" stroke-linecap="round"/>
<line x1="319" y1="59.7925" x2="376" y2="59.7925" stroke="#282D45" stroke-width="5" stroke-linecap="round"/>
<line x1="298" y1="59.7925" x2="303" y2="59.7925" stroke="#282D45" stroke-width="5" stroke-linecap="round"/>
<line x1="319" y1="85.5686" x2="376" y2="85.5686" stroke="#282D45" stroke-width="5" stroke-linecap="round"/>
<line x1="298" y1="85.5686" x2="303" y2="85.5686" stroke="#282D45" stroke-width="5" stroke-linecap="round"/>
<line x1="363" y1="148.025" x2="376" y2="148.025" stroke="#282D45" stroke-width="5" stroke-linecap="round"/>
<line x1="298" y1="148.025" x2="348" y2="148.025" stroke="#282D45" stroke-width="5" stroke-linecap="round"/>
</g>
</svg>
