<svg width="140" height="40" viewBox="0 0 140 40" fill="none" xmlns="http://www.w3.org/2000/svg">
<g clip-path="url(#clip0_1_426)">
<path d="M29.7954 14.1666H15.6495V18.3333H25.6742C25.1729 24.2222 20.272 26.7222 15.6495 26.7222C9.74615 26.7222 4.56677 22.0555 4.56677 15.5555C4.56677 9.2222 9.46769 4.33331 15.6495 4.33331C20.3834 4.33331 23.2237 7.33331 23.2237 7.33331L26.1754 4.27775C26.1754 4.27775 22.3883 0.111084 15.5382 0.111084C6.79446 0.16664 0 7.55553 0 15.5C0 23.3333 6.34892 30.9444 15.7609 30.9444C24.0034 30.9444 30.0738 25.2778 30.0738 16.9444C30.0738 15.1666 29.7954 14.1666 29.7954 14.1666ZM41.3794 11.1666C35.5874 11.1666 31.4105 15.6666 31.4105 21C31.4105 26.3333 35.4203 30.9444 41.4351 30.9444C46.8372 30.9444 51.2926 26.7778 51.2926 21.1111C51.3483 14.5 46.1689 11.1666 41.3794 11.1666ZM41.4351 15.0555C44.2754 15.0555 47.0043 17.3333 47.0043 21.0555C47.0043 24.6666 44.3311 27.0555 41.4351 27.0555C38.2606 27.0555 35.7545 24.5555 35.7545 21.0555C35.7545 17.6111 38.2606 15.0555 41.4351 15.0555ZM63.0437 11.1666C57.2517 11.1666 53.0748 15.6666 53.0748 21C53.0748 26.3333 57.0846 30.9444 63.0994 30.9444C68.5015 30.9444 72.9569 26.7778 72.9569 21.1111C73.0126 14.5 67.8332 11.1666 63.0437 11.1666ZM63.0994 15.0555C65.9397 15.0555 68.6686 17.3333 68.6686 21.0555C68.6686 24.6666 65.9954 27.0555 63.0994 27.0555C59.9249 27.0555 57.4188 24.5555 57.4188 21.0555C57.4745 17.6111 59.9249 15.0555 63.0994 15.0555ZM84.3182 11.1666C78.9717 11.1666 74.7948 15.8333 74.7948 21.0555C74.7948 27 79.64 30.9444 84.2068 30.9444C87.0471 30.9444 88.5508 29.8333 89.6646 28.5555V30.5C89.6646 33.8889 87.604 35.9444 84.4295 35.9444C81.4222 35.9444 79.8628 33.7222 79.3615 32.4444L75.5745 34.0555C76.9111 36.8889 79.64 39.8889 84.4852 39.8889C89.776 39.8889 93.8415 36.5555 93.8415 29.5555V11.7778H89.6646V13.4444C88.3837 12.0555 86.6572 11.1666 84.3182 11.1666ZM84.708 15.0555C87.3255 15.0555 89.9988 17.2778 89.9988 21.0555C89.9988 24.9444 87.3255 27.0555 84.6523 27.0555C81.812 27.0555 79.1945 24.7778 79.1945 21.1111C79.1388 17.2778 81.9234 15.0555 84.708 15.0555ZM112.276 11.1111C107.263 11.1111 103.031 15.1111 103.031 21C103.031 27.2222 107.709 30.9444 112.777 30.9444C116.954 30.9444 119.571 28.6666 121.075 26.6111L117.622 24.3333C116.731 25.7222 115.227 27.0555 112.777 27.0555C109.992 27.0555 108.711 25.5555 107.932 24.0555L121.242 18.5555L120.574 16.9444C119.237 13.7778 116.23 11.1111 112.276 11.1111ZM112.443 14.9444C114.281 14.9444 115.562 15.8889 116.118 17.0555L107.263 20.7778C106.874 17.8889 109.602 14.9444 112.443 14.9444ZM96.7375 30.3333H101.082V1.2222H96.7375V30.3333ZM139.231 15.6666H133.884V10.3333H129.54V15.6666H124.194V20H129.54V25.3333H133.884V20H139.231V15.6666Z" fill="white"/>
</g>
<defs>
<clipPath id="clip0_1_426">
<rect width="139.231" height="40" fill="white"/>
</clipPath>
</defs>
</svg>
