<svg width="49" height="45" viewBox="0 0 49 45" fill="none" xmlns="http://www.w3.org/2000/svg">
<g id="icon" clip-path="url(#clip0_64_231)">
<g id="Group">
<path id="Vector" d="M24.1048 0.0562002C24.9288 -0.196609 25.8464 0.477549 25.8745 1.33897C25.8839 2.90264 25.8745 4.46631 25.8745 6.03935C25.8932 6.68541 25.397 7.30339 24.7603 7.42511C23.955 7.62174 23.0936 6.95695 23.0749 6.13298C23.0655 4.56931 23.0749 3.00564 23.0655 1.44197C23.0468 0.805264 23.4962 0.215376 24.1048 0.0562002Z" fill="#DF2DB1"/>
<path id="Vector_2" d="M13.8148 3.33326C14.2923 3.20217 14.8354 3.35198 15.1818 3.70779C16.399 4.92502 17.6163 6.14224 18.8335 7.35011C19.2174 7.69655 19.414 8.23962 19.2923 8.74524C19.1799 9.28831 18.7118 9.71902 18.1687 9.81266C17.7286 9.88756 17.2604 9.74711 16.9421 9.43813C15.7061 8.20217 14.4795 6.96622 13.2436 5.73962C12.9159 5.43063 12.7286 4.97183 12.7848 4.52239C12.841 3.9606 13.2623 3.46434 13.8148 3.33326Z" fill="#DF2DB1"/>
<path id="Vector_3" d="M34.4046 3.33342C35.0132 3.16488 35.7248 3.45515 36.0057 4.03567C36.2959 4.56938 36.1836 5.27163 35.7435 5.69297C34.4982 6.93829 33.2529 8.19297 31.9982 9.43829C31.4926 9.94391 30.6124 9.972 30.0881 9.48511C29.4982 8.98885 29.4607 7.99635 30.0225 7.45327C31.2679 6.20796 32.5132 4.96264 33.7585 3.70796C33.9364 3.53005 34.1611 3.39897 34.4046 3.33342Z" fill="#DF2DB1"/>
<path id="Vector_4" d="M14.0768 14.5694C15.4625 13.4177 17.2416 12.7716 19.0393 12.7622C21.8202 12.7622 24.6011 12.7622 27.3727 12.7622C28.5431 12.7248 29.7228 13.015 30.706 13.6611C31.2678 14.0169 31.736 14.5038 32.2041 14.972C33.7303 16.4982 35.2659 18.0338 36.7921 19.56C37.1573 19.9158 37.5225 20.2997 37.7285 20.7772C38.3371 22.0506 37.9625 23.7079 36.8483 24.5787C35.6498 25.5806 33.7303 25.4682 32.6255 24.3915C31.2865 23.0712 29.9757 21.7323 28.6461 20.4121C28.3652 20.1312 27.9719 19.9813 27.5787 19.9813C24.0487 19.972 20.5187 19.9813 16.9888 19.9813C15.4625 21.2641 13.9363 22.5469 12.4007 23.8297C11.8296 24.3165 11.2303 24.766 10.7715 25.3652C9.46067 27.0132 9.14232 29.3821 9.95693 31.3203C10.603 32.9121 11.9794 34.1761 13.6086 34.7098C13.7491 35.5619 14.0487 36.3858 14.5075 37.1162C13.7772 37.0694 12.9064 37.3034 12.3071 36.751C11.1648 35.6368 10.0506 34.4944 8.9176 33.3709C6.76405 33.3615 4.61985 33.3709 2.46629 33.3709C2.0824 33.3709 1.67041 33.4083 1.30524 33.2304C0.865169 33.015 0.58427 32.5843 0.5 32.1162V16.8165C0.58427 16.1237 1.20225 15.5525 1.90449 15.5619C5.61236 15.5619 9.32022 15.5619 13.0281 15.5619C13.3652 15.2248 13.7022 14.8783 14.0768 14.5694Z" fill="#F6F6F7"/>
<path id="Vector_5" d="M39.6011 18.4739C42.0823 18.4739 44.5543 18.4739 47.0355 18.4739C47.719 18.4551 48.3089 19.0076 48.44 19.6724V35.0188C48.3464 35.7023 47.7378 36.2735 47.0449 36.2641C45.1722 36.2735 43.2996 36.2641 41.4269 36.2641C41.2396 36.2735 41.0056 36.2173 40.8651 36.3765C37.7471 38.9982 34.6198 41.6106 31.5018 44.2323C30.734 44.8971 29.6479 45.1592 28.6647 44.9064C27.4569 44.6162 26.4925 43.5675 26.3146 42.3409C26.146 41.3952 26.4831 40.4121 27.1011 39.6911C26.4831 40.178 25.8932 40.7023 25.2846 41.1986C24.5823 41.8072 23.6086 42.0787 22.7003 41.9195C21.4737 41.7323 20.4344 40.7491 20.1535 39.5506C19.882 38.4832 20.2284 37.3034 21.0149 36.545C20.3314 36.9944 19.4887 37.2285 18.6647 37.0881C17.3913 36.9008 16.3052 35.8615 16.0617 34.5881C15.8464 33.5394 16.2116 32.4064 16.9793 31.6761C16.1741 32.2379 15.1254 32.4533 14.1797 32.1536C12.9157 31.7885 11.97 30.5712 11.9325 29.2604C11.8857 28.2772 12.3352 27.2941 13.1029 26.6761C14.6573 25.3933 16.1741 24.0731 17.7378 22.8091C20.8464 22.7997 23.955 22.7997 27.0636 22.8091C28.0374 23.8016 29.0299 24.7847 30.0131 25.7679C30.425 26.1705 30.8089 26.6012 31.2771 26.9383C32.3539 27.7435 33.7116 28.1555 35.0599 28.0993C36.3333 28.0619 37.5786 27.5937 38.5711 26.7978C39.7696 25.8428 40.5842 24.4008 40.7715 22.8746C40.9775 21.3203 40.5374 19.7192 39.6011 18.4739Z" fill="#F6F6F7"/>
</g>
</g>
<defs>
<clipPath id="clip0_64_231">
<rect width="47.9401" height="45" fill="white" transform="translate(0.5)"/>
</clipPath>
</defs>
</svg>
