<svg width="46" height="45" viewBox="0 0 46 45" fill="none" xmlns="http://www.w3.org/2000/svg">
<g id="icon" clip-path="url(#clip0_64_263)">
<g id="Group">
<path id="Vector" d="M14.747 0H31.2002C32.0263 0.0703125 32.8261 0.439453 33.3798 1.05469C33.9511 1.66992 34.2675 2.50488 34.2587 3.34863C34.2587 5.98535 34.2587 8.62207 34.2587 11.2588C34.2587 11.7334 34.2587 12.2256 34.1093 12.6826C33.7314 13.9922 32.4658 14.9766 31.0947 15.0117C29.706 15.0205 28.3173 15.0117 26.9287 15.0117C25.9619 16.1016 25.0127 17.2002 24.0459 18.29C23.5097 18.9316 22.4287 18.9141 21.9189 18.2549C21.1015 17.1826 20.2929 16.0928 19.4843 15.0117C17.9638 15.0029 16.4345 15.0205 14.9052 15.0029C13.5429 14.9678 12.2773 13.9922 11.8906 12.6826C11.75 12.252 11.7412 11.7949 11.75 11.3467C11.75 8.64844 11.75 5.95898 11.75 3.26074C11.75 2.36426 12.1455 1.48535 12.8046 0.878906C13.332 0.37793 14.0263 0.0878906 14.747 0Z" fill="#F6F6F7"/>
<path id="Vector_2" d="M0.693359 4.05176C1.12402 2.82129 2.35449 1.90723 3.66406 1.88086C5.4834 1.87207 7.30273 1.88086 9.11328 1.87207C8.99902 2.35547 8.92871 2.84766 8.9375 3.33984C8.9375 6.17871 8.92871 9.02637 8.94629 11.8652C8.97266 13.9131 10.1416 15.8555 11.8643 16.9365C10.915 18.0264 9.96582 19.1162 9.00781 20.1973C8.48047 20.8125 7.43457 20.751 6.93359 20.127C6.10742 19.0547 5.29883 17.9561 4.47266 16.875C3.75195 16.9014 2.99609 16.8838 2.33691 16.5322C1.31738 16.04 0.623047 15.0029 0.5 13.8779V4.88672C0.543945 4.60547 0.59668 4.32422 0.693359 4.05176Z" fill="#FFC933"/>
<path id="Vector_3" d="M36.8779 1.87207C38.6709 1.87207 40.4551 1.87207 42.248 1.87207C43.2412 1.87207 44.208 2.36426 44.8057 3.15527C45.21 3.67383 45.4385 4.31543 45.4912 4.96582V13.8516C45.3682 15.126 44.4893 16.2861 43.2676 16.6904C42.6963 16.9014 42.0811 16.8662 41.4834 16.875C40.71 17.9297 39.9189 18.9668 39.1367 20.0215C38.7852 20.5225 38.0908 20.7598 37.5107 20.54C37.1328 20.4258 36.8955 20.0918 36.6494 19.8105C35.8057 18.8525 34.9619 17.8857 34.1182 16.9277C35.4893 16.0664 36.5176 14.6689 36.8779 13.0869C37.0801 12.2783 37.0361 11.4434 37.0361 10.626C37.0361 8.2002 37.0361 5.76562 37.0361 3.33984C37.0625 2.84766 37.001 2.35547 36.8779 1.87207Z" fill="#FFC933"/>
<path id="Vector_4" d="M22.5867 21.5771C23.7029 21.498 24.8367 21.7529 25.8035 22.3154C27.1394 23.0888 28.1326 24.4247 28.4753 25.9277C28.7302 27.0263 28.6423 28.1952 28.2293 29.2411C27.6492 30.7353 26.3923 31.957 24.8718 32.4931C23.905 32.8359 22.8416 32.9062 21.8396 32.6952C20.3191 32.3788 18.948 31.3945 18.157 30.0585C17.5593 29.0566 17.2869 27.8701 17.3923 26.7099C17.4978 25.3915 18.0867 24.1259 19.0359 23.2031C19.9763 22.2538 21.2595 21.665 22.5867 21.5771Z" fill="#F6F6F7"/>
<path id="Vector_5" d="M7.64531 24.3896C8.73516 24.2841 9.86016 24.6796 10.6336 25.4531C11.407 26.2089 11.8201 27.3076 11.741 28.3886C11.6795 29.373 11.1961 30.3134 10.4578 30.955C9.64922 31.6669 8.51543 31.9921 7.45195 31.8251C6.36211 31.6757 5.36016 30.999 4.79766 30.0585C4.23516 29.1445 4.10332 27.9755 4.44609 26.956C4.87676 25.5673 6.19512 24.5126 7.64531 24.3896Z" fill="#F6F6F7"/>
<path id="Vector_6" d="M37.6248 24.3984C38.6355 24.3017 39.6726 24.6181 40.4373 25.2861C41.2546 25.9804 41.7468 27.0527 41.7468 28.1338C41.7556 29.2588 41.2195 30.3662 40.3406 31.0605C39.5056 31.7373 38.3718 32.0185 37.3171 31.8164C36.2537 31.623 35.2869 30.9463 34.7507 30.0058C34.2146 29.083 34.1003 27.9316 34.4519 26.9297C34.9002 25.5586 36.1921 24.5215 37.6248 24.3984Z" fill="#F6F6F7"/>
<path id="Vector_7" d="M2.57422 34.7782C3.46191 34.1103 4.57812 33.7411 5.68555 33.7499C7.24121 33.7499 8.78809 33.7499 10.3438 33.7499C11.2754 33.7499 12.207 34.0136 13.0068 34.497C12.1191 35.1825 11.3633 36.0439 10.8271 37.037C10.124 38.3202 9.8252 39.7968 9.87793 41.247C7.22363 41.247 4.56934 41.247 1.90625 41.247C1.21191 41.2558 0.59668 40.6845 0.5 40.0077V38.6278C0.587891 37.1249 1.35254 35.6747 2.57422 34.7782Z" fill="#F6F6F7"/>
<path id="Vector_8" d="M32.9932 34.4972C33.793 34.0138 34.7246 33.7501 35.6562 33.7501C37.2119 33.7501 38.7588 33.7501 40.3057 33.7501C41.668 33.7413 43.0303 34.295 43.9883 35.2618C44.8848 36.1495 45.4209 37.38 45.5 38.628V39.9903C45.4297 40.4474 45.1572 40.8692 44.7441 41.089C44.3926 41.2999 43.9619 41.2472 43.5664 41.256C41.0879 41.256 38.6094 41.256 36.1309 41.256C36.1396 40.5089 36.1045 39.7618 35.9287 39.0323C35.5244 37.2306 34.4609 35.6046 32.9932 34.4972Z" fill="#F6F6F7"/>
<path id="Vector_9" d="M16.2502 35.8768C17.1819 35.5428 18.175 35.6307 19.1418 35.6219C22.1301 35.6219 25.1184 35.6219 28.1067 35.6219C29.1877 35.6132 30.2688 35.9471 31.1477 36.58C32.1672 37.3007 32.9055 38.4081 33.178 39.6298C33.3625 40.3768 33.301 41.1503 33.3098 41.9149C33.301 42.5038 33.3186 43.0839 33.301 43.6727C33.2834 44.3407 32.7209 44.9032 32.0706 44.9911H13.9475C13.262 44.9032 12.6731 44.288 12.6907 43.5848C12.6907 42.5565 12.6819 41.537 12.6995 40.5087C12.7786 38.4344 14.2639 36.5009 16.2502 35.8768Z" fill="#F6F6F7"/>
</g>
</g>
<defs>
<clipPath id="clip0_64_263">
<rect width="45" height="45" fill="white" transform="translate(0.5)"/>
</clipPath>
</defs>
</svg>
