<svg width="48" height="45" viewBox="0 0 48 45" fill="none" xmlns="http://www.w3.org/2000/svg">
<g id="icon" clip-path="url(#clip0_64_278)">
<g id="Group">
<g id="Group_2">
<path id="Vector" d="M11.9455 0.116053C13.148 -0.0316264 14.3716 0.0105677 15.5847 1.91266e-05C21.8822 1.91266e-05 28.1691 1.91266e-05 34.4666 1.91266e-05C36.0488 0.0105677 37.6417 -0.063272 39.2134 0.200441C41.1121 0.4958 43.0003 1.20255 44.4666 2.48947C45.859 3.70255 46.7872 5.39032 47.2619 7.17302C47.6311 8.55487 47.7577 10 47.7577 11.4241C47.7577 16.2764 47.7577 21.1287 47.7577 25.9916C47.7893 27.8481 47.705 29.7258 47.1459 31.4979C46.5763 33.3861 45.437 35.1372 43.8125 36.2764C41.7767 37.7215 39.245 38.2173 36.7872 38.249C34.013 38.2595 31.2282 38.249 28.4539 38.249C27.4307 38.2701 26.4708 37.5 26.2704 36.4979C26.1754 36.0971 26.2493 35.6857 26.2915 35.2743C26.6079 32.4051 26.0277 29.4409 24.6775 26.8882C23.0847 23.8397 20.3737 21.4135 17.1775 20.1477C13.6543 18.7342 9.57204 18.7658 6.08048 20.2637C5.46867 20.5591 4.74082 20.6224 4.10791 20.3481C3.29567 20.0106 2.72605 19.1561 2.74715 18.2701C2.74715 15.8439 2.74715 13.4072 2.74715 10.981C2.77879 8.67091 3.20074 6.27639 4.46656 4.30382C5.50031 2.65825 7.13533 1.42407 8.96023 0.78061C9.92014 0.453606 10.9328 0.232087 11.9455 0.116053ZM13.4012 9.67302C12.8104 9.89453 12.3674 10.4642 12.3252 11.0971C12.2725 11.6561 12.5256 12.2258 12.9581 12.5739C15.2471 14.3988 17.5256 16.2342 19.8147 18.0591C20.9434 18.9557 22.283 19.5781 23.7071 19.8312C25.7113 20.2004 27.8421 19.8312 29.6142 18.808C30.4054 18.365 31.091 17.7532 31.7978 17.1941C33.5488 15.7806 35.321 14.3882 37.072 12.9747C37.399 12.711 37.7682 12.4684 37.9792 12.0886C38.3379 11.4557 38.2429 10.6013 37.7261 10.0844C37.167 9.48314 36.1438 9.39875 35.4898 9.91563C33.2218 11.73 30.9539 13.5443 28.686 15.3587C28.0109 15.9177 27.1986 16.308 26.3442 16.4874C24.8358 16.8038 23.2007 16.4346 21.9877 15.4853C19.6775 13.6393 17.378 11.8038 15.0678 9.95783C14.6037 9.56753 13.9497 9.46204 13.4012 9.67302Z" fill="#F6F6F7"/>
</g>
<g id="Group_3">
<path id="Vector_2" d="M10.3631 22.595C12.631 22.3102 14.9939 22.7321 17.0086 23.8186C19.6774 25.2216 21.7238 27.7321 22.5572 30.6329C23.285 33.1329 23.1057 35.8756 22.0508 38.2595C21.0065 40.6857 19.0656 42.7005 16.6922 43.8608C14.3082 45.0317 11.5023 45.3165 8.92846 44.6414C6.33352 43.9768 3.99175 42.3524 2.47276 40.1266C0.85884 37.8059 0.183734 34.8735 0.616224 32.0886C0.974874 29.6203 2.18795 27.2996 4.0023 25.5908C5.74281 23.9557 8.00019 22.8903 10.3631 22.595ZM7.06137 29.1667C6.25968 29.1878 5.57403 29.9367 5.61622 30.7384C5.61622 31.5401 6.34407 32.2469 7.14576 32.2258C8.62255 32.2363 10.0888 32.2258 11.5656 32.2258C11.8926 32.2258 12.2407 32.1836 12.5255 32.0148C13.1479 31.6667 13.4432 30.865 13.2006 30.1899C12.9896 29.5675 12.3462 29.1351 11.6922 29.1562C10.1521 29.1667 8.60146 29.1456 7.06137 29.1667ZM7.06137 35.2954C6.57614 35.3165 6.12255 35.5802 5.85884 35.9916C5.50019 36.519 5.53184 37.2574 5.92213 37.7532C6.22804 38.1646 6.73437 38.3756 7.2407 38.3545C10.0888 38.3545 12.9369 38.3545 15.7956 38.3545C16.2069 38.3545 16.6394 38.3861 17.0192 38.1857C17.6943 37.8692 18.0424 37.0148 17.7892 36.3186C17.5888 35.7068 16.9664 35.2743 16.323 35.2848C13.2428 35.2954 10.1521 35.2848 7.06137 35.2954Z" fill="#2D55FB"/>
</g>
</g>
</g>
<defs>
<clipPath id="clip0_64_278">
<rect width="47.2574" height="45" fill="white" transform="translate(0.5)"/>
</clipPath>
</defs>
</svg>
