<svg width="142" height="40" viewBox="0 0 142 40" fill="none" xmlns="http://www.w3.org/2000/svg">
<path d="M7.2794 0.138088C4.37734 1.33808 1.20494 4.78083 0.198049 9.07598C-1.07919 14.5325 4.22286 16.8139 4.64769 16.0415C5.14976 15.1504 3.71804 14.8415 3.40907 12.0167C3.02287 8.38082 4.72493 4.31738 6.85182 2.49946C7.23802 2.15187 7.23802 2.61532 7.23802 3.46773C7.23802 4.97669 7.16078 18.7118 7.16078 21.5753C7.16078 25.4456 7.0063 26.6814 6.69734 27.8814C6.38837 29.1201 5.92217 29.9311 6.31113 30.2428C6.69734 30.5904 8.3994 29.7407 9.36767 28.3863C10.529 26.7614 10.9539 24.789 11.0311 22.6208C11.1084 20.0277 11.1084 15.967 11.1084 13.6056C11.1084 11.4787 11.147 5.21117 11.0697 1.41808C11.0339 0.604293 8.4794 -0.363979 7.2794 0.138088ZM109.925 18.2456C109.847 20.2566 109.384 21.8428 108.84 22.927C107.756 25.0925 105.552 25.7518 104.622 22.6566C104.12 20.9546 104.082 18.1684 104.468 15.8098C104.854 13.4098 105.9 11.5918 107.64 11.7849C109.307 11.978 110.118 14.1849 109.925 18.2456ZM80.984 30.7421C80.9453 34.069 80.4433 37.0097 79.3205 37.8621C77.7343 39.0621 75.5688 38.1711 75.9936 35.7352C76.3798 33.5697 78.2364 31.3628 80.984 28.6538C80.984 28.6925 80.984 29.3104 80.984 30.7421ZM80.5591 18.2456C80.4433 20.0635 79.9798 21.9201 79.475 22.9656C78.3909 25.1311 76.1481 25.7904 75.2571 22.6952C74.6392 20.5684 74.7936 17.8594 75.1026 16.1187C75.5274 13.876 76.4957 11.8236 78.275 11.8236C79.9384 11.7849 80.7909 13.6801 80.5591 18.2456ZM63.8061 18.207C63.6902 20.1408 63.304 21.7656 62.722 22.9656C61.6378 25.0925 59.4337 25.7904 58.504 22.6952C57.8089 20.4911 58.0406 17.4346 58.3496 15.8098C58.7744 13.3711 59.8585 11.6691 61.522 11.8236C63.1882 11.978 63.9992 14.1849 63.8061 18.207ZM140.567 20.4911C140.142 20.4911 139.949 20.9159 139.792 21.6525C139.251 24.1683 138.669 24.7477 137.935 24.7477C137.122 24.7477 136.349 23.509 136.156 20.9959C136.002 19.0235 136.04 15.3849 136.233 11.7877C136.272 11.0539 136.079 10.3174 134.068 9.58357C133.215 9.2746 131.98 8.8084 131.359 10.3174C129.618 14.5353 128.92 17.9008 128.766 19.2553C128.766 19.3325 128.689 19.3325 128.65 19.178C128.534 18.0939 128.302 16.1215 128.302 11.9422C128.302 11.1284 128.109 10.4332 127.218 9.85391C126.639 9.4677 124.857 8.84702 124.239 9.62219C123.698 10.2401 123.039 11.9449 122.382 13.9946C121.842 15.6194 121.453 16.7422 121.453 16.7422C121.453 16.7422 121.453 12.3311 121.453 10.6291C121.453 10.0112 121.028 9.77667 120.873 9.73805C120.294 9.58357 119.133 9.2746 118.631 9.2746C118.013 9.2746 117.856 9.62219 117.856 10.127C117.856 10.2043 117.778 15.9698 117.778 19.9918C117.778 20.1849 117.778 20.3394 117.778 20.5711C117.431 22.4277 116.347 24.9435 115.147 24.9435C113.947 24.9435 113.406 23.898 113.406 19.1008C113.406 16.3146 113.483 15.076 113.522 13.0649C113.56 11.9036 113.599 11.0153 113.599 10.7836C113.599 10.1656 112.515 9.85391 112.013 9.73805C111.511 9.62219 111.083 9.58357 110.736 9.58357C110.234 9.62219 109.922 9.93115 109.922 10.3587C109.922 10.5905 109.922 11.0539 109.922 11.0539C109.304 10.0856 108.297 9.39047 107.64 9.19736C105.861 8.65668 103.966 9.12012 102.534 11.1311C101.411 12.7174 100.716 14.4967 100.446 17.0511C100.253 18.9077 100.33 20.8028 100.678 22.4277C100.253 24.2456 99.4777 24.9821 98.628 24.9821C97.3894 24.9821 96.5011 22.9711 96.617 19.487C96.6942 17.2056 97.1577 15.578 97.6625 13.258C97.8942 12.2511 97.7011 11.7491 97.2763 11.247C96.8901 10.7836 96.0377 10.5518 94.7991 10.8608C93.9081 11.0539 92.6722 11.2856 91.5494 11.4401C91.5494 11.4401 91.6267 11.1698 91.6653 10.6649C91.9743 8.11047 89.1881 8.34219 88.2998 9.15598C87.7591 9.65805 87.4088 10.2015 87.2929 11.2443C87.0612 12.8691 88.4157 13.6442 88.4157 13.6442C87.9908 15.6553 86.9067 18.2484 85.784 20.1435C85.2046 21.1504 84.7384 21.9228 84.1591 22.698C84.1591 22.389 84.1591 22.1187 84.1591 21.807C84.1591 17.5891 84.1977 14.3008 84.2364 13.1008C84.275 11.9394 84.3136 11.0512 84.3136 10.858C84.3136 10.3946 84.0433 10.2401 83.4998 10.0056C82.9977 9.81253 82.4157 9.69667 81.8364 9.61943C81.0612 9.54219 80.6364 9.96702 80.6364 10.4332C80.6364 10.5105 80.6364 11.0898 80.6364 11.0898C80.0184 10.1215 79.0116 9.42633 78.355 9.23322C76.5757 8.69254 74.6805 9.15598 73.2488 11.167C72.1261 12.7532 71.3923 14.9573 71.1605 17.0484C70.9674 19.0208 71.0061 20.6842 71.2764 22.1159C71.0061 23.5477 70.1537 25.018 69.2268 25.018C68.0268 25.018 67.3702 23.9725 67.3702 19.1753C67.3702 16.3891 67.4475 15.1504 67.4861 13.1394C67.5247 11.978 67.5633 11.0898 67.5633 10.858C67.5633 10.2401 66.4792 9.92839 65.9771 9.81253C65.4364 9.69667 65.0089 9.65805 64.6613 9.65805C64.1978 9.69667 63.8861 10.1215 63.8861 10.3918V11.087C63.2682 10.1187 62.2613 9.42357 61.6047 9.23047C59.8254 8.68978 57.9303 9.19184 56.4985 11.1643C55.5689 12.4415 54.8351 13.8732 54.4103 17.0456C54.2944 17.9753 54.2558 18.8249 54.2558 19.6001C53.8696 21.8815 52.2448 24.4745 50.8903 24.4745C50.1151 24.4745 49.3427 22.9656 49.3427 19.7159C49.3427 15.3822 49.613 9.26909 49.6517 8.65116C49.6517 8.65116 51.3537 8.61254 51.6627 8.61254C52.5151 8.61254 53.2875 8.61254 54.4103 8.57392C54.9896 8.5353 55.533 6.52427 54.951 6.25117C54.6806 6.1353 52.8241 6.05806 52.0875 6.01944C51.4696 6.01944 49.7261 5.86496 49.7261 5.86496C49.7261 5.86496 49.8806 1.80153 49.9193 1.33808C49.9579 0.990496 49.4944 0.797392 49.2241 0.68153C48.5675 0.411186 47.9855 0.295327 47.3289 0.140845C46.3606 -0.0522579 45.9358 0.140844 45.8586 0.954634C45.7427 2.15463 45.6655 5.71324 45.6655 5.71324C44.9703 5.71324 42.5703 5.55876 41.8751 5.55876C41.2186 5.55876 40.5207 8.34496 41.4117 8.38358C42.4572 8.4222 44.2365 8.46082 45.4365 8.49944C45.4365 8.49944 45.3979 14.7284 45.3979 16.6622C45.3979 16.8553 45.3979 17.0484 45.3979 17.2415C44.7413 20.6456 42.4186 22.5021 42.4186 22.5021C42.9207 20.2594 41.9165 18.5546 40.0958 17.1256C39.4393 16.5849 38.0848 15.578 36.6145 14.4939C36.6145 14.4939 37.4669 13.6415 38.2393 11.9394C38.78 10.7394 38.8186 9.34633 37.4641 9.03736C35.26 8.5353 33.4779 10.1601 32.9372 11.8622C32.5124 13.178 32.7441 14.1849 33.5552 15.1891C33.6324 15.2663 33.671 15.3435 33.7483 15.4208C33.2462 16.3891 32.5869 17.6635 32.0076 18.6318C30.4214 21.3794 29.2214 23.5835 28.2945 23.5835C27.5607 23.5835 27.5607 21.3794 27.5607 19.2884C27.5607 17.5091 27.6766 14.8001 27.7924 12.0139C27.8311 11.0843 27.3676 10.5822 26.5924 10.0801C26.129 9.80977 25.1221 9.22771 24.5428 9.22771C23.6904 9.22771 21.1773 9.34357 18.8159 16.1932C18.5069 17.0456 17.9249 18.6318 17.9249 18.6318L17.9635 10.3918C17.9635 10.1987 17.8476 10.0056 17.6159 9.88977C17.2297 9.65805 16.1456 9.23322 15.2159 9.23322C14.7525 9.23322 14.5594 9.42633 14.5594 9.85115L14.4821 22.7339C14.4821 23.7021 14.5208 24.8608 14.598 25.3656C14.6752 25.8676 14.8683 26.2566 15.0614 26.527C15.2545 26.7587 15.4863 26.9518 15.8366 27.029C16.1842 27.1063 18.0407 27.338 18.1594 26.6428C18.2752 25.7904 18.2752 24.8635 19.2821 21.3821C20.8297 15.9642 22.8021 13.3353 23.7704 12.4056C23.9249 12.2511 24.118 12.2511 24.118 12.4829C24.0793 13.6829 23.9249 16.6235 23.8476 19.1366C23.5773 25.8677 24.8159 27.1063 26.5566 27.1063C27.9111 27.1063 29.7676 25.7904 31.8172 22.4249C33.0945 20.3366 34.2945 18.2842 35.1828 16.7753C35.8007 17.3546 36.4986 17.9366 37.1552 18.5932C38.7414 20.1022 39.282 21.5339 38.9345 22.927C38.6641 23.9725 37.6572 25.0539 35.8779 24.0111C35.3759 23.7021 35.1441 23.4704 34.6007 23.1201C34.3303 22.927 33.9055 22.8884 33.6324 23.0815C32.9759 23.5835 32.5869 24.2428 32.3552 25.0152C32.1621 25.7904 32.8959 26.1766 33.7097 26.5628C34.4048 26.8718 35.8752 27.1421 36.8434 27.1807C40.5179 27.2966 43.4586 25.4014 45.511 20.4884C45.8586 24.7063 47.4448 27.1035 50.1537 27.1035C51.9717 27.1035 53.7896 24.7421 54.6034 22.4608C54.8351 23.3904 55.1827 24.2401 55.6103 24.8994C57.6985 28.2263 61.762 27.4925 63.8116 24.6677C64.4295 23.8152 64.5454 23.4677 64.5454 23.4677C64.8544 26.138 66.984 27.0649 68.2199 27.0649C69.613 27.0649 71.0061 26.4083 72.0102 24.1628C72.1261 24.3945 72.2419 24.6263 72.3964 24.858C74.4847 28.1849 78.5481 27.4511 80.5978 24.6263C80.675 24.5104 80.7909 24.3559 80.8681 24.2787L80.9453 26.0194C80.9453 26.0194 79.784 27.1035 79.0502 27.7601C75.9164 30.6621 73.5164 32.8276 73.3233 35.3821C73.0916 38.6317 75.7233 39.8317 77.7343 39.9862C79.8612 40.1407 81.6819 38.9793 82.7633 37.3545C83.7315 35.9228 84.3881 32.8276 84.3495 29.7325C84.3495 28.4938 84.3108 26.9463 84.2722 25.2828C85.395 24.0056 86.6336 22.3808 87.7536 20.4856C88.9922 18.436 90.3467 15.6498 91.0419 13.4815C91.0419 13.4815 92.2032 13.4815 93.4419 13.4042C93.8281 13.3656 93.9439 13.4429 93.8667 13.7518C93.7894 14.0994 92.2805 19.8263 93.6349 23.6166C94.5646 26.2097 96.6529 27.0594 97.8915 27.0594C99.3232 27.0594 100.716 25.9752 101.45 24.3504C101.527 24.5435 101.643 24.698 101.72 24.8525C103.809 28.1794 107.872 27.4456 109.922 24.6208C110.385 24.0028 110.656 23.4208 110.656 23.4208C111.08 26.1683 113.249 27.018 114.446 27.018C115.723 27.018 116.923 26.4773 117.927 24.1545C117.966 25.1614 118.043 26.0111 118.12 26.2814C118.198 26.4359 118.545 26.629 118.816 26.7449C119.977 27.1697 121.177 26.9766 121.602 26.8994C121.911 26.8221 122.142 26.5904 122.181 25.9697C122.258 24.3063 122.22 21.5201 122.722 19.4318C123.574 15.9504 124.347 14.596 124.733 13.9367C124.926 13.5504 125.196 13.5118 125.196 13.898C125.196 14.7118 125.235 17.0704 125.582 20.2042C125.814 22.527 126.162 23.9173 126.396 24.3449C127.091 25.5835 127.982 25.6608 128.678 25.6608C129.141 25.6608 130.071 25.5449 129.993 24.7311C129.955 24.3449 130.032 21.9449 130.846 18.5408C131.387 16.298 132.316 14.2842 132.625 13.5505C132.741 13.2801 132.818 13.5118 132.818 13.5505C132.741 15.098 132.587 20.127 133.204 22.9132C134.057 26.6649 136.531 27.0539 137.384 27.0539C139.202 27.0539 140.711 25.6608 141.213 21.9863C141.301 21.1477 141.147 20.4911 140.567 20.4911Z" fill="white"/>
</svg>
