<svg width="160" height="40" viewBox="0 0 160 40" fill="none" xmlns="http://www.w3.org/2000/svg">
<g clip-path="url(#clip0_1_434)">
<path d="M1.06247 5.91245H7.23747V28.3875H18.6625V34.0874H1.06247V5.91245ZM21.3875 15H27.3125V34.075H21.3875V15ZM24.35 5.51245C25.0298 5.51245 25.6944 5.71406 26.2597 6.09177C26.825 6.46949 27.2656 7.00636 27.5258 7.63448C27.786 8.2626 27.8541 8.95377 27.7214 9.62057C27.5888 10.2874 27.2614 10.8999 26.7806 11.3806C26.2999 11.8614 25.6874 12.1888 25.0206 12.3214C24.3538 12.454 23.6626 12.386 23.0345 12.1258C22.4064 11.8656 21.8695 11.425 21.4918 10.8597C21.1141 10.2944 20.9125 9.62982 20.9125 8.94995C20.9125 8.03827 21.2746 7.16393 21.9193 6.51927C22.5639 5.87462 23.4383 5.51245 24.35 5.51245ZM52.1125 5.91245H58.0375V22.7499L64.7625 14.975H72.025L64.25 23.8125L71.8625 34.0874H64.4125L58.1125 24.65H58.0375V34.0874H52.1125V5.91245ZM30.6 15H36.25V17.6125H36.325C36.8949 16.6393 37.7175 15.8386 38.7056 15.295C39.6937 14.7515 40.8104 14.4854 41.9375 14.525C47.95 14.525 49.05 18.475 49.05 23.6124V34.0874H43.175V24.7999C43.175 22.5874 43.175 19.8 40.0875 19.8C37 19.8 36.525 22.2125 36.525 24.7V34.1374H30.6V15Z" fill="white"/>
<path d="M84.5125 22.3125C84.5246 21.8315 84.4387 21.3531 84.2601 20.9064C84.0816 20.4596 83.8141 20.0538 83.4739 19.7136C83.1337 19.3734 82.7279 19.1059 82.2811 18.9274C81.8344 18.7488 81.356 18.663 80.875 18.675C79.8391 18.6095 78.819 18.9544 78.0354 19.6351C77.2518 20.3158 76.7676 21.2776 76.6875 22.3125H84.5125ZM89.5126 30.775C88.5237 31.9601 87.2843 32.9111 85.8836 33.5595C84.483 34.208 82.956 34.5377 81.4125 34.525C75.4875 34.525 70.7375 30.575 70.7375 24.4375C70.7375 18.3 75.4875 14.3625 81.4125 14.3625C86.95 14.3625 90.425 18.3125 90.425 24.4375V26.3H76.675C76.8384 27.3596 77.3808 28.3238 78.2016 29.0136C79.0224 29.7033 80.0657 30.0716 81.1376 30.05C81.9819 30.0488 82.8121 29.8338 83.5509 29.425C84.2897 29.0163 84.913 28.4271 85.3625 27.7125L89.5126 30.775ZM102.788 19.6C101.82 19.5701 100.866 19.8297 100.046 20.3455C99.2273 20.8614 98.5808 21.6099 98.1897 22.4954C97.7985 23.3808 97.6806 24.3629 97.8509 25.3158C98.0213 26.2687 98.4721 27.1491 99.1458 27.8442C99.8195 28.5393 100.685 29.0175 101.632 29.2176C102.579 29.4177 103.565 29.3306 104.462 28.9674C105.359 28.6042 106.128 27.9814 106.669 27.1789C107.21 26.3763 107.5 25.4305 107.5 24.4625C107.553 23.8201 107.468 23.1739 107.249 22.5675C107.031 21.9611 106.685 21.4087 106.234 20.9476C105.784 20.4866 105.24 20.1277 104.639 19.8951C104.038 19.6626 103.393 19.562 102.75 19.6M113 34.075H107.5V31.575C106.813 32.4914 105.925 33.2383 104.904 33.7583C103.884 34.2783 102.758 34.5577 101.613 34.575C95.9125 34.575 92.1626 30.4625 92.1626 24.65C92.1626 19.3125 95.4876 14.4125 100.913 14.4125C102.053 14.3123 103.201 14.487 104.26 14.9219C105.32 15.3569 106.259 16.0395 107 16.9125H107.075V5.91248H113V34.075Z" fill="white"/>
<path d="M155.75 -1.48229e-05H121.7C121.313 -0.00499756 120.93 0.0670734 120.571 0.211992C120.213 0.35691 119.886 0.571773 119.612 0.844049C119.337 1.11632 119.12 1.44056 118.972 1.79784C118.824 2.15512 118.748 2.53828 118.75 2.92499V37.1125C118.753 37.496 118.832 37.8752 118.982 38.2281C119.133 38.581 119.351 38.9008 119.625 39.1691C119.899 39.4374 120.224 39.6489 120.58 39.7915C120.936 39.9341 121.317 40.0049 121.7 40H155.75C156.137 40.0099 156.523 39.9429 156.884 39.8027C157.245 39.6625 157.575 39.452 157.854 39.1834C158.133 38.9147 158.356 38.5934 158.51 38.2379C158.663 37.8824 158.745 37.4998 158.75 37.1125V2.92499C158.75 2.53448 158.672 2.14789 158.52 1.78804C158.369 1.42818 158.147 1.10234 157.867 0.829725C157.587 0.55711 157.256 0.343244 156.892 0.200738C156.529 0.058233 156.14 -0.0100279 155.75 -1.48229e-05ZM130.6 34.0875H124.675V15H130.6V34.0875ZM127.638 12.4125C126.958 12.4125 126.293 12.2109 125.728 11.8332C125.162 11.4554 124.722 10.9186 124.462 10.2905C124.202 9.66234 124.133 8.97117 124.266 8.30436C124.399 7.63755 124.726 7.02505 125.207 6.5443C125.688 6.06356 126.3 5.73617 126.967 5.60354C127.634 5.4709 128.325 5.53897 128.953 5.79915C129.581 6.05933 130.118 6.49992 130.496 7.06522C130.873 7.63051 131.075 8.29511 131.075 8.97499C131.075 9.88667 130.713 10.761 130.068 11.4057C129.424 12.0503 128.549 12.4125 127.638 12.4125ZM152.8 34.0875H146.875V24.8125C146.875 22.6 146.875 19.8125 143.8 19.8125C140.725 19.8125 140.238 22.225 140.238 24.7125V34.15H134.313V15H140V17.625H140.075C140.647 16.6542 141.47 15.8559 142.458 15.3146C143.446 14.7733 144.562 14.5091 145.688 14.55C151.688 14.55 152.8 18.5 152.8 23.6375V34.0875Z" fill="white"/>
</g>
<defs>
<clipPath id="clip0_1_434">
<rect width="160" height="40" fill="white"/>
</clipPath>
</defs>
</svg>
