<svg width="120" height="40" viewBox="0 0 120 40" fill="none" xmlns="http://www.w3.org/2000/svg">
<path d="M29.481 29.4368C25.7523 27.2832 22.1856 25.2235 18.6194 23.163C16.9731 22.2117 15.3365 21.2429 13.6759 20.3175C13.2074 20.0563 13.1438 19.8396 13.3654 19.3387C14.9029 15.8615 16.3991 12.3662 17.9107 8.87759C18.1726 8.2734 18.3783 7.63077 19.2366 7.62013C20.0955 7.60949 20.3088 8.22607 20.5766 8.84408C23.4411 15.4555 26.3097 22.065 29.1824 28.6728C29.2642 28.8615 29.3326 29.0561 29.481 29.4368ZM12.6465 20.9924C12.866 20.4762 13.0422 20.3989 13.5471 20.7054C15.2522 21.7407 16.9942 22.7152 18.834 23.7775L9.18292 29.3593" fill="white"/>
<path d="M19.3216 37.6339C15.7838 37.6339 12.3254 36.5848 9.38381 34.6193C6.44223 32.6538 4.14954 29.8602 2.79568 26.5916C1.44182 23.3231 1.08758 19.7266 1.77778 16.2567C2.46797 12.7869 4.17159 9.59963 6.6732 7.09802C9.17481 4.59641 12.3621 2.89279 15.8319 2.2026C19.3017 1.5124 22.8983 1.86664 26.1668 3.2205C29.4353 4.57436 32.229 6.86705 34.1945 9.80863C36.16 12.7502 37.2091 16.2086 37.2091 19.7464C37.2091 22.0954 36.7464 24.4214 35.8475 26.5916C34.9485 28.7619 33.631 30.7338 31.9699 32.3948C30.3089 34.0558 28.337 35.3734 26.1668 36.2723C23.9966 37.1712 21.6706 37.6339 19.3216 37.6339ZM19.3216 3.76486C16.1607 3.76486 13.0709 4.70216 10.4427 6.45824C7.81456 8.21431 5.76617 10.7103 4.55656 13.6305C3.34696 16.5508 3.03047 19.7641 3.64712 22.8642C4.26377 25.9644 5.78587 28.812 8.02092 31.047C10.256 33.2821 13.1036 34.8042 16.2037 35.4208C19.3038 36.0375 22.5172 35.721 25.4374 34.5114C28.3577 33.3018 30.8537 31.2534 32.6097 28.6253C34.3658 25.9971 35.3031 22.9072 35.3031 19.7464C35.3031 15.5078 33.6193 11.4429 30.6222 8.44574C27.6251 5.44863 23.5601 3.76486 19.3216 3.76486Z" fill="white"/>
<path d="M55.6718 12.8381H59.7242V26.3161H57.1V17.1996C57.1 16.9376 57.1031 16.5704 57.1092 16.0979C57.1149 15.6257 57.1179 15.2614 57.1181 15.0052L54.5641 26.3161H51.8268L49.2913 15.0052C49.2913 15.2612 49.2942 15.6255 49.3002 16.0979C49.3061 16.5702 49.3092 16.9374 49.3094 17.1996V26.3161H46.6855V12.8378H50.7833L53.2366 23.4356L55.6718 12.8381ZM68.6143 16.5512C69.3168 16.8688 69.9143 17.3801 70.3366 18.0252C70.7548 18.6428 71.0264 19.3477 71.1308 20.0862C71.2106 20.7423 71.2393 21.4037 71.2165 22.0642H63.958C63.9982 23.064 64.3455 23.765 64.9999 24.1672C65.4333 24.4266 65.9318 24.5567 66.4367 24.542C66.844 24.574 67.2514 24.4819 67.6054 24.2779C67.9594 24.0739 68.2433 23.7675 68.4199 23.3991H71.0806C70.9604 24.0876 70.6217 24.7192 70.1146 25.2002C69.2217 26.1695 67.9718 26.6542 66.3649 26.6545C65.0869 26.6713 63.8439 26.2372 62.8544 25.4283C61.8405 24.6104 61.3335 23.2803 61.3335 21.4378C61.3335 19.7114 61.7911 18.3875 62.7064 17.4661C63.1743 17.0041 63.732 16.6431 64.3451 16.4054C64.9582 16.1677 65.6135 16.0584 66.2706 16.0843C67.0761 16.0717 67.8751 16.2309 68.6143 16.5512ZM64.7159 18.8022C64.3256 19.2292 64.0822 19.77 64.0215 20.3454H68.5113C68.5089 20.0494 68.446 19.7571 68.3266 19.4862C68.2072 19.2154 68.0338 18.9718 67.8169 18.7704C67.3859 18.4065 66.8354 18.215 66.2715 18.2329C65.987 18.2154 65.7019 18.257 65.4342 18.3549C65.1665 18.4529 64.922 18.6052 64.7159 18.8022ZM71.5104 18.2968V16.441H72.9001V13.6611H75.4789V16.4407H77.0971V18.2968H75.4789V23.5636C75.4431 23.8284 75.4978 24.0975 75.6342 24.3272C75.738 24.4276 76.055 24.4778 76.5853 24.4778C76.6644 24.4778 76.7483 24.4769 76.8366 24.4737C76.9249 24.4705 77.0117 24.4658 77.0971 24.4597V26.4076L75.863 26.453C74.6315 26.4954 73.7902 26.2821 73.3391 25.8133C73.0168 25.4287 72.859 24.9325 72.9002 24.4324V18.2968L71.5104 18.2968ZM82.7181 20.2539C83.0734 20.2231 83.4233 20.1462 83.7587 20.0252C83.9192 19.9778 84.0604 19.8804 84.1615 19.7471C84.2627 19.6138 84.3186 19.4517 84.321 19.2844C84.3381 19.1169 84.3064 18.948 84.2299 18.798C84.1534 18.648 84.0353 18.5233 83.8896 18.4388C83.4926 18.261 83.0587 18.1809 82.6244 18.2053C82.0005 18.2053 81.5587 18.3578 81.2991 18.6627C81.0966 18.9293 80.9686 19.2449 80.9284 19.5773H78.4138C78.4348 18.8029 78.691 18.0534 79.1485 17.4283C79.8404 16.5505 81.0281 16.1116 82.7118 16.1116C83.723 16.0925 84.7241 16.3151 85.632 16.7609C86.4829 17.1938 86.9084 18.0106 86.9084 19.2113V23.7831C86.9084 24.1001 86.9144 24.4842 86.9265 24.9353C86.9198 25.1762 86.9733 25.415 87.0821 25.63C87.181 25.763 87.3136 25.8672 87.4662 25.9318V26.3161H84.6317C84.5576 26.1332 84.5024 25.9432 84.4668 25.7491C84.4366 25.5723 84.4122 25.3711 84.3938 25.1456C84.0288 25.5384 83.6072 25.8744 83.1428 26.1424C82.5594 26.4703 81.8994 26.6375 81.2302 26.6268C80.4106 26.6577 79.609 26.3823 78.9815 25.8543C78.6799 25.5783 78.4437 25.2385 78.2902 24.8596C78.1367 24.4807 78.0696 24.0724 78.0939 23.6643C78.0939 22.439 78.5699 21.5521 79.5218 21.0036C80.2422 20.6468 81.0237 20.4295 81.8249 20.3632L82.7181 20.2539ZM84.3115 21.4699C84.1516 21.57 83.9823 21.6542 83.8061 21.7215C83.5784 21.8005 83.3444 21.86 83.1066 21.8994L82.5132 22.0093C82.0974 22.0631 81.6931 22.1836 81.3156 22.366C81.1193 22.4738 80.9574 22.6347 80.8485 22.8304C80.7396 23.0261 80.6881 23.2485 80.7 23.4721C80.6833 23.6511 80.7086 23.8314 80.7739 23.9989C80.8391 24.1663 80.9425 24.3163 81.0758 24.4368C81.3372 24.6387 81.6605 24.7438 81.9906 24.7342C82.5535 24.736 83.1032 24.5635 83.564 24.2402C84.0437 23.9111 84.2928 23.3107 84.3115 22.4391L84.3115 21.4699ZM91.8461 26.3161H89.2397V12.8378H91.8461V26.3161ZM94.5983 12.8381H97.4147V23.8927H104.144V26.3161H94.5986L94.5983 12.8381ZM116.089 14.2736C116.511 14.8755 116.727 15.5967 116.708 16.3311C116.743 17.0457 116.522 17.7494 116.084 18.3152C115.796 18.6376 115.446 18.8988 115.056 19.0833C115.693 19.2944 116.241 19.7129 116.613 20.272C116.976 20.865 117.159 21.5515 117.138 22.2469C117.149 23.0061 116.941 23.7524 116.538 24.3959C116.27 24.8432 115.911 25.2291 115.484 25.5284C115.057 25.8276 114.572 26.0336 114.06 26.1329C113.433 26.2592 112.795 26.3206 112.156 26.3162H106.083V12.8378H112.596C114.24 12.8626 115.404 13.3412 116.089 14.2736ZM108.771 15.179V18.1504H112.047C112.544 18.1721 113.037 18.0567 113.472 17.8168C113.662 17.6872 113.813 17.5087 113.909 17.3003C114.005 17.0919 114.044 16.8612 114.019 16.6329C114.019 16.005 113.778 15.5904 113.296 15.3892C112.779 15.235 112.242 15.164 111.703 15.179L108.771 15.179ZM108.771 20.3816V23.975H112.043C112.51 23.9971 112.976 23.916 113.408 23.7374C113.999 23.4451 114.294 22.8844 114.294 22.0551C114.319 21.7548 114.25 21.4543 114.096 21.1953C113.942 20.9363 113.711 20.7318 113.435 20.6103C113.006 20.4441 112.548 20.3663 112.088 20.3816L108.771 20.3816Z" fill="white"/>
</svg>
