<svg width="164" height="35" viewBox="0 0 164 35" fill="none" xmlns="http://www.w3.org/2000/svg">
<g clip-path="url(#clip0_1_428)">
<path d="M0 0V16.632H16.632V0H0ZM18.368 0V16.632H35V0H18.368ZM153.322 5.45338C152.263 5.45338 151.341 5.69767 150.5 6.10465C149.659 6.56589 149.035 7.18982 148.574 8.0309C148.112 8.84486 147.868 9.76755 147.868 10.8257V12.9146H145.399V15.7905H147.868V27.9457H151.422V15.818H156.74V23.5506C156.74 26.725 158.232 28.3257 161.217 28.3257C161.705 28.3257 162.221 28.2444 162.709 28.163C163.225 28.0545 163.605 27.9186 163.822 27.8101L163.849 27.7831V24.8796L163.713 24.9883C163.496 25.1239 163.306 25.2328 162.98 25.3142C162.709 25.3956 162.465 25.4223 162.275 25.4223C161.57 25.4223 161.082 25.2596 160.729 24.8526C160.403 24.4728 160.24 23.8488 160.24 22.9264V15.818H163.849V12.9146H160.295V8.4649L160.186 8.49246L156.822 9.49612L156.74 9.52315V12.9146H151.422V11.0154C151.422 10.1472 151.64 9.4692 152.02 9.0351C152.399 8.60099 152.969 8.38383 153.675 8.38383C154.163 8.38383 154.678 8.49204 155.248 8.73622L155.384 8.81783V5.75173L155.302 5.7247C154.814 5.56191 154.163 5.45338 153.322 5.45338ZM73.3644 6.56568C72.7675 6.56568 72.2792 6.78305 71.8722 7.1629C71.4652 7.54274 71.248 8.03122 71.248 8.62812C71.248 9.19789 71.4652 9.68594 71.8722 10.0658C72.2792 10.4456 72.7675 10.6354 73.3644 10.6354C73.9613 10.6354 74.4769 10.4185 74.8567 10.0658C75.2637 9.68594 75.4804 9.19789 75.4804 8.62812C75.4804 8.05835 75.2637 7.56987 74.8567 7.1629C74.504 6.78305 73.9885 6.56568 73.3644 6.56568ZM63.2171 7.00021L57.8448 20.1591L56.8681 22.9264H56.787C56.6242 22.3023 56.3258 21.3527 55.8374 20.2132L50.6008 7.05426H45.4728V28.0273H48.8642V15.0852C48.8642 14.2712 48.8643 13.3488 48.8372 12.2093C48.8101 11.6395 48.7557 11.2053 48.7286 10.8797H48.8102C48.973 11.6937 49.1626 12.2905 49.2982 12.6703L55.5931 27.9728H57.9804L64.2207 12.5347C64.3564 12.182 64.492 11.4766 64.6277 10.8797H64.7093C64.6279 12.4263 64.5738 13.8101 64.5466 14.6512V27.9457H68.1548V7.00021H63.2171ZM85.6278 12.5622C84.027 12.5622 82.5622 12.9145 81.3413 13.6199C80.1204 14.3254 79.1435 15.3024 78.5195 16.5234C77.8683 17.7714 77.5429 19.2094 77.5429 20.8644C77.5429 22.3024 77.8684 23.5773 78.4925 24.744C79.1165 25.8835 79.9844 26.8061 81.1511 27.4301C82.2635 28.0542 83.566 28.3797 85.0311 28.3797C86.7133 28.3797 88.1511 28.0272 89.2906 27.3761L89.3176 27.3491V24.0932L89.182 24.2013C88.6665 24.5812 88.0699 24.907 87.473 25.0969C86.8489 25.314 86.2789 25.4223 85.7905 25.4223C84.3796 25.4223 83.2674 25.0156 82.4806 24.1203C81.6667 23.252 81.2597 22.0584 81.2597 20.5661C81.2597 19.0196 81.6666 17.7987 82.5077 16.9033C83.3487 16.008 84.4615 15.5467 85.818 15.5467C86.9576 15.5467 88.1238 15.9264 89.182 16.686L89.3176 16.7947V13.3486L89.2906 13.3216C88.8294 13.1317 88.3141 12.9146 87.6086 12.779C86.9575 12.6433 86.279 12.5622 85.6278 12.5622ZM123.857 12.5622C122.174 12.5622 120.79 12.9689 119.705 13.8642C118.62 14.7053 118.105 15.8452 118.105 17.1746C118.105 17.8801 118.213 18.5038 118.457 19.0193C118.701 19.5348 119.054 20.0235 119.543 20.4304C120.031 20.8103 120.736 21.2444 121.713 21.6514C122.527 22.0041 123.151 22.2753 123.531 22.4924C123.911 22.7094 124.155 22.9537 124.345 23.1436C124.481 23.3607 124.562 23.6319 124.562 23.9846C124.562 24.9885 123.802 25.4769 122.256 25.4769C121.659 25.4769 121.035 25.3681 120.302 25.1239C119.57 24.8797 118.891 24.5272 118.322 24.1203L118.186 24.0116V27.4572L118.268 27.4847C118.783 27.7289 119.407 27.8915 120.167 28.0814C120.926 28.2171 121.605 28.3257 122.202 28.3257C124.019 28.3257 125.512 27.9185 126.57 27.0232C127.655 26.1549 128.225 25.0426 128.225 23.6047C128.225 22.6008 127.954 21.7054 127.357 21.0271C126.57 20.376 125.593 19.6976 124.182 19.1549C123.07 18.6937 122.365 18.3411 122.039 18.0426C121.768 17.7713 121.632 17.3917 121.632 16.9033C121.632 16.4963 121.795 16.0894 122.202 15.818C122.609 15.5467 123.07 15.4111 123.748 15.4111C124.345 15.4111 124.969 15.5196 125.566 15.6824C126.163 15.8452 126.705 16.0891 127.139 16.4147L127.275 16.5234V13.213L127.194 13.1859C126.787 13.0232 126.244 12.8606 125.593 12.7249C124.942 12.6164 124.345 12.5622 123.857 12.5622ZM108.853 12.5893C106.384 12.5893 104.403 13.3218 103.019 14.7598C101.608 16.1978 100.93 18.1781 100.93 20.6742C100.93 23.0075 101.636 24.9071 102.992 26.2908C104.349 27.6474 106.194 28.3527 108.5 28.3527C110.915 28.3527 112.841 27.6203 114.225 26.1551C115.636 24.69 116.314 22.7365 116.314 20.3218C116.314 17.9342 115.663 16.0349 114.333 14.6512C113.058 13.2674 111.186 12.5893 108.853 12.5893ZM137.531 12.5893C135.062 12.5893 133.082 13.3218 131.698 14.7598C130.314 16.1978 129.608 18.1781 129.608 20.6742C129.608 23.0075 130.314 24.9071 131.671 26.2908C133.027 27.6474 134.872 28.3527 137.178 28.3527C139.593 28.3527 141.519 27.6203 142.903 26.1551C144.314 24.69 144.992 22.7365 144.992 20.3218C144.992 17.9342 144.341 16.0349 143.012 14.6512C141.736 13.2674 139.864 12.5893 137.531 12.5893ZM99.2483 12.6703C98.3801 12.6703 97.5659 12.9421 96.8605 13.5118C96.2636 14.0002 95.8566 14.7056 95.5039 15.5467H95.4769V12.9146H91.9497V27.9457H95.4769V20.2672C95.4769 18.9649 95.748 17.8798 96.3449 17.093C96.9418 16.2791 97.7016 15.8721 98.624 15.8721C98.9496 15.8721 99.2753 15.9535 99.6823 16.0078C100.062 16.1163 100.333 16.225 100.523 16.3607L100.659 16.4688V12.9416L100.577 12.9146C100.333 12.7518 99.8452 12.6703 99.2483 12.6703ZM71.5739 12.9146V27.9457H75.101V12.9146H71.5739ZM108.69 15.4921C109.938 15.4921 110.915 15.899 111.62 16.7401C112.326 17.5812 112.706 18.8021 112.706 20.4029C112.651 22.0308 112.353 23.3062 111.674 24.1473C111.023 24.9884 109.992 25.3952 108.717 25.3952C107.442 25.3952 106.411 24.9886 105.678 24.0932C104.946 23.2522 104.593 22.031 104.593 20.4845C104.593 18.8837 104.973 17.6629 105.678 16.7947C106.411 15.9265 107.415 15.4921 108.69 15.4921ZM137.341 15.4921C138.562 15.4921 139.566 15.899 140.271 16.7401C140.977 17.5812 141.357 18.8021 141.357 20.4029C141.357 22.0308 141.004 23.3062 140.325 24.1473C139.674 24.9884 138.644 25.3952 137.368 25.3952C136.066 25.3952 135.062 24.9886 134.329 24.0932C133.597 23.2522 133.244 22.031 133.244 20.4845C133.244 18.8837 133.624 17.6629 134.329 16.7947C135.062 15.9265 136.066 15.4921 137.341 15.4921ZM0 18.368V35H16.632V18.368H0ZM18.368 18.368V35H35V18.368H18.368Z" fill="white"/>
</g>
<defs>
<clipPath id="clip0_1_428">
<rect width="163.849" height="35" fill="white"/>
</clipPath>
</defs>
</svg>
