<svg width="158" height="40" viewBox="0 0 158 40" fill="none" xmlns="http://www.w3.org/2000/svg">
<g id="Navbar Brand" clip-path="url(#clip0_64_65)">
<g id="logo">
<path id="Vector" d="M34.1874 17.1468V22.4431C34.1874 24.7897 34.1858 26.4498 34.078 27.7468C33.9718 29.0238 33.7706 29.8019 33.4525 30.4119C32.8336 31.6006 31.8622 32.5701 30.6703 33.1875C30.0587 33.5048 29.2787 33.7055 27.9987 33.8114C26.6986 33.919 25.0345 33.9206 22.6824 33.9206H17.7839C15.4317 33.9206 13.7677 33.919 12.4678 33.8114C11.1874 33.7055 10.4077 33.5048 9.796 33.1875C8.60432 32.5701 7.63267 31.6006 7.01363 30.4119C6.69586 29.8019 6.49465 29.0238 6.38829 27.7468C6.28037 26.4498 6.27901 24.7897 6.27901 22.4431V17.5566C6.27901 15.21 6.28037 13.5501 6.38829 12.2533C6.49465 10.976 6.69586 10.1982 7.01363 9.58793C7.63267 8.39913 8.60432 7.42982 9.796 6.81227C10.4077 6.49526 11.1874 6.29454 12.4678 6.18847C13.7677 6.08077 15.4316 6.07946 17.7839 6.07946H23.0931C23.1405 4.9329 23.37 3.83319 23.7532 2.80835H17.711C15.4481 2.80831 13.648 2.80831 12.1964 2.92857C10.7097 3.05172 9.44223 3.30949 8.28446 3.90945C6.49387 4.83734 5.03393 6.2938 4.1038 8.08007C3.50239 9.23502 3.244 10.4994 3.12055 11.9825C3 13.4306 3 15.2264 3 17.4838V22.5159C3 24.7734 3 26.5692 3.12055 28.0175C3.244 29.5005 3.50239 30.7648 4.1038 31.9199C5.03393 33.706 6.49387 35.1624 8.28446 36.0906C9.44223 36.6904 10.7097 36.948 12.1964 37.0715C13.648 37.1917 15.448 37.1917 17.7109 37.1917H22.7553C25.0181 37.1917 26.8183 37.1917 28.27 37.0715C29.7567 36.948 31.024 36.6904 32.1819 36.0906C33.9722 35.1624 35.4322 33.706 36.3626 31.9199C36.9639 30.7648 37.2221 29.5005 37.3459 28.0175C37.4664 26.5692 37.4664 24.7734 37.4664 22.5163V16.4883C36.4389 16.8707 35.3367 17.0995 34.1874 17.1468Z" fill="white"/>
<g id="Frame 12">
<path id="Vector_2" d="M61.1913 17.1083C61.1913 18.1125 60.9486 19.0539 60.4633 19.9328C59.9961 20.8116 59.2501 21.5197 58.2254 22.0578C57.2187 22.5955 55.9424 22.8646 54.3963 22.8646H51.2415V30.0737H47.4666V11.2981H54.3963C55.8526 11.2981 57.0929 11.5492 58.1176 12.0513C59.1419 12.5534 59.9059 13.2438 60.4092 14.1225C60.9306 15.0012 61.1913 15.9964 61.1913 17.1083ZM54.2344 19.8251C55.2772 19.8251 56.0502 19.592 56.5535 19.1257C57.0568 18.6415 57.3085 17.969 57.3085 17.1083C57.3085 15.2791 56.2838 14.3646 54.2344 14.3646H51.2415V19.8251H54.2344Z" fill="white"/>
<path id="Vector_3" d="M66.9661 17.4848C67.4514 16.6958 68.0806 16.0771 68.8536 15.6288C69.6443 15.1805 70.5431 14.9563 71.5498 14.9563V18.9105H70.5521C69.366 18.9105 68.4671 19.1884 67.856 19.7443C67.2625 20.3004 66.9661 21.2686 66.9661 22.6495V30.0737H63.1912V15.1715H66.9661V17.4848Z" fill="white"/>
<path id="Vector_4" d="M81.1264 30.0736C79.6885 30.0736 78.3941 29.7596 77.2436 29.1319C76.0931 28.4863 75.1856 27.581 74.5204 26.4153C73.8732 25.2495 73.5498 23.9047 73.5498 22.3803C73.5498 20.856 73.8822 19.5112 74.5474 18.3455C75.2303 17.1799 76.1562 16.2833 77.3248 15.6556C78.4929 15.01 79.7963 14.6873 81.2346 14.6873C82.6724 14.6873 83.9758 15.01 85.1444 15.6556C86.3125 16.2833 87.2294 17.1799 87.8947 18.3455C88.5775 19.5112 88.9194 20.856 88.9194 22.3803C88.9194 23.9047 88.5685 25.2495 87.8676 26.4153C87.1844 27.581 86.2498 28.4863 85.0632 29.1319C83.8947 29.7596 82.5827 30.0736 81.1264 30.0736ZM81.1264 26.7918C81.8096 26.7918 82.4478 26.6303 83.0409 26.3077C83.652 25.9671 84.1377 25.465 84.4972 24.8014C84.8567 24.1377 85.0362 23.331 85.0362 22.3803C85.0362 20.9635 84.6587 19.8788 83.9037 19.1256C83.1667 18.3545 82.2589 17.969 81.1805 17.969C80.1021 17.969 79.1942 18.3545 78.4573 19.1256C77.7379 19.8788 77.3785 20.9635 77.3785 22.3803C77.3785 23.7971 77.7289 24.8909 78.4302 25.6621C79.1491 26.4153 80.048 26.7918 81.1264 26.7918Z" fill="white"/>
<path id="Vector_5" d="M90.9194 22.3269C90.9194 20.8205 91.2158 19.4844 91.8093 18.3188C92.4204 17.1531 93.2471 16.2565 94.2899 15.6288C95.3326 15.0012 96.4917 14.6874 97.7681 14.6874C98.7391 14.6874 99.6646 14.9026 100.545 15.333C101.426 15.7454 102.128 16.3013 102.648 17.0007V9.92627H106.478V29.8316H102.648V27.6257C102.181 28.3609 101.525 28.9529 100.68 29.4011C99.8355 29.8496 98.8559 30.0737 97.741 30.0737C96.4827 30.0737 95.3326 29.7507 94.2899 29.1054C93.2471 28.4598 92.4204 27.5541 91.8093 26.3884C91.2158 25.2051 90.9194 23.8508 90.9194 22.3269ZM102.676 22.3805C102.676 21.4658 102.496 20.686 102.137 20.0404C101.777 19.3768 101.291 18.8747 100.68 18.534C100.069 18.1753 99.4129 17.996 98.712 17.996C98.0107 17.996 97.3635 18.1663 96.7704 18.507C96.1773 18.8478 95.692 19.3499 95.3145 20.0134C94.9551 20.659 94.7751 21.4302 94.7751 22.3269C94.7751 23.2232 94.9551 24.0123 95.3145 24.6939C95.692 25.3572 96.1773 25.8683 96.7704 26.2269C97.3815 26.5859 98.0287 26.765 98.712 26.765C99.4129 26.765 100.069 26.5949 100.68 26.2539C101.291 25.8953 101.777 25.3931 102.137 24.7475C102.496 24.0843 102.676 23.2951 102.676 22.3805Z" fill="white"/>
<path id="Vector_6" d="M122.715 14.9834V29.8856H118.913V28.0026C118.427 28.6483 117.789 29.1594 116.998 29.536C116.225 29.8946 115.38 30.0737 114.463 30.0737C113.295 30.0737 112.262 29.8316 111.363 29.3475C110.464 28.8453 109.754 28.1192 109.233 27.1685C108.729 26.2002 108.478 25.0525 108.478 23.7256V14.9834H112.252V23.1876C112.252 24.3713 112.549 25.2856 113.142 25.9312C113.735 26.5588 114.545 26.8729 115.569 26.8729C116.612 26.8729 117.43 26.5588 118.023 25.9312C118.616 25.2856 118.913 24.3713 118.913 23.1876V14.9834H122.715Z" fill="white"/>
<path id="Vector_7" d="M124.715 22.3803C124.715 20.838 125.029 19.4932 125.659 18.3455C126.288 17.1799 127.16 16.2833 128.274 15.6556C129.388 15.01 130.665 14.6873 132.103 14.6873C133.954 14.6873 135.482 15.1535 136.687 16.086C137.909 17.0006 138.727 18.2917 139.14 19.9593H135.069C134.853 19.3139 134.484 18.8118 133.963 18.4531C133.46 18.0765 132.831 17.8882 132.076 17.8882C130.997 17.8882 130.143 18.2828 129.514 19.0718C128.885 19.8428 128.57 20.946 128.57 22.3803C128.57 23.7971 128.885 24.8999 129.514 25.6891C130.143 26.4602 130.997 26.8458 132.076 26.8458C133.604 26.8458 134.601 26.1642 135.069 24.8014H139.14C138.727 26.4153 137.909 27.6975 136.687 28.6478C135.464 29.5985 133.936 30.0736 132.103 30.0736C130.665 30.0736 129.388 29.7596 128.274 29.1319C127.16 28.4863 126.288 27.59 125.659 26.4422C125.029 25.2765 124.715 23.9227 124.715 22.3803Z" fill="white"/>
<path id="Vector_8" d="M146.721 18.2648V25.4736C146.721 25.9758 146.838 26.3433 147.072 26.5768C147.324 26.7919 147.737 26.8994 148.313 26.8994H150.065V30.0736H147.692C144.511 30.0736 142.919 28.5313 142.919 25.4471V18.2648H141.14V15.1715H142.919V11.4863H146.721V15.1715H150.065V18.2648H146.721Z" fill="white"/>
</g>
<path id="Vector_9" d="M25 7.9767C25 3.91189 28.3032 0.616699 32.3778 0.616699C36.4524 0.616699 39.7556 3.91189 39.7556 7.9767C39.7556 12.0415 36.4524 15.3367 32.3778 15.3367C28.3032 15.3367 25 12.0415 25 7.9767Z" fill="#7214FF"/>
</g>
<path id="Vector_10" d="M154.346 30.4115C153.663 30.4115 153.096 30.205 152.647 29.7929C152.216 29.3623 152 28.8332 152 28.2055C152 27.5779 152.216 27.0578 152.647 26.6456C153.096 26.2151 153.663 26 154.346 26C155.011 26 155.559 26.2151 155.991 26.6456C156.422 27.0578 156.638 27.5779 156.638 28.2055C156.638 28.8332 156.422 29.3623 155.991 29.7929C155.559 30.205 155.011 30.4115 154.346 30.4115Z" fill="#7214FF"/>
</g>
<defs>
<clipPath id="clip0_64_65">
<rect width="158" height="38.3834" fill="white" transform="translate(0 0.80835)"/>
</clipPath>
</defs>
</svg>
