<svg width="33" height="30" viewBox="0 0 33 30" fill="none" xmlns="http://www.w3.org/2000/svg">
<g id="Icon" clip-path="url(#clip0_64_301)">
<g id="Group">
<path id="Vector" d="M10.4297 5.41219C11.0687 5.42722 11.6475 4.85594 11.6324 4.217C11.6324 3.18718 11.6399 2.14985 11.6324 1.12003C11.6024 0.435993 10.9033 -0.120259 10.2268 0.0150455C9.67051 0.0977316 9.21949 0.623915 9.23452 1.1952C9.23452 2.20247 9.23452 3.20973 9.23452 4.20948C9.21197 4.85594 9.79078 5.42722 10.4297 5.41219Z" fill="#F6F6F7"/>
<path id="Vector_2" d="M22.4571 5.41219C23.096 5.42722 23.6673 4.85594 23.6598 4.217C23.6598 3.18718 23.6673 2.14985 23.6598 1.12003C23.6372 0.435993 22.9306 -0.120259 22.2541 0.0150455C21.6978 0.105248 21.2468 0.631432 21.2619 1.1952C21.2619 2.20247 21.2619 3.20973 21.2619 4.20948C21.2393 4.85594 21.8181 5.42722 22.4571 5.41219Z" fill="#F6F6F7"/>
<path id="Vector_3" d="M32.0785 10.8243H0.808105C0.808105 14.7858 0.808105 19.0178 0.808105 23.0093V26.5873C0.808105 28.4665 2.33404 29.9925 4.21327 29.9925H7.61843C13.9402 29.9925 20.2694 29.9925 26.5911 29.9925C26.6513 29.9925 26.7114 29.9925 26.779 29.9925H28.6808C30.56 29.9925 32.086 28.4665 32.086 26.5873V23.0093H32.0785C32.0785 19.0178 32.0785 14.7933 32.0785 10.8243ZM22.0208 19.0178C21.9682 19.4462 21.645 19.7619 21.2992 19.9799L19.5327 21.2503C19.7733 21.9945 20.0138 22.7311 20.2544 23.4753C20.4047 23.8662 20.3972 24.3322 20.1416 24.678C19.7958 25.2042 19.0141 25.3545 18.5029 25.0012C17.8114 24.5126 17.1348 24.009 16.4433 23.5129C15.8119 23.9714 15.188 24.4224 14.5565 24.881C14.3385 25.0463 14.0905 25.1816 13.8124 25.1967C13.3538 25.2343 12.8953 24.9862 12.6698 24.5878C12.4969 24.2871 12.4744 23.9188 12.5871 23.5956C12.8352 22.8213 13.0907 22.0471 13.3388 21.2728C12.6698 20.7767 11.9933 20.2956 11.3167 19.7995C10.8883 19.4913 10.7154 18.8825 10.9184 18.4014C11.0837 17.9579 11.5347 17.6497 12.0083 17.6422C12.8427 17.6347 13.6846 17.6422 14.5265 17.6422C14.7896 16.8454 15.0376 16.0486 15.3007 15.2593C15.4661 14.7632 15.9923 14.4174 16.5109 14.4625C16.977 14.4851 17.413 14.8158 17.5633 15.2593C17.8264 16.0486 18.082 16.8454 18.3375 17.6347C18.3375 17.6422 18.3451 17.6422 18.3451 17.6422C19.1945 17.6497 20.0514 17.6347 20.9008 17.6497C21.5999 17.6572 22.1486 18.3488 22.0208 19.0178Z" fill="#F6F6F7"/>
<path id="Vector_4" d="M26.7416 2.41291C26.1177 2.39036 25.4863 2.42795 24.8624 2.41291C24.8549 3.10447 24.885 3.80354 24.8474 4.4951C24.7346 5.67525 23.6447 6.64493 22.4645 6.62238C21.2844 6.65245 20.1869 5.67525 20.0741 4.50261C20.0366 3.81106 20.0666 3.11199 20.0591 2.42043H12.8429C12.8354 3.11199 12.8654 3.81106 12.8278 4.50261C12.7151 5.68277 11.6251 6.65245 10.445 6.6299C9.26483 6.65997 8.16736 5.69029 8.0546 4.51013C8.01702 3.81858 8.04709 3.1195 8.03957 2.42043C7.41567 2.42043 6.78424 2.42043 6.16034 2.42043H4.28111C2.34927 2.41291 0.800781 3.9614 0.800781 5.87069V8.1859C0.800781 8.66698 0.823332 9.14807 0.808298 9.62163H32.0787C32.0636 9.14807 32.0862 8.66698 32.0862 8.1859V5.87069C32.0862 3.9614 30.5377 2.4054 28.6209 2.4054H26.7416V2.41291Z" fill="#32CAFD"/>
</g>
</g>
<defs>
<clipPath id="clip0_64_301">
<rect width="31.2779" height="30" fill="white" transform="translate(0.800781)"/>
</clipPath>
</defs>
</svg>
