<svg width="43" height="30" viewBox="0 0 43 30" fill="none" xmlns="http://www.w3.org/2000/svg">
<g id="Icon" clip-path="url(#clip0_64_293)">
<g id="Group">
<path id="Vector" d="M2.29272 0.358316C2.82606 0.133316 3.39272 -0.00835088 3.96772 -1.75464e-05C15.6344 -1.75464e-05 27.3011 -1.75464e-05 38.9677 -1.75464e-05C39.5427 -0.00835088 40.1177 0.133316 40.6427 0.366649C37.8011 3.23332 34.9177 6.06665 32.0594 8.92498C29.6344 11.3333 27.2094 13.75 24.7927 16.1583C24.4927 16.4416 24.2177 16.7583 23.8927 17.0166C22.9344 17.8666 21.5177 18.1416 20.3011 17.7333C19.6927 17.55 19.1677 17.175 18.7177 16.7416C13.3594 11.4083 8.00106 6.07498 2.63439 0.741649C2.51772 0.616649 2.39272 0.499982 2.29272 0.358316Z" fill="#B756FE"/>
<path id="Vector_2" d="M0.500944 2.15002C4.82594 6.42502 9.13428 10.7167 13.4509 15C9.13428 19.2834 4.82594 23.575 0.500944 27.85C0.300944 27.3917 0.167611 26.9 0.134277 26.3917V3.60836C0.167611 3.10002 0.300944 2.60836 0.500944 2.15002Z" fill="#F6F6F7"/>
<path id="Vector_3" d="M29.4844 15C33.801 10.7167 38.101 6.41669 42.4344 2.15002C42.6344 2.60836 42.776 3.10002 42.801 3.60836V26.4C42.7677 26.9 42.6344 27.4 42.4344 27.8584C38.1094 23.575 33.801 19.2834 29.4844 15Z" fill="#F6F6F7"/>
<path id="Vector_4" d="M5.27606 26.6416C8.59272 23.3499 11.9011 20.0583 15.2177 16.7666C15.8594 17.3999 16.4844 18.0416 17.1261 18.6666C18.0594 19.5749 19.2844 20.1749 20.5677 20.3583C22.3927 20.6333 24.3261 20.0499 25.6761 18.7916C26.3761 18.1333 27.0344 17.4416 27.7177 16.7666C30.3761 19.4083 33.0344 22.0499 35.6927 24.6916C37.3427 26.3416 39.0177 27.9666 40.6511 29.6333C40.1261 29.8666 39.5511 30.0083 38.9761 29.9999C27.3094 29.9999 15.6427 29.9999 3.97606 29.9999C3.39272 30.0083 2.82606 29.8666 2.29272 29.6333C3.25939 28.6166 4.28439 27.6416 5.27606 26.6416Z" fill="#F6F6F7"/>
</g>
</g>
<defs>
<clipPath id="clip0_64_293">
<rect width="42.6667" height="30" fill="white" transform="translate(0.134277)"/>
</clipPath>
</defs>
</svg>
