<svg width="23" height="30" viewBox="0 0 23 30" fill="none" xmlns="http://www.w3.org/2000/svg">
<g id="Icon" clip-path="url(#clip0_64_315)">
<g id="Group">
<g id="Group_2">
<path id="Vector" d="M2.55133 0H14.0767C14.0767 2.05078 14.0767 4.10742 14.0767 6.1582C14.0709 6.93164 14.4341 7.69336 15.0377 8.18555C15.5181 8.58984 16.1451 8.80078 16.772 8.79492C18.8052 8.79492 20.8326 8.79492 22.8658 8.79492C22.8658 14.9883 22.8658 21.1816 22.8658 27.3691C22.8716 28.2715 22.3736 29.1562 21.6002 29.6191C21.2486 29.8418 20.8443 29.9531 20.4341 30.0059H2.42242C1.96539 29.9355 1.51422 29.8008 1.13922 29.5254C0.441953 29.0391 0.00835943 28.207 0.0142188 27.3633C0.0142188 19.1602 0.0142188 10.957 0.0142188 2.75391C0.0142188 2.4375 0.0435157 2.12109 0.143125 1.82227C0.465391 0.791016 1.4732 0.0351562 2.55133 0ZM6.0025 12.3809C5.55719 12.457 5.2232 12.9199 5.29937 13.3652C5.35211 13.7871 5.74469 14.127 6.17242 14.1211C9.66461 14.1211 13.1627 14.1211 16.6607 14.1211C16.9361 14.1328 17.2173 14.0215 17.3931 13.8047C17.6041 13.5586 17.6627 13.1953 17.5279 12.9023C17.399 12.5859 17.065 12.3633 16.7252 12.3633C13.3091 12.3633 9.88727 12.3633 6.47125 12.3633C6.30719 12.3633 6.15484 12.3516 6.0025 12.3809ZM6.0025 15.8965C5.45758 15.9844 5.11773 16.6406 5.37555 17.1328C5.52203 17.4551 5.87359 17.6543 6.22516 17.6367C9.7232 17.6367 13.2154 17.6367 16.7134 17.6367C17.0767 17.6367 17.4283 17.3965 17.5396 17.0508C17.6978 16.6465 17.4869 16.1426 17.0884 15.9668C16.8658 15.8496 16.608 15.8848 16.3677 15.8789C13.0865 15.8789 9.80523 15.8789 6.52398 15.8789C6.3482 15.8789 6.17242 15.8672 6.0025 15.8965ZM6.0025 19.4121C5.55719 19.4883 5.2232 19.9512 5.29937 20.3965C5.35211 20.8184 5.74469 21.1582 6.17242 21.1523C9.57086 21.1523 12.9693 21.1523 16.3677 21.1523C16.6373 21.1523 16.9361 21.1816 17.1705 21.0234C17.5923 20.7832 17.7271 20.1738 17.44 19.7812C17.2701 19.5234 16.9595 19.3828 16.6548 19.3945C13.274 19.3945 9.89898 19.3945 6.51813 19.3945C6.3482 19.3945 6.17242 19.3828 6.0025 19.4121ZM6.0025 22.9277C5.55719 23.0039 5.2232 23.4668 5.29937 23.918C5.35211 24.3398 5.74469 24.6797 6.16656 24.6738C8.49273 24.6738 10.813 24.6738 13.1392 24.6738C13.4263 24.6855 13.7252 24.5566 13.8951 24.3223C14.1002 24.0586 14.1295 23.6719 13.9713 23.3789C13.8248 23.0977 13.5142 22.9102 13.1978 22.916C10.9537 22.916 8.70367 22.916 6.45953 22.916C6.30719 22.9102 6.15484 22.9043 6.0025 22.9277Z" fill="#F6F6F7"/>
</g>
<path id="Vector_2" d="M15.8343 0.521484C18.0082 2.68945 20.1761 4.86328 22.35 7.03125C20.4691 7.03125 18.5941 7.03125 16.7132 7.03125C16.35 7.03125 16.0043 6.79102 15.8871 6.44531C15.8226 6.27539 15.8343 6.09375 15.8343 5.91797C15.8343 4.11914 15.8343 2.32031 15.8343 0.521484Z" fill="#41E88D"/>
</g>
</g>
<defs>
<clipPath id="clip0_64_315">
<rect width="22.8516" height="30" fill="white" transform="translate(0.0141602)"/>
</clipPath>
</defs>
</svg>
