<svg width="39" height="30" viewBox="0 0 39 30" fill="none" xmlns="http://www.w3.org/2000/svg">
<g id="Icon" clip-path="url(#clip0_64_309)">
<g id="Group">
<path id="Vector" d="M5.83573 0.303783C6.36919 0.0444596 6.97675 -0.00740501 7.56208 4.22692e-06C11.0666 4.22692e-06 14.5786 4.22692e-06 18.0832 4.22692e-06C18.2907 -0.0148142 18.4907 0.0666874 18.6167 0.2371C19.5058 1.28921 20.3875 2.34873 21.2766 3.40084C25.5962 3.40084 29.9083 3.40084 34.2279 3.40084C34.6725 3.40084 35.117 3.38603 35.5542 3.46753C36.1988 3.60089 36.7915 3.94172 37.2287 4.43814C37.7251 4.97901 37.977 5.70512 38.0066 6.43863V23.065C37.9696 23.6429 37.7992 24.2134 37.4658 24.6876C36.9842 25.4137 36.1766 25.8879 35.3245 26.0064C35.3245 20.983 35.3245 15.9521 35.3245 10.9286C35.3319 10.3285 35.3171 9.72092 35.1244 9.15041C34.6947 7.70561 33.4648 6.54236 32.0052 6.18672C31.3754 6.0163 30.7234 6.05335 30.0788 6.05335C26.0111 6.05335 21.936 6.05335 17.8683 6.05335C17.2089 5.26797 16.5495 4.49 15.8975 3.70462C15.653 3.40825 15.4085 3.08966 15.0676 2.89702C14.749 2.70438 14.3712 2.65251 14.0007 2.65251C10.7036 2.65251 7.40649 2.65251 4.10938 2.65251C4.25756 1.65226 4.90957 0.733519 5.83573 0.303783Z" fill="#DF2DB1"/>
<path id="Vector_2" d="M1.81237 4.2826C2.28657 4.04551 2.82003 3.964 3.34609 3.964C6.92475 3.964 10.5108 3.964 14.0895 3.964C14.2821 3.94919 14.4748 4.0381 14.5933 4.19369C15.4898 5.25321 16.3715 6.31273 17.268 7.36484C21.8173 7.36484 26.3592 7.35743 30.9085 7.37225C32.0717 7.35743 33.2053 8.04649 33.7017 9.09861C33.9981 9.68394 34.0351 10.3508 34.0203 10.9954C34.0203 16.2337 34.0203 21.4646 34.0203 26.703C34.0129 27.1327 33.9759 27.5772 33.8203 27.9848C33.5165 28.8368 32.8052 29.5407 31.9383 29.8297C31.3901 30.0223 30.8047 30.0075 30.2342 30.0075C21.4172 30.0075 12.6002 30.0075 3.78323 30.0075C3.17567 30.0149 2.54589 30.0149 1.97538 29.7704C0.871402 29.3332 0.115659 28.207 0.0786133 27.029V6.98697C0.10825 5.85336 0.782491 4.7642 1.81237 4.2826Z" fill="#F6F6F7"/>
</g>
</g>
<defs>
<clipPath id="clip0_64_309">
<rect width="37.9353" height="30" fill="white" transform="translate(0.0786133)"/>
</clipPath>
</defs>
</svg>
